<svg xmlns="http://www.w3.org/2000/svg" width="32" height="32"><path d="M25.268 4.482C16.477-3.681 3.237 7.137 2.086 17.012c-.726 6.227 3.223 11.128 9.25 12.399 6.9 1.455 11.635-4.956 14.573-10.149 1.59-2.81-2.729-5.329-4.316-2.523-1.706 3.015-3.612 6.418-7.066 7.635C9.856 26.019 6.316 21 7.153 16.915c1.089-5.316 9.185-13.906 14.58-8.897 2.358 2.19 5.902-1.338 3.535-3.536"/><path d="M15 18.75c3.957-.056 7.836-.741 11.75-1.25l-2.5-2.5c-.356 4.47-2.003 8.362-1.161 12.915.587 3.167 5.405 1.821 4.822-1.33-.714-3.854 1.032-7.748 1.339-11.585.099-1.235-1.219-2.667-2.5-2.5-3.912.508-7.795 1.194-11.75 1.25-3.222.045-3.226 5.045 0 5"/></svg>