<?xml version="1.0" encoding="utf-8"?>
<!-- Generator: Adobe Illustrator 16.0.0, SVG Export Plug-In . SVG Version: 6.00 Build 0)  -->
<!DOCTYPE svg PUBLIC "-//W3C//DTD SVG 1.0//EN" "http://www.w3.org/TR/2001/REC-SVG-20010904/DTD/svg10.dtd">
<svg version="1.0" id="Layer_1" xmlns="http://www.w3.org/2000/svg" xmlns:xlink="http://www.w3.org/1999/xlink" x="0px" y="0px"
	 width="32px" height="32px" viewBox="0 0 32 32" enable-background="new 0 0 32 32" xml:space="preserve">
<g>
	<g>
		<path fill="#231F20" d="M25.268,4.482C16.477-3.681,3.237,7.137,2.086,17.012c-0.726,6.227,3.223,11.128,9.25,12.399
			c6.9,1.455,11.635-4.956,14.573-10.149c1.59-2.81-2.729-5.329-4.316-2.523c-1.706,3.015-3.612,6.418-7.066,7.635
			C9.856,26.019,6.316,21,7.153,16.915c1.089-5.316,9.185-13.906,14.58-8.897C24.091,10.208,27.635,6.68,25.268,4.482L25.268,4.482z
			"/>
	</g>
</g>
<g>
	<g>
		<path fill="#231F20" d="M15,18.75c3.957-0.056,7.836-0.741,11.75-1.25c-0.833-0.833-1.667-1.667-2.5-2.5
			c-0.356,4.47-2.003,8.362-1.161,12.915c0.587,3.167,5.405,1.821,4.822-1.33C27.197,22.731,28.943,18.837,29.25,15
			c0.099-1.235-1.219-2.667-2.5-2.5c-3.912,0.508-7.795,1.194-11.75,1.25C11.778,13.795,11.774,18.795,15,18.75L15,18.75z"/>
	</g>
</g>
</svg>
