<svg id="Layer_1" data-name="Layer 1" xmlns="http://www.w3.org/2000/svg" viewBox="0 0 64 64"><title>Icons 100</title><path d="M54.01,24.0208v2a2,2,0,0,1,2,2v24a2,2,0,0,1-2,2h-8a2,2,0,0,1-2-2v-24a2,2,0,0,1,2-2v-2a2,2,0,0,1,2-2l1.4256-9.5056a.5806.5806,0,0,1,1.1484,0l1.426,9.5056A2,2,0,0,1,54.01,24.0208Zm-7,25a1,1,0,0,0,1,1h4a1,1,0,0,0,1-1v-2a1,1,0,0,0-1-1h-4a1,1,0,0,0-1,1Zm0-8a1,1,0,0,0,1,1h4a1,1,0,0,0,1-1v-2a1,1,0,0,0-1-1h-4a1,1,0,0,0-1,1Zm5-11h-4a1,1,0,0,0-1,1v2a1,1,0,0,0,1,1h4a1,1,0,0,0,1-1v-2A1,1,0,0,0,52.01,30.0208Zm-44,22v-32a2,2,0,0,1,2-2h9a2,2,0,0,1,2,2v32a2,2,0,0,1-2,2h-9A2,2,0,0,1,8.01,52.0208Zm3-3a1,1,0,0,0,1,1h5a1,1,0,0,0,1-1v-2a1,1,0,0,0-1-1h-5a1,1,0,0,0-1,1Zm0-8a1,1,0,0,0,1,1h5a1,1,0,0,0,1-1v-2a1,1,0,0,0-1-1h-5a1,1,0,0,0-1,1Zm0-8a1,1,0,0,0,1,1h5a1,1,0,0,0,1-1v-2a1,1,0,0,0-1-1h-5a1,1,0,0,0-1,1Zm0-8a1,1,0,0,0,1,1h5a1,1,0,0,0,1-1v-2a1,1,0,0,0-1-1h-5a1,1,0,0,0-1,1Zm29,29h-15a2,2,0,0,1-2-2v-40a2,2,0,0,1,2-2h15a2,2,0,0,1,2,2v40A2,2,0,0,1,40.01,54.0208Zm-9-39a1,1,0,0,0-1-1h-3a1,1,0,0,0-1,1v2a1,1,0,0,0,1,1h3a1,1,0,0,0,1-1Zm0,8a1,1,0,0,0-1-1h-3a1,1,0,0,0-1,1v2a1,1,0,0,0,1,1h3a1,1,0,0,0,1-1Zm0,8a1,1,0,0,0-1-1h-3a1,1,0,0,0-1,1v2a1,1,0,0,0,1,1h3a1,1,0,0,0,1-1Zm0,8a1,1,0,0,0-1-1h-3a1,1,0,0,0-1,1v2a1,1,0,0,0,1,1h3a1,1,0,0,0,1-1Zm0,8a1,1,0,0,0-1-1h-3a1,1,0,0,0-1,1v2a1,1,0,0,0,1,1h3a1,1,0,0,0,1-1Zm8-32a1,1,0,0,0-1-1h-3a1,1,0,0,0-1,1v2a1,1,0,0,0,1,1h3a1,1,0,0,0,1-1Zm0,8a1,1,0,0,0-1-1h-3a1,1,0,0,0-1,1v2a1,1,0,0,0,1,1h3a1,1,0,0,0,1-1Zm0,8a1,1,0,0,0-1-1h-3a1,1,0,0,0-1,1v2a1,1,0,0,0,1,1h3a1,1,0,0,0,1-1Zm0,8a1,1,0,0,0-1-1h-3a1,1,0,0,0-1,1v2a1,1,0,0,0,1,1h3a1,1,0,0,0,1-1Zm0,8a1,1,0,0,0-1-1h-3a1,1,0,0,0-1,1v2a1,1,0,0,0,1,1h3a1,1,0,0,0,1-1Z" fill="#444444" fill-rule="evenodd"/></svg>