<svg id="Layer_1" data-name="Layer 1" xmlns="http://www.w3.org/2000/svg" viewBox="0 0 64 64"><title>Icons 100</title><path d="M8.01,15.0208a5,5,0,0,1,5-5h38a5,5,0,0,1,5,5v25a5,5,0,0,1-5,5h-38a5,5,0,0,1-5-5Zm4,22a1,1,0,0,0,1,1h38a1,1,0,0,0,1-1v-22a1,1,0,0,0-1-1h-38a1,1,0,0,0-1,1Zm11,17a1,1,0,0,1-1-1,1.0711,1.0711,0,0,1,1-1c1.2284-.2086,2.4907-2.0632,3-4,.14-.5342.4477-1,1-1h10c.5524,0,.86.4658,1,1,.5092,1.9368,1.7715,3.7914,3,4a1.0715,1.0715,0,0,1,1,1,1,1,0,0,1-1,1Z" fill="#444444" fill-rule="evenodd"/></svg>