<svg xmlns="http://www.w3.org/2000/svg" viewBox="0 0 350 188"><path fill="#feefc4" d="M0 0h350v188H0"/><path d="M338 12v164H12V12h326m2-2H10v168h330V10" fill="#e3c675"/><path d="M192.7 151.4l1 4.3-4.4-.5v4.5l-4.3-1.5-1.1 4.3-3.7-2.5-2.2 4-3-3.3-3 3.3-2.1-4-3.8 2.6-1.1-4.4-4.2 1.6v-4.5l-4.5.5 1-4.4-4.5-.6 2-4-4.1-1.7 3-3.4-3.8-2.6 3.7-2.6-3-3.3 4.2-1.7-2-4 4.5-.6-1-4.4 4.4.5v-4.5l4.3 1.6 1.1-4.4 3.7 2.5 2.2-4 3 3.4 3-3.3 2.1 4 3.8-2.6 1.1 4.3 4.2-1.5v4.5l4.5-.5-1 4.4 4.5.6-2 4 4.1 1.6-3 3.4 3.8 2.6-3.7 2.6 3 3.4-4.2 1.7 2 4" fill="#efb729"/><path d="M93.6 99a9.7 9.7 0 0 1 1.5.8 4.4 4.4 0 0 1 1 .8 2.8 2.8 0 0 1 .6 1 3.3 3.3 0 0 1 .2 1 3.2 3.2 0 0 1-.3 1.5 3.2 3.2 0 0 1-1 1 4.1 4.1 0 0 1-1.3.8 5.9 5.9 0 0 1-1.7.2 6.8 6.8 0 0 1-2-.3 6.4 6.4 0 0 1-1.5-.6v-2.6h1.2l.3 2.1a3.5 3.5 0 0 0 1 .4 4 4 0 0 0 1 .1 3.3 3.3 0 0 0 2-.6 2 2 0 0 0 .7-1.6 1.8 1.8 0 0 0 0-.7 1.7 1.7 0 0 0-.5-.6 3 3 0 0 0-.7-.5 9.8 9.8 0 0 0-1-.4l-.7-.3a8.2 8.2 0 0 1-1.3-.6 4.6 4.6 0 0 1-1-.8 3.3 3.3 0 0 1-.6-1 3.4 3.4 0 0 1 .1-2.6 3.2 3.2 0 0 1 .8-1 3.7 3.7 0 0 1 1.3-.7 5.4 5.4 0 0 1 1.6-.3 5 5 0 0 1 1.7.3 4.9 4.9 0 0 1 1.3.7v2.4H95l-.4-2.1a3.2 3.2 0 0 0-1.4-.3 2.8 2.8 0 0 0-1.8.5 1.8 1.8 0 0 0-.7 1.5 1.8 1.8 0 0 0 .5 1.4 4.5 4.5 0 0 0 1.6.9zM102.5 97a4 4 0 0 1 1.5.3 3.8 3.8 0 0 1 1.4.9 4.5 4.5 0 0 1 .9 1.4 5.6 5.6 0 0 1 0 4 4.2 4.2 0 0 1-1 1.4 4 4 0 0 1-1.3.8 4.2 4.2 0 0 1-1.5.3 4.3 4.3 0 0 1-1.5-.3 3.8 3.8 0 0 1-1.3-.8 4.2 4.2 0 0 1-1-1.4 5 5 0 0 1-.3-2 5.2 5.2 0 0 1 .3-2 4.3 4.3 0 0 1 1-1.4 4 4 0 0 1 1.3-.9 4 4 0 0 1 1.5-.3zm0 .8a2 2 0 0 0-1.8 1 5.1 5.1 0 0 0-.6 2.8 5 5 0 0 0 .6 2.8 2.2 2.2 0 0 0 3.6 0 5 5 0 0 0 .7-2.8 5.1 5.1 0 0 0-.7-2.8 2 2 0 0 0-1.8-1zM119 105a2.3 2.3 0 0 1-.9.8 2.7 2.7 0 0 1-1.1.2 2.3 2.3 0 0 1-1.6-.5 2 2 0 0 1-.5-1.5v-.7-5H111v6.6l1.6.3v.7h-4.6v-.7l1.4-.2v-1.5V98.3h-1.4v-.8l1.5-.2q0-.7.2-1.3a8 8 0 0 1 .2-1 4 4 0 0 1 .4-.9 3.7 3.7 0 0 1 .5-.6 3 3 0 0 1 1.2-.9 3.8 3.8 0 0 1 1.3-.2 2.7 2.7 0 0 1 1.1.2 1 1 0 0 1 .6.7.9.9 0 0 1-.3.6 1.2 1.2 0 0 1-.8.3 1.5 1.5 0 0 1-.6-.2 3.4 3.4 0 0 1-.7-.4l-.4-.4a2.3 2.3 0 0 0-.6.8 4.2 4.2 0 0 0-.5 1.2 8.9 8.9 0 0 0-.1 2.1h3.9l.4-2.4h1.1v2.4h2.3v1h-2.4v5.5a1.5 1.5 0 0 0 .3 1 1 1 0 0 0 .7.3 1.2 1.2 0 0 0 .6-.1 5.6 5.6 0 0 0 .6-.4zM132.9 98l-1 .3-2.7 7.7h-.6l-2.5-6.2-2.3 6.2h-.6l-3-7.8-1-.1v-.8h4.2v.8l-1.5.2 2 5.5 2-5.5-1.4-.2v-.8h4v.8l-1.4.2 2 5.5 1.8-5.5-1.4-.2v-.8h3.4zM141.8 105a1.8 1.8 0 0 1-.6.8 1.7 1.7 0 0 1-.8.2 1.8 1.8 0 0 1-1.2-.3 1.7 1.7 0 0 1-.6-1l-.6.6a4 4 0 0 1-.6.5 2.6 2.6 0 0 1-.7.2 2.7 2.7 0 0 1-.7.1 3 3 0 0 1-1-.1 2.2 2.2 0 0 1-.7-.5 2 2 0 0 1-.5-.7 2.4 2.4 0 0 1-.2-1 2.2 2.2 0 0 1 .1-.7 1.9 1.9 0 0 1 .5-.7 4 4 0 0 1 .9-.6 9.4 9.4 0 0 1 1.5-.7l1-.3 1-.3v-.5a4.8 4.8 0 0 0-.1-1 1.6 1.6 0 0 0-.3-.7 1 1 0 0 0-.5-.4 2.6 2.6 0 0 0-.8 0h-.4a4.4 4.4 0 0 0-.5 0l-.4 1.3q-.2.9-1 .9a.8.8 0 0 1-.5-.3.9.9 0 0 1-.3-.5 2.7 2.7 0 0 1 1.2-1.7 4.1 4.1 0 0 1 2.3-.6 2.8 2.8 0 0 1 2.1.7 3.5 3.5 0 0 1 .7 2.5v3.8q0 1.1.6 1.1a.7.7 0 0 0 .4-.1 2.2 2.2 0 0 0 .3-.2v-.1zm-3.2-3.8l-1 .3-.6.2a4.7 4.7 0 0 0-1 .5 2.4 2.4 0 0 0-.5.5 1.2 1.2 0 0 0-.3.4 2 2 0 0 0 0 .5 1.4 1.4 0 0 0 0 .5 1.5 1.5 0 0 0 .3.4 1.5 1.5 0 0 0 1.1.4 1.8 1.8 0 0 0 .4 0 1.6 1.6 0 0 0 .5-.2 5.2 5.2 0 0 0 .4-.3l.7-.4zM145.5 99.3a4.6 4.6 0 0 1 1.1-1.7 2.2 2.2 0 0 1 1.4-.6 1.5 1.5 0 0 1 .8.2 1 1 0 0 1 .5.7.9.9 0 0 1-.3.7 1.2 1.2 0 0 1-.8.3 1.5 1.5 0 0 1-1-.5l-.2-.1a4 4 0 0 0-.9 1 5.3 5.3 0 0 0-.6 1.3v4.3l1.5.3v.7h-4.4v-.7l1.3-.2v-1.5-2.4-1.2-1l-1.4-.2v-.6l2.5-1h.3zM151.7 101.5a4 4 0 0 0 .9 2.6 3 3 0 0 0 3.5.5 4.5 4.5 0 0 0 1-1l.5.4a3.7 3.7 0 0 1-1.4 1.6 3.8 3.8 0 0 1-2 .5 4.3 4.3 0 0 1-1.7-.3 3.4 3.4 0 0 1-1.3-.9 4.1 4.1 0 0 1-.8-1.4 5.6 5.6 0 0 1-.3-1.8 5.3 5.3 0 0 1 .3-2 4.5 4.5 0 0 1 1-1.4 4 4 0 0 1 1.3-1 3.9 3.9 0 0 1 1.6-.3 3.7 3.7 0 0 1 1.3.2 3 3 0 0 1 1 .7 3.2 3.2 0 0 1 .8 1.1 3.9 3.9 0 0 1 .2 1.5 4 4 0 0 1 0 .5 3.7 3.7 0 0 1-.1.5zm3.3-.8a1 1 0 0 0 1-.2 1 1 0 0 0 .1-.7 1.8 1.8 0 0 0-.1-.7 2 2 0 0 0-.4-.7 2 2 0 0 0-.7-.4 1.8 1.8 0 0 0-.7-.2 2.2 2.2 0 0 0-.8.2 2 2 0 0 0-.7.5 3.1 3.1 0 0 0-.6.9 4.2 4.2 0 0 0-.3 1.3zM172.9 102.6l-.1 3.3h-9.4v-.8l1.7-.2v-7.8-2.4l-1.7-.2v-.7h9l.1 3.2h-1l-.4-2.3h-4.2v4.6h2.6l.3-1.7h.8v4.2h-.8l-.3-1.7h-2.7v4.8h4.7l.4-2.3zM183.9 105.2v.7h-4.2v-.7l1.4-.2v-1.5-3a3.1 3.1 0 0 0-.3-1.7 1.3 1.3 0 0 0-1.2-.5 2.9 2.9 0 0 0-1.2.3 5.5 5.5 0 0 0-1.3.8v5.5l1.3.3v.7h-4.1v-.7l1.3-.3v-1.4-2.4-1.2-1l-1.5-.2v-.6l2.5-1h.3l.2 1.6a5.5 5.5 0 0 1 1.5-1.2 3.7 3.7 0 0 1 1.7-.5 2 2 0 0 1 1.7.8 4.4 4.4 0 0 1 .6 2.5v4.6zM193.4 98.4h-1.8a3.1 3.1 0 0 1 .4 1.6 3 3 0 0 1-.2 1.2 2.7 2.7 0 0 1-.7 1 3 3 0 0 1-1 .5 4 4 0 0 1-1.3.2 5 5 0 0 1-.7 0 4.3 4.3 0 0 1-.7-.2 2.3 2.3 0 0 0-.2.5 1.2 1.2 0 0 0 0 .4.8.8 0 0 0 .2.7 1.9 1.9 0 0 0 1.1.2h1.9a3.7 3.7 0 0 1 2.2.5 1.7 1.7 0 0 1 .7 1.5 2.5 2.5 0 0 1-.3 1.2 2.9 2.9 0 0 1-.8 1 4.5 4.5 0 0 1-1.4.7 6.7 6.7 0 0 1-2 .2 7.4 7.4 0 0 1-1.7-.1 4 4 0 0 1-1.1-.5 2 2 0 0 1-.7-.6 1.5 1.5 0 0 1-.2-.8q0-1.2 1.6-2a1.6 1.6 0 0 1-.7-.6 1.5 1.5 0 0 1-.2-.8 1.5 1.5 0 0 1 .3-.9 3.6 3.6 0 0 1 .8-.8 2.8 2.8 0 0 1-1-1 3.3 3.3 0 0 1-.1-2.8 2.7 2.7 0 0 1 .7-1 3 3 0 0 1 1-.5 4 4 0 0 1 1.3-.2 3.5 3.5 0 0 1 2.3.8l2-.7.3.1zm-5.3 7.5a4.6 4.6 0 0 1-.9-.1 4 4 0 0 0-.5.7 1.6 1.6 0 0 0-.2.8 1.3 1.3 0 0 0 .7 1.1 3.4 3.4 0 0 0 1.7.4 4 4 0 0 0 2.2-.5 1.5 1.5 0 0 0 .8-1.3 1.2 1.2 0 0 0 0-.4.9.9 0 0 0-.4-.4 1.6 1.6 0 0 0-.5-.2 3.1 3.1 0 0 0-.9-.1zm.6-3.7a1.6 1.6 0 0 0 1.4-.6 2.6 2.6 0 0 0 .4-1.7 2.6 2.6 0 0 0-.4-1.5 1.5 1.5 0 0 0-1.3-.6 1.6 1.6 0 0 0-1.3.6 2.6 2.6 0 0 0-.5 1.6 2.6 2.6 0 0 0 .4 1.6 1.5 1.5 0 0 0 1.3.6zM198.6 105.2v.7h-4.2v-.7l1.3-.2v-1.5-2.4-1.2-1l-1.4-.2v-.6l2.8-1h.2v7.9zm-2-10.1a1.2 1.2 0 0 1-1-.3 1.1 1.1 0 0 1-.3-.9 1 1 0 0 1 .4-.8 1.3 1.3 0 0 1 1.7 0 1 1 0 0 1 .3.8 1.1 1.1 0 0 1-.3.9 1.2 1.2 0 0 1-.9.3zM209.5 105.2v.7h-4.2v-.7l1.4-.2v-1.5-3a3.1 3.1 0 0 0-.3-1.7 1.3 1.3 0 0 0-1.2-.5 2.9 2.9 0 0 0-1.2.3 5.5 5.5 0 0 0-1.3.8v5.5l1.3.3v.7H200v-.7l1.3-.3v-1.4-2.4-1.2-1l-1.4-.2v-.6l2.5-1h.2l.2 1.6a5.5 5.5 0 0 1 1.5-1.2 3.7 3.7 0 0 1 1.7-.5 2 2 0 0 1 1.8.8 4.4 4.4 0 0 1 .5 2.5v4.6zM212.5 101.5a4 4 0 0 0 .8 2.6 3 3 0 0 0 3.6.5 4.5 4.5 0 0 0 1-1l.5.4a3.7 3.7 0 0 1-1.4 1.6 3.8 3.8 0 0 1-2 .5 4.3 4.3 0 0 1-1.7-.3 3.4 3.4 0 0 1-1.3-.9 4.1 4.1 0 0 1-.8-1.4 5.6 5.6 0 0 1-.3-1.8 5.3 5.3 0 0 1 .3-2 4.5 4.5 0 0 1 1-1.4 4 4 0 0 1 1.2-1 3.9 3.9 0 0 1 1.6-.3 3.7 3.7 0 0 1 1.4.2 3 3 0 0 1 1 .7 3.2 3.2 0 0 1 .7 1.1 3.9 3.9 0 0 1 .3 1.5 4 4 0 0 1 0 .5 3.7 3.7 0 0 1-.1.5zm3.3-.8a1 1 0 0 0 .9-.2 1 1 0 0 0 .2-.7 1.8 1.8 0 0 0-.1-.7 2 2 0 0 0-.5-.7 2 2 0 0 0-.6-.4 1.8 1.8 0 0 0-.7-.2 2.2 2.2 0 0 0-.8.2 2 2 0 0 0-.8.5 3.1 3.1 0 0 0-.5.9 4.2 4.2 0 0 0-.3 1.3zM221.7 101.5a4 4 0 0 0 .8 2.6 3 3 0 0 0 3.6.5 4.5 4.5 0 0 0 1-1l.5.4a3.7 3.7 0 0 1-1.4 1.6 3.8 3.8 0 0 1-2.1.5 4.3 4.3 0 0 1-1.7-.3 3.4 3.4 0 0 1-1.2-.9 4.1 4.1 0 0 1-.8-1.4 5.6 5.6 0 0 1-.3-1.8 5.3 5.3 0 0 1 .3-2 4.5 4.5 0 0 1 .9-1.4 4 4 0 0 1 1.3-1 3.9 3.9 0 0 1 1.6-.3 3.7 3.7 0 0 1 1.3.2 3 3 0 0 1 1.1.7 3.2 3.2 0 0 1 .7 1.1 3.9 3.9 0 0 1 .3 1.5 4 4 0 0 1 0 .5 3.7 3.7 0 0 1-.1.5zm3.3-.8a1 1 0 0 0 .9-.2 1 1 0 0 0 .2-.7 1.8 1.8 0 0 0-.2-.7 2 2 0 0 0-.4-.7 2 2 0 0 0-.6-.4 1.8 1.8 0 0 0-.8-.2 2.2 2.2 0 0 0-.7.2 2 2 0 0 0-.8.5 3.1 3.1 0 0 0-.5.9 4.2 4.2 0 0 0-.4 1.3zM232 99.3a4.6 4.6 0 0 1 1.2-1.7 2.2 2.2 0 0 1 1.4-.6 1.5 1.5 0 0 1 .8.2 1 1 0 0 1 .4.7.9.9 0 0 1-.3.7 1.2 1.2 0 0 1-.7.3 1.5 1.5 0 0 1-1-.5l-.2-.1a4 4 0 0 0-1 1 5.3 5.3 0 0 0-.6 1.3v4.3l1.5.3v.7h-4.3v-.7l1.3-.2v-1.5-2.4-1.2-1l-1.5-.2v-.6l2.5-1h.3zM240.8 105.2v.7h-4.1v-.7l1.3-.2v-1.5-2.4-1.2-1l-1.4-.2v-.6l2.7-1h.3v7.9zm-2-10.1a1.2 1.2 0 0 1-.9-.3 1.1 1.1 0 0 1-.3-.9 1 1 0 0 1 .3-.8 1.3 1.3 0 0 1 1.7 0 1 1 0 0 1 .4.8 1.1 1.1 0 0 1-.4.9 1.2 1.2 0 0 1-.8.3zM251.8 105.2v.7h-4.2v-.7l1.3-.2v-1.5-3a3.1 3.1 0 0 0-.3-1.7 1.3 1.3 0 0 0-1.1-.5 2.9 2.9 0 0 0-1.2.3 5.5 5.5 0 0 0-1.3.8v5.5l1.3.3v.7h-4.2v-.7l1.4-.3v-1.4-2.4-1.2-1l-1.5-.2v-.6l2.5-1h.3l.1 1.6a5.5 5.5 0 0 1 1.6-1.2 3.7 3.7 0 0 1 1.7-.5 2 2 0 0 1 1.7.8 4.4 4.4 0 0 1 .6 2.5v4.6zM261.2 98.4h-1.7a3.1 3.1 0 0 1 .4 1.6 3 3 0 0 1-.3 1.2 2.7 2.7 0 0 1-.6 1 3 3 0 0 1-1 .5 4 4 0 0 1-1.4.2 5 5 0 0 1-.6 0 4.3 4.3 0 0 1-.7-.2 2.3 2.3 0 0 0-.2.5 1.2 1.2 0 0 0-.1.4.8.8 0 0 0 .3.7 1.9 1.9 0 0 0 1 .2h2a3.7 3.7 0 0 1 2.1.5 1.7 1.7 0 0 1 .8 1.5 2.5 2.5 0 0 1-.3 1.2 2.9 2.9 0 0 1-.9 1 4.5 4.5 0 0 1-1.4.7 6.7 6.7 0 0 1-2 .2 7.4 7.4 0 0 1-1.6-.1 4 4 0 0 1-1.2-.5 2 2 0 0 1-.6-.6 1.5 1.5 0 0 1-.3-.8q0-1.2 1.7-2a1.6 1.6 0 0 1-.7-.6 1.5 1.5 0 0 1-.3-.8 1.5 1.5 0 0 1 .3-.9 3.6 3.6 0 0 1 .9-.8 2.8 2.8 0 0 1-1-1 3.3 3.3 0 0 1-.2-2.8 2.7 2.7 0 0 1 .7-1 3 3 0 0 1 1-.5 4 4 0 0 1 1.4-.2 3.5 3.5 0 0 1 2.3.8l2-.7.2.1zm-5.2 7.5a4.6 4.6 0 0 1-1-.1 4 4 0 0 0-.4.7 1.6 1.6 0 0 0-.2.8 1.3 1.3 0 0 0 .7 1.1 3.4 3.4 0 0 0 1.7.4 4 4 0 0 0 2.2-.5 1.5 1.5 0 0 0 .8-1.3 1.2 1.2 0 0 0 0-.4.9.9 0 0 0-.4-.4 1.6 1.6 0 0 0-.5-.2 3.1 3.1 0 0 0-.9-.1zm.6-3.7a1.6 1.6 0 0 0 1.3-.6 2.6 2.6 0 0 0 .5-1.7 2.6 2.6 0 0 0-.4-1.5 1.5 1.5 0 0 0-1.3-.6 1.6 1.6 0 0 0-1.4.6 2.6 2.6 0 0 0-.4 1.6 2.6 2.6 0 0 0 .4 1.6 1.5 1.5 0 0 0 1.3.6zM172.8 86.4v.5H170v-.5l.9-.1v-1-1.6-.8-.7h-1v-.5l1.9-.7h.2v5.3zm-1.4-6.7a.8.8 0 0 1-.6-.2.7.7 0 0 1-.2-.6.7.7 0 0 1 .2-.6.9.9 0 0 1 1.2 0 .7.7 0 0 1 .2.6.7.7 0 0 1-.2.6.8.8 0 0 1-.6.2zM180 86.4v.5h-2.7v-.5l.9-.1v-1-2a2 2 0 0 0-.2-1.2.9.9 0 0 0-.8-.3 2 2 0 0 0-.8.2 3.7 3.7 0 0 0-.8.6v3.7l.8.1v.5h-2.8v-.5l1-.1v-1-1.6-.8-.7h-1v-.5l1.6-.7h.2l.1 1a3.6 3.6 0 0 1 1-.7 2.4 2.4 0 0 1 1.2-.3 1.3 1.3 0 0 1 1.1.5 3 3 0 0 1 .4 1.7v3.1zM94.2 67.8a3 3 0 0 1-.4.2c-.2 0-.3 0-.3-.3a.2.2 0 0 1 .1-.2 27.9 27.9 0 0 0 3.4-2.2 4.3 4.3 0 0 0 1.8-3.7 5.7 5.7 0 0 0-1-3 3.2 3.2 0 0 0-2.9-1.4 3.8 3.8 0 0 0-2.4.9 2.7 2.7 0 0 0-1.2 2 3.3 3.3 0 0 0 .7 2.1 3.2 3.2 0 0 0 2.2 1.2 3.1 3.1 0 0 0 2-.5 1.7 1.7 0 0 0 .2-.3.4.4 0 0 1 .3-.1.2.2 0 0 1 .2.1.2.2 0 0 1 0 .2 3.4 3.4 0 0 1-.8.6 3 3 0 0 1-1.6.4q-2.4 0-3.4-1.1a4.4 4.4 0 0 1-.7-3.2 4.8 4.8 0 0 1 1.7-3.3 5.1 5.1 0 0 1 3.7-1.3 5.6 5.6 0 0 1 2.8.8 4.7 4.7 0 0 1 1.7 1.7.1.1 0 0 0 .1.1.1.1 0 0 0 .2-.1 3.2 3.2 0 0 1 3.2-2.4 3.2 3.2 0 0 1 2.2.8 4.7 4.7 0 0 1 1.3 2.5q.3 1.2.9 1.2c.2 0 .2 0 .3.2 0 0 0 .2-.2.2l-2.4 1.2a.2.2 0 0 0 0 .3 4.2 4.2 0 0 1 2.3 1.4 4 4 0 0 1 1 2.7q-.1 2.5-3.3 4.4a8.8 8.8 0 0 1-3.5 1.2 7 7 0 0 1-3-.4 6.5 6.5 0 0 1-2.9-2q-1.2-1.3-2.3-1zm7.1-5l4.2-2a.2.2 0 0 0 0-.2.2.2 0 0 0 0-.2 2.9 2.9 0 0 1-1-1.8 5.9 5.9 0 0 0-.8-1.7 1.3 1.3 0 0 0-1.3-.6 1.6 1.6 0 0 0-1.3 1.2 7 7 0 0 0-.1 2.2 4.5 4.5 0 0 1-1.1 3.6A16.8 16.8 0 0 1 97 66a3 3 0 0 1 2 1 17.1 17.1 0 0 0 1.5 1.3 8.7 8.7 0 0 0 1.7 1 4 4 0 0 0 2.2.5 2.8 2.8 0 0 0 2-1.2 2.9 2.9 0 0 0 .5-1.7 3.3 3.3 0 0 0-.7-2 3.9 3.9 0 0 0-2-1.5 7.7 7.7 0 0 0-2.8-.2c-.2 0-.2 0-.3-.2s0-.2.2-.3zM115.4 69.3l-1.2 1-1.2.9a.4.4 0 0 1-.3.1v-.2q0-.2-.7-.9a5.4 5.4 0 0 1-1.7-4.2 4.8 4.8 0 0 1 2-3.8 12.8 12.8 0 0 0 1.2-1 5.5 5.5 0 0 0 1-1.3c.1-.2.3-.2.5 0a6.2 6.2 0 0 0 3.2 2.1q.5.1.1.5a1.2 1.2 0 0 0-.5.9v4.9a.7.7 0 0 0 .4.7q.3.1.7-.3c.2-.1.3-.2.4-.1v.3l-.8 1.2a7.1 7.1 0 0 0-.6 1.1q-.2.3-.4 0a.6.6 0 0 0-.2-.1 2 2 0 0 1-1.6-1.7.3.3 0 0 0 0-.1.3.3 0 0 0-.3 0zm.2-6.3a4 4 0 0 1-1.6-1q-.4-.5-.7-.1a5.4 5.4 0 0 0-.9 3.7q.4 3 2 3.6h.1q.4.2 1-.5a.2.2 0 0 0 .1 0V63zM123.7 70.7a.5.5 0 0 0-.3-.4 3 3 0 0 1-.4-.3 4.7 4.7 0 0 1-1.7-2 7.4 7.4 0 0 1-.6-2.6 5.6 5.6 0 0 1 1.6-4.6 5.4 5.4 0 0 1 1.5-1 11.5 11.5 0 0 1 1.7-.5l.4.2q1.3 2 2 1.5.6-.4.6-.7a6.8 6.8 0 0 0-.3-2.3 5.7 5.7 0 0 0-.8-1.6q-.2-.2 0-.3t.3.1a5.5 5.5 0 0 1 .8 1.3.2.2 0 0 0 .1 0 .2.2 0 0 0 .2 0 4 4 0 0 1 2-1.7 5.4 5.4 0 0 1 2.7-.5h.1c.1 0 .2 0 .2.2s-.1.2-.3.2a3 3 0 0 0-2 .5 2.6 2.6 0 0 0-.8 2.3v2.4a.2.2 0 0 0 .1.1.2.2 0 0 0 .2 0 6.2 6.2 0 0 0 1.2-.6 10 10 0 0 0 1-1q.5-.3.5.2a1.2 1.2 0 0 0 .4.7l.5.6a6.6 6.6 0 0 1 1.5 4 7.6 7.6 0 0 1-2.2 5.6 26.8 26.8 0 0 1-4.2 3.7q-.3.2-.4 0t0-.2a41 41 0 0 0 3.1-3q1.6-1.5 1.4-5a11 11 0 0 0-.4-2.5 4 4 0 0 0-1.3-2 1.2 1.2 0 0 0-1.3 0 .1.1 0 0 0 0 .1v6.5q0 .9.7.7a1.5 1.5 0 0 0 .5-.3h.3v.2l-1 1a11.3 11.3 0 0 0-1 1.2q0 .2-.3 0a6.6 6.6 0 0 0-2-1.6c-.2 0-.3-.1-.3-.2a.2.2 0 0 1 .2-.1q.6-.3.6-1.4v-6q0-.4-.3-.2a7.4 7.4 0 0 0-1.4 1.8q-.1.2-.4 0a10.7 10.7 0 0 1-2.4-2.7q0-.3-.4-.1a2.6 2.6 0 0 0-.9 2 8.8 8.8 0 0 0 .1 2.9q.5 2.5 1.8 3.2a2.8 2.8 0 0 0 2.5.2h.2a.1.1 0 0 1 0 .2q-1 .4-1.7 1a12.1 12.1 0 0 0-1.4.9.3.3 0 0 1-.3 0l-.2-.1zM140 71.2a.5.5 0 0 0-.4-.4 3 3 0 0 1-.4-.3 4.7 4.7 0 0 1-1.7-2 7.4 7.4 0 0 1-.6-2.6 5.6 5.6 0 0 1 1.7-4.7 5.3 5.3 0 0 1 1.4-.9 11.4 11.4 0 0 1 1.7-.6q.3 0 .4.3l1.6 3.6-.1.4-4.4 1.7a.2.2 0 0 0-.2.2q.6 2.4 1.8 3a2.8 2.8 0 0 0 2.5.3q.2-.1.2 0a.1.1 0 0 1 0 .2q-1 .4-1.7.9a11.2 11.2 0 0 0-1.4 1 .4.4 0 0 1-.3 0l-.2-.1zm-1-6.1a.2.2 0 0 0 0 .1.1.1 0 0 0 .2 0l2.2-.8a.2.2 0 0 0 .1-.3l-1.3-3.2q0-.2-.4 0a2.3 2.3 0 0 0-.8 1.6 8.8 8.8 0 0 0 0 2.6zM144.8 56.7a.2.2 0 0 1 0-.3l.3.1.5.6a4.5 4.5 0 0 1 .5.8.2.2 0 0 0 .1 0 .2.2 0 0 0 .2 0A4.8 4.8 0 0 1 148 56a4.4 4.4 0 0 1 2.5-.6l.2.2c0 .1 0 .2-.2.2a2.4 2.4 0 0 0-1.7.6 3 3 0 0 0-.7 2.3V68q0 .3.2.4l.8.5q.2 0 .7-.6a.2.2 0 0 1 .3 0q.2 0 0 .3a11.2 11.2 0 0 0-1.8 2.4q0 .3-.3 0a5.1 5.1 0 0 0-1.1-1 4.1 4.1 0 0 0-1.6-.6q-.2 0-.2-.2a.2.2 0 0 1 .2-.2 1.2 1.2 0 0 0 .4-.3 1.4 1.4 0 0 0 .3-1v-7.1a7.2 7.2 0 0 0-.4-2.5 4.1 4.1 0 0 0-1-1.5"/><path d="M154.4 71q-.2.3-.4 0a7.1 7.1 0 0 0-3.6-2.2l-.2-.1a.2.2 0 0 1 .1-.2q.7-.2.7-1.4v-5.5a.7.7 0 0 0 0-.2.1.1 0 0 1 0-.1.2.2 0 0 1 .1-.1 11.7 11.7 0 0 0 5.1-1.6.2.2 0 0 1 .2 0v.2a4.6 4.6 0 0 0 1.2 2.2 5.3 5.3 0 0 1 1 1.8 4.8 4.8 0 0 1 .2 1.9 3.6 3.6 0 0 1-.6 1.5 8 8 0 0 1-1 1.3 7.7 7.7 0 0 1-1.5 1.1 3.2 3.2 0 0 0-1.3 1.4zm-1.2-9.6v6.2a.2.2 0 0 0 .2.3l1.9 1.1a.4.4 0 0 0 .5 0 3.4 3.4 0 0 0 1-2.7 4.3 4.3 0 0 0-.4-1.7 5.4 5.4 0 0 0-.9-1.3 5.6 5.6 0 0 1-1.3-2.1.2.2 0 0 0 0-.1.1.1 0 0 0-.2 0l-.7.2a.2.2 0 0 0 0 .1zM163.5 62.8V68q0 .3.2.4l.8.5q.2.1.7-.5a.2.2 0 0 1 .3 0c.1 0 .1 0 0 .2a11.2 11.2 0 0 0-1.7 2.5q-.2.2-.4 0a6.4 6.4 0 0 0-1.2-1.1 4.5 4.5 0 0 0-1.5-.6l-.2-.2a.2.2 0 0 1 .2-.2q.7 0 .7-1.2v-4.5q0-1.1-.4-1.4-.5-.3-.8.2-.1.3-.3.2t0-.4l.6-1 .6-1a.3.3 0 0 1 .5-.2 3.2 3.2 0 0 1 1.9 2 .2.2 0 0 0 .1 0 .2.2 0 0 0 .2 0l1.6-1.9a.2.2 0 0 1 .2 0 .2.2 0 0 1 .1 0L167 62a.2.2 0 0 1 0 .2l-1.3 1.5a.2.2 0 0 1-.2.1.1.1 0 0 1-.1 0l-.9-1.7a.2.2 0 0 0-.1 0 .2.2 0 0 0-.2 0l-.5.6zM178 71q-.2.3-.5 0a7.1 7.1 0 0 0-3.6-2.2l-.2-.1a.2.2 0 0 1 .2-.2q.7-.2.7-1.4v-5.5a.7.7 0 0 0 0-.2.1.1 0 0 1 0-.1.2.2 0 0 1 0-.1 11.7 11.7 0 0 0 5.1-1.6.2.2 0 0 1 .2 0l.1.2a4.6 4.6 0 0 0 1.2 2.2 5.3 5.3 0 0 1 .8 1.8 4.8 4.8 0 0 1 .3 1.9 3.6 3.6 0 0 1-.6 1.5 8 8 0 0 1-1 1.3 7.7 7.7 0 0 1-1.5 1.1 3.2 3.2 0 0 0-1.3 1.4zm-1.2-9.6v6.2a.2.2 0 0 0 .1.3l2 1.1a.4.4 0 0 0 .4 0 3.4 3.4 0 0 0 1-2.7 4.3 4.3 0 0 0-.4-1.7 5.4 5.4 0 0 0-.9-1.3 5.6 5.6 0 0 1-1.3-2.1.2.2 0 0 0 0-.1.1.1 0 0 0-.2 0l-.6.2a.2.2 0 0 0-.1.1zM186.4 60h1.8a.2.2 0 0 1 .2.2v.6a.2.2 0 0 1-.2.2H187a.2.2 0 0 0-.1 0 .1.1 0 0 0 0 .2 9 9 0 0 1 0 1.7l-1.2 11.3c0 .2 0 .3-.2.3s-.2 0-.2-.4l-.5-6.5-.6-6.6h-1.3a.1.1 0 0 1-.1-.1v-.2a1.8 1.8 0 0 0 1.2-.7 2.2 2.2 0 0 0 .4-1.6 5.5 5.5 0 0 1 .4-2.6q.5-1 2-.5l1.4.4q.6.2.9-.2l.2-.2q.1 0 0 .4a3 3 0 0 1-1 1.7q-.6.4-2-.2-1.2-.6-1.4.6t.5 1.5a3.4 3.4 0 0 1 .8.6.3.3 0 0 0 .3 0zM209.5 56.4q.3-.3.5-.1t0 .4l-1.4 1.3a5.4 5.4 0 0 1-1 .8 2.2 2.2 0 0 1-1.6.3 11.8 11.8 0 0 1-2.3-1 7 7 0 0 0-2.8-.8 3.1 3.1 0 0 0-2.3 1 5 5 0 0 0-1.4 2 6.5 6.5 0 0 0-.3 2.1 5.5 5.5 0 0 0 2.3 4.4 8.3 8.3 0 0 0 5.5 1.6 7.8 7.8 0 0 0 4-1 2.7 2.7 0 0 0 1.4-3 1.7 1.7 0 0 0-1.7-1.6 5.1 5.1 0 0 0-3 1q-2.2 1.3-3.2 1.2t-2.8-2.6c-.2-.2-.2-.3 0-.4s.2 0 .4.1a1.3 1.3 0 0 0 1.6.6 15.2 15.2 0 0 0 2.3-1l1.5-1a2.6 2.6 0 0 1 1.9 0 5.2 5.2 0 0 1 2 1.1 4.1 4.1 0 0 1 1.4 2.3 4 4 0 0 1 0 2.1 7 7 0 0 1-.8 1.7 6.8 6.8 0 0 1-2.6 2.3 7.8 7.8 0 0 1-3.7.9 8.8 8.8 0 0 1-5.6-2 6.7 6.7 0 0 1-2.5-5.7q0-5.2 7.6-8.2a.9.9 0 0 1 .8 0q3.3 1.7 4.4 1.7a1.8 1.8 0 0 0 1.4-.5zM215 71.2a.5.5 0 0 0-.3-.4 3 3 0 0 1-.4-.3 4.7 4.7 0 0 1-1.7-2 7.4 7.4 0 0 1-.6-2.6 5.6 5.6 0 0 1 1.6-4.7 5.4 5.4 0 0 1 1.5-.9 11.5 11.5 0 0 1 1.7-.6c.2 0 .3 0 .4.3l1.3 2.5q.1.3-.1.4a3.5 3.5 0 0 0-1.5.5q-.3.2-.5-.1l-1-2.4q-.2-.2-.5 0a2.6 2.6 0 0 0-.9 2 8.8 8.8 0 0 0 .1 2.9q.5 2.5 1.8 3.1a2.8 2.8 0 0 0 2.5.3h.2v.2q-1 .4-1.7.9a11.2 11.2 0 0 0-1.4 1 .4.4 0 0 1-.3 0l-.2-.1zM221 68.3l-.2-5.9a.7.7 0 0 0 0-.3q-.3-.4-.5-.2l-.4.4q-.2.2-.3 0t0-.3a13.6 13.6 0 0 0 .9-1.2l.8-1.2c0-.1.2-.1.4 0a11.4 11.4 0 0 0 .8 1 6.5 6.5 0 0 0 1.3.9c.1 0 .2 0 .2.2a.2.2 0 0 1-.2 0 1.2 1.2 0 0 0-.5.5 1.4 1.4 0 0 0-.2.8v4.6q0 1 .4 1.3a.5.5 0 0 0 .8-.2c0-.1.1-.2.2-.1.2 0 .2.2 0 .4l-.6 1-.5 1a.3.3 0 0 1-.5.1 3.8 3.8 0 0 1-1.5-1.1 2.8 2.8 0 0 1-.5-1.7zm1.5-12.7q1.2 0 1 1.1a2 2 0 0 1-.7 1.2 1.8 1.8 0 0 1-1 .6q-.4 0-.6-.6a2.8 2.8 0 0 1-.2-1.2 1 1 0 0 1 .5-.8 1.6 1.6 0 0 1 1-.3zM228.8 71.2a.5.5 0 0 0-.3-.4 3 3 0 0 1-.4-.3 4.7 4.7 0 0 1-1.7-2 7.4 7.4 0 0 1-.6-2.6 5.6 5.6 0 0 1 1.6-4.7 5.3 5.3 0 0 1 1.5-.9 11.4 11.4 0 0 1 1.7-.6q.3 0 .4.3l1.5 3.6q.2.3 0 .4l-4.5 1.7a.2.2 0 0 0 0 .2q.5 2.4 1.7 3a2.8 2.8 0 0 0 2.5.3q.2-.1.2 0a.1.1 0 0 1 0 .2q-1 .4-1.7.9a11.2 11.2 0 0 0-1.4 1 .4.4 0 0 1-.3 0l-.2-.1zm-1-6.1a.2.2 0 0 0 0 .1.1.1 0 0 0 .2 0l2.3-.8a.2.2 0 0 0 .1-.3l-1.3-3.2q0-.2-.4 0a2.3 2.3 0 0 0-.8 1.6 8.8 8.8 0 0 0 0 2.6zM237.4 67q0 1.7.6 2a.2.2 0 0 1 .1.1.1.1 0 0 1 0 .2 5.4 5.4 0 0 0-1.6 1.9.2.2 0 0 1-.3 0 5 5 0 0 0-1.7-2 .2.2 0 0 1 0-.2q.7-.3.7-2v-3.6q0-1-.4-1.3-.5-.3-.8.2 0 .2-.2.1t0-.4l.6-1 .6-1a.3.3 0 0 1 .5-.1 3.3 3.3 0 0 1 1.9 2 .2.2 0 0 0 .2 0l1.2-1a3.5 3.5 0 0 0 .9-1q.1-.3.4 0l1 1a3.3 3.3 0 0 0 1.6.6c.2 0 .2.1.2.2a.2.2 0 0 1-.1.2 1.2 1.2 0 0 0-.5.3 1.4 1.4 0 0 0-.2 1v4.4q0 1.1.4 1.4.5.3.8-.2c0-.2.1-.2.2-.1v.3l-.6 1-.6 1a.3.3 0 0 1-.4.2 3 3 0 0 1-2-2.8v-5.5l-.1-.4-1-.8a.2.2 0 0 0-.2 0l-1.1.9a.2.2 0 0 0-.1.1zM247.9 71.2a.5.5 0 0 0-.3-.4 3 3 0 0 1-.4-.3 4.7 4.7 0 0 1-1.8-2 7.4 7.4 0 0 1-.6-2.6 5.6 5.6 0 0 1 1.7-4.7 5.4 5.4 0 0 1 1.5-.9 11.5 11.5 0 0 1 1.6-.6c.2 0 .3 0 .4.3l1.3 2.5q.2.3 0 .4a3.5 3.5 0 0 0-1.5.5q-.3.2-.5-.1l-1.1-2.4q-.1-.2-.4 0a2.6 2.6 0 0 0-1 2 8.8 8.8 0 0 0 .2 2.9q.5 2.5 1.7 3.1a2.8 2.8 0 0 0 2.5.3h.3l-.1.2-1.7.9a11.2 11.2 0 0 0-1.4 1 .4.4 0 0 1-.3 0l-.1-.1zM255.7 71.2a.5.5 0 0 0-.3-.4 3 3 0 0 1-.4-.3 4.7 4.7 0 0 1-1.8-2 7.4 7.4 0 0 1-.6-2.6 5.6 5.6 0 0 1 1.7-4.7 5.3 5.3 0 0 1 1.4-.9 11.4 11.4 0 0 1 1.7-.6q.3 0 .4.3l1.6 3.6q.1.3 0 .4h-.1l-4.4 1.7a.2.2 0 0 0-.1.2q.5 2.4 1.7 3a2.8 2.8 0 0 0 2.5.3h.3a.1.1 0 0 1-.1.2l-1.7.9a11.2 11.2 0 0 0-1.4 1 .4.4 0 0 1-.3 0l-.1-.1zm-1-6.1a.2.2 0 0 0 0 .1.1.1 0 0 0 .2 0l2.3-.8a.2.2 0 0 0 0-.3L256 61q-.1-.2-.4 0a2.3 2.3 0 0 0-.9 1.6 8.8 8.8 0 0 0 0 2.6zM39.2 42a4.7 4.7 0 0 1-1.6-1 3.6 3.6 0 0 1-.5-2v-.2a.2.2 0 0 0-.3 0l-1 1-1 1.1q-2.3 2.4-4.8-.3a4.5 4.5 0 0 0-1.7-1.2 1.6 1.6 0 0 0-1.7.4q-.2.2-.3 0t0-.3l3-2.5q1.5-1.5 1.1-2.5a6.2 6.2 0 0 0-1.4-2.1 7.7 7.7 0 0 1-1.5-2.2 2.9 2.9 0 0 1 .4-2.8 4.3 4.3 0 0 1 2-1.8 4.9 4.9 0 0 1 2-.5 2 2 0 0 1 2.1 1.3 1.8 1.8 0 0 1-.7 2.2q-.2.2-.4 0t0-.5q1-.7.5-1.5a1.7 1.7 0 0 0-1.4-1 1.8 1.8 0 0 0-1.3.5 1.7 1.7 0 0 0-.7 1.3 2.4 2.4 0 0 0 .5 1.9l1 .8q1.9 2 1.6 3.5t-3 3.4a.2.2 0 0 0-.1.1q0 .2.2.2a2 2 0 0 1 1.1.6l.8.8q1.5 1.5 2.7 1a6.4 6.4 0 0 0 2.3-1.8.2.2 0 0 0 0-.1v-8.5a1 1 0 0 0-.7-1.1q-.5-.3 0-.6l2.4-1.1 2.3-1.2a.3.3 0 0 1 .4 0q.1.2-.1.4a3.2 3.2 0 0 0-1.2 1.8 9.3 9.3 0 0 0-.3 2.6v8.2q0 1.9 1.8 1.3a.3.3 0 0 1 .4 0v.3l-2.3 2a.6.6 0 0 1-.6.1zM47.5 37.6q0 2 .7 2.2a.2.2 0 0 1 0 .2.2.2 0 0 1 0 .1 5.9 5.9 0 0 0-1.7 2.1.2.2 0 0 1-.4 0 5.5 5.5 0 0 0-1.8-2 .2.2 0 0 1 0-.2.2.2 0 0 1 0-.2q.8-.3.8-2.2v-3.9q0-1.2-.4-1.4-.6-.4-.9.2-.1.3-.3.1t0-.4l.7-1 .6-1.2a.3.3 0 0 1 .5-.1 3.6 3.6 0 0 1 2.1 2 .2.2 0 0 0 .1.2.2.2 0 0 0 .2 0L49 31a3.8 3.8 0 0 0 1-1.1q.1-.4.4 0l1.2 1.1a3.6 3.6 0 0 0 1.7.7q.2 0 .2.2a.2.2 0 0 1-.2.1 1.3 1.3 0 0 0-.5.4 1.5 1.5 0 0 0-.2 1v5q0 1.2.4 1.4.5.3.9-.2 0-.3.2-.1t0 .4l-.6 1-.6 1.2a.4.4 0 0 1-.6.1 3.3 3.3 0 0 1-2-3v-6q0-.4-.3-.5l-1-.8a.2.2 0 0 0-.2 0l-1.3 1zM56.8 39.1v-6.4a.8.8 0 0 0-.1-.4q-.3-.4-.5-.2l-.5.5q-.2.2-.3 0t0-.4a14.7 14.7 0 0 0 1-1.3q.3-.7.8-1.3.2-.2.4 0a12.4 12.4 0 0 0 1 1 7 7 0 0 0 1.3 1q.3.1.2.2a.2.2 0 0 1-.1.2 1.3 1.3 0 0 0-.6.4 1.5 1.5 0 0 0-.2 1v4.9q0 1.2.4 1.5a.6.6 0 0 0 .9-.3q.1-.2.3-.1t0 .4l-.7 1.1-.6 1.1a.4.4 0 0 1-.6.2 4.1 4.1 0 0 1-1.5-1.3 3 3 0 0 1-.6-1.8zm1.7-14q1.3 0 1.2 1.3a2 2 0 0 1-.8 1.3 2 2 0 0 1-1.1.6q-.5 0-.7-.6a3 3 0 0 1-.2-1.3 1.2 1.2 0 0 1 .6-.9 1.7 1.7 0 0 1 1-.3zM62.9 40.6h-.3a.4.4 0 0 1 .2-.4 5.8 5.8 0 0 0 1.4-3.4 3.7 3.7 0 0 0-1.1-2.7q-2-2-1.7-3a6.3 6.3 0 0 1 1.9-2.7q.1-.2.2 0t0 .2q-.8 1-.1 1.7a12.9 12.9 0 0 1 1.3 1.6.2.2 0 0 0 .3 0 22.7 22.7 0 0 0 2-1.2l1.8-1.3a.2.2 0 0 1 .2 0 .2.2 0 0 1 .1 0 2.3 2.3 0 0 0 .5 1.2l.7.9a5.1 5.1 0 0 1 1.3 3.7 5.3 5.3 0 0 1-1.7 4l-1.6 1.4a13.5 13.5 0 0 0-1.3 1.6h-.3l-1.8-1.1a2.3 2.3 0 0 0-2-.5zm2.1-1.9a8.2 8.2 0 0 1 1.4.7l1.4.8a.2.2 0 0 0 .3 0 17.2 17.2 0 0 0 .8-1.6 5.7 5.7 0 0 0 .4-2.2 5 5 0 0 0-.4-2.3 18.2 18.2 0 0 0-1.2-2q-.6-1-2.5.1a.2.2 0 0 0 0 .3 4.8 4.8 0 0 1 .7 3.2 8 8 0 0 1-1 2.7.2.2 0 0 0 0 .2.2.2 0 0 0 .1.1zM76.3 42.2a.5.5 0 0 0-.3-.4 3.2 3.2 0 0 1-.5-.3 5 5 0 0 1-2-2.3 8.1 8.1 0 0 1-.5-2.8 6.1 6.1 0 0 1 1.8-5 5.9 5.9 0 0 1 1.6-1 12.5 12.5 0 0 1 1.8-.7q.3 0 .4.3l1.7 4q.2.3 0 .4l-4.9 1.8a.2.2 0 0 0 0 .2q.5 2.6 1.8 3.4a3 3 0 0 0 2.7.2h.3a.1.1 0 0 1 0 .2l-1.9 1a12.3 12.3 0 0 0-1.5 1 .5.5 0 0 1-.3.1l-.2-.1zm-1.1-6.6a.2.2 0 0 0 0 .1.2.2 0 0 0 .2 0l2.5-1a.2.2 0 0 0 .1-.2L76.6 31q-.1-.2-.4 0a2.5 2.5 0 0 0-1 1.8 9.6 9.6 0 0 0 0 2.8zM85.6 33v5.7l.1.5.9.5q.3.2.8-.6a.2.2 0 0 1 .3 0q.2 0 0 .3a12.2 12.2 0 0 0-1.9 2.7q-.2.2-.4 0a7 7 0 0 0-1.3-1.2 5 5 0 0 0-1.6-.6l-.2-.2a.2.2 0 0 1 .1-.2q.8-.1.8-1.4v-5q0-1.1-.5-1.4-.5-.3-.8.3-.1.2-.3 0t0-.3l.7-1.1.6-1.2a.3.3 0 0 1 .5 0 3.5 3.5 0 0 1 2.1 2 .2.2 0 0 0 .1.2.2.2 0 0 0 .2-.1l1.8-2a.2.2 0 0 1 .2-.1.2.2 0 0 1 .2 0l1.2 2.4a.2.2 0 0 1 0 .2l-1.4 1.7a.2.2 0 0 1-.2 0 .2.2 0 0 1-.2 0l-1-1.8a.2.2 0 0 0-.2 0l-.6.6a.2.2 0 0 0 0 .2zM94.2 27.3a4.3 4.3 0 0 1 3 .2 3.5 3.5 0 0 1 1.5 1.3 2.6 2.6 0 0 1 .4 1.7 2.1 2.1 0 0 1-.7 1.5l-.8.7-.7.5q-.6.6 0 1a5.4 5.4 0 0 1 1.7 2.3 1.8 1.8 0 0 1-.3 1.7 22.6 22.6 0 0 1-1.7 1.9l-1.8 1.8q-.4.4-.5-.1-.1-.6-1.4-1.1t-2.5-1q-.3 0 0-.3l.6-.7.7-.6q.5-.5.3-.9a3.2 3.2 0 0 0-.6-.8 3.2 3.2 0 0 1-1.1-2.3 2.8 2.8 0 0 1 .7-1.8 10 10 0 0 1 1.5-1.4 13.1 13.1 0 0 0 1.6-1.4l.3.1A4.5 4.5 0 0 0 97 31a1.4 1.4 0 0 0 1.4-.6 1.4 1.4 0 0 0-.1-1.4 2.9 2.9 0 0 0-1.2-1.1 3.5 3.5 0 0 0-2.8-.1q-.3 0-.4-.2t.3-.3zm-.2 8.1a.2.2 0 0 0 .2 0l2.2-2.1a.2.2 0 0 0 0-.2.2.2 0 0 0-.1-.2 4 4 0 0 1-1.5-.5l-1.7-1q-.4-.3-1 .5a1.2 1.2 0 0 0 0 1.8 18.6 18.6 0 0 0 1.9 1.7zM92.3 38a.2.2 0 0 0 .1.3l1.7.7 1.6.7q.6.3 1.2-.6.7-1.2-1.9-3-.4-.3-1 .2zM101.6 39.1v-6.4a.8.8 0 0 0-.1-.4q-.3-.4-.5-.2l-.5.5q-.2.2-.3 0t0-.4a14.7 14.7 0 0 0 1-1.3q.3-.7.8-1.3.2-.2.4 0a12.4 12.4 0 0 0 1 1 7 7 0 0 0 1.3 1q.3.1.2.2a.2.2 0 0 1-.1.2 1.3 1.3 0 0 0-.6.4 1.5 1.5 0 0 0-.2 1v4.9q0 1.2.4 1.5a.6.6 0 0 0 .9-.3q.1-.2.3-.1t0 .4l-.7 1.1-.6 1.1a.4.4 0 0 1-.6.2 4.1 4.1 0 0 1-1.5-1.3 3 3 0 0 1-.6-1.8zm1.7-14q1.3 0 1.2 1.3a2 2 0 0 1-.8 1.3 2 2 0 0 1-1.1.6q-.5 0-.7-.6a3 3 0 0 1-.2-1.3 1.2 1.2 0 0 1 .6-.9 1.7 1.7 0 0 1 1-.3zM110.7 32.3v6.6a.5.5 0 0 0 .2.4l.8.5q.3.2.9-.5a.2.2 0 0 1 .2 0q.2 0 0 .2a11.3 11.3 0 0 0-1.8 2.7q-.2.2-.5 0a6.5 6.5 0 0 0-1.2-1.2 5.2 5.2 0 0 0-1.7-.6l-.2-.2a.2.2 0 0 1 .2-.2q.8-.2.8-1.3v-6.4q0-.2-.2-.2h-1.4a.2.2 0 0 1-.2-.1v-.3a25 25 0 0 0 3-2.4l2.6-2.6q.2-.2.3 0t0 .2a10.1 10.1 0 0 0-1 1.7 6.1 6.1 0 0 0-.7 2 .3.3 0 0 0 0 .2.2.2 0 0 0 .1 0h2a.2.2 0 0 1 .2 0 .3.3 0 0 1 0 .2v1a.2.2 0 0 1-.2.1h-2q-.2 0-.2.2zM118.5 31.6l1.5-.9a8.2 8.2 0 0 0 1.3-1q.4-.4.5.1a1.2 1.2 0 0 0 .3.8l.6.7a7.2 7.2 0 0 1 1.7 4.3 8.3 8.3 0 0 1-2.5 6.1 28.7 28.7 0 0 1-4.5 4q-.3.3-.4.1t0-.3q1.7-1.4 3.4-3.2t1.5-5.5a11.7 11.7 0 0 0-.5-2.8 4.5 4.5 0 0 0-1.3-2.1q-.6-.5-1.7.1a.2.2 0 0 0 0 .2V39q0 1.1.8.8l.5-.4a.3.3 0 0 1 .4 0v.3l-1.2 1.1a5.4 5.4 0 0 0-1 1.2q0 .3-.4 0a11.5 11.5 0 0 0-.8-.9 7 7 0 0 0-1.4-.8q-.3 0-.2-.2a.2.2 0 0 1 .1-.1q.8-.3.7-1.6v-2.7-2.7a1.3 1.3 0 0 0-.2-.8 6.5 6.5 0 0 0-.5-.5 2 2 0 0 1-.8-2 4.2 4.2 0 0 1 1.4-2q.2-.3.4-.2t0 .3a1.3 1.3 0 0 0-.5 1q0 .6.8.8a2.6 2.6 0 0 1 1.3.7 2.1 2.1 0 0 1 .4 1 .2.2 0 0 0 .1.2.2.2 0 0 0 .2 0zM136.5 42q-.2.4-.5 0a7.8 7.8 0 0 0-3.9-2.4l-.2-.1a.2.2 0 0 1 .2-.2q.7-.3.7-1.6v-6a.7.7 0 0 0 0-.2.2.2 0 0 1 0-.1.2.2 0 0 1 .1 0 12.8 12.8 0 0 0 5.6-1.8.3.3 0 0 1 .2 0v.1a5 5 0 0 0 1.3 2.5 5.7 5.7 0 0 1 1 2 5.3 5.3 0 0 1 .3 2 3.9 3.9 0 0 1-.7 1.7 8.7 8.7 0 0 1-1.1 1.4 8.4 8.4 0 0 1-1.7 1.2 3.5 3.5 0 0 0-1.3 1.6zm-1.3-10.4v6.7a.3.3 0 0 0 .2.3l2 1.3a.4.4 0 0 0 .6-.1 3.7 3.7 0 0 0 1-3 4.6 4.6 0 0 0-.4-1.8 6 6 0 0 0-1-1.4 6 6 0 0 1-1.3-2.3.2.2 0 0 0-.1-.1.2.2 0 0 0-.2 0l-.7.2a.2.2 0 0 0-.1.2zM145.7 30h2a.2.2 0 0 1 .2.2v.7a.2.2 0 0 1-.2.2h-1.4a.2.2 0 0 0-.1 0 .1.1 0 0 0 0 .2 9.9 9.9 0 0 1-.1 1.8l-1.2 12.4q0 .4-.2.4t-.3-.5l-.6-7.1-.6-7.2h-1.4a.2.2 0 0 1-.2-.1q0-.2.2-.2a2 2 0 0 0 1.2-.8 2.5 2.5 0 0 0 .5-1.7 6 6 0 0 1 .4-2.8q.5-1.2 2-.7l1.6.6q.6.3 1-.3l.3-.2v.5a3.3 3.3 0 0 1-1.1 1.8q-.7.4-2.1-.3-1.4-.6-1.6.7t.5 1.6a3.7 3.7 0 0 1 1 .7.4.4 0 0 0 .2.1zM163.7 39q-.3.2-.4 0t0-.4q1.4-1 1.5-1.7a1.8 1.8 0 0 0-.5-1.1 12.9 12.9 0 0 0-1.6-1.8q-2.5-2.2-2.4-3.6 0-1.4 2-2.6l.5-.4q.5-.4.8-.4a.2.2 0 0 0 0-.2 1.9 1.9 0 0 0-2-1.6q-1.6 0-2.5 2a9.5 9.5 0 0 0-.6 4.6 9.7 9.7 0 0 0 2.8 6.4 7.7 7.7 0 0 0 5.4 2.2 8 8 0 0 0 3.5-1l.4.1q.2.1-.2.4a10 10 0 0 1-6.4 2.3 7.4 7.4 0 0 1-5.9-2.9 9.8 9.8 0 0 1-2.5-5.5 10.8 10.8 0 0 1 1.5-6.6 5.1 5.1 0 0 1 4.4-2.8 2.6 2.6 0 0 1 1.7.6 2.8 2.8 0 0 1 .9 1.3q0 .2.3 0a15 15 0 0 0 1.9-1.6.8.8 0 0 1 .9 0l.9.5 1 .5a1.3 1.3 0 0 0 1.1 0q.3-.1.4 0t0 .3l-1.1 1-1 1a.7.7 0 0 1-.2.1.4.4 0 0 1-.3 0l-.2-.2a8.1 8.1 0 0 0-2.8-1 2 2 0 0 0-1.1.5 2 2 0 0 0-1 1.5q0 1 1.4 2.2 3 2.7 3.3 4.2 0 1.5-4 3.7zM177.5 40.2l-1.3 1-1.4 1a.5.5 0 0 1-.3.1q-.1 0 0-.2 0-.2-.8-1a5.9 5.9 0 0 1-1.9-4.6 5.3 5.3 0 0 1 2.3-4.1 13.8 13.8 0 0 0 1.3-1.1 6 6 0 0 0 1-1.4q.2-.4.6 0a6.8 6.8 0 0 0 3.5 2.3q.6.1.1.5a1.3 1.3 0 0 0-.6 1V39a.8.8 0 0 0 .5.8q.4.2.8-.3.2-.2.4-.1t0 .3l-.9 1.3a7.8 7.8 0 0 0-.6 1.2q-.2.3-.4 0a.6.6 0 0 0-.3-.1 2.1 2.1 0 0 1-1.7-1.8.3.3 0 0 0-.1-.1.3.3 0 0 0-.2 0zm.1-6.9a4.4 4.4 0 0 1-1.7-1.1q-.5-.6-.7-.1a5.9 5.9 0 0 0-1 4q.4 3.3 2.2 4 .5.2 1.2-.6v-.6l.2-5.4a.2.2 0 0 0-.2-.2zM182.9 26.5a.2.2 0 0 1 0-.4h.3l.6.8a4.8 4.8 0 0 1 .5.8.2.2 0 0 0 .2 0 .2.2 0 0 0 .1 0 5.3 5.3 0 0 1 2-1.9 4.8 4.8 0 0 1 2.6-.7q.3 0 .3.3t-.3.2a2.6 2.6 0 0 0-1.9.6 3.3 3.3 0 0 0-.7 2.5v10.1q0 .4.2.5l.9.5q.2 0 .8-.6a.2.2 0 0 1 .3 0q.2 0 0 .3a12.2 12.2 0 0 0-2 2.7q0 .2-.3 0a5.6 5.6 0 0 0-1.2-1.2 4.5 4.5 0 0 0-1.7-.7l-.2-.1a.2.2 0 0 1 .1-.2 1.3 1.3 0 0 0 .5-.4 1.5 1.5 0 0 0 .3-1v-7.9a7.8 7.8 0 0 0-.4-2.6 4.5 4.5 0 0 0-1-1.6zM190.8 39.1l-.1-6.4a.8.8 0 0 0 0-.4q-.4-.4-.6-.2l-.4.5q-.2.2-.4 0t0-.4a14.7 14.7 0 0 0 1-1.3l.8-1.3q.2-.2.5 0a12.4 12.4 0 0 0 1 1 7 7 0 0 0 1.3 1l.2.2a.2.2 0 0 1-.2.2 1.3 1.3 0 0 0-.5.4 1.5 1.5 0 0 0-.3 1v4.9q0 1.2.5 1.5a.6.6 0 0 0 .8-.3q.1-.2.3-.1t0 .4l-.6 1.1-.7 1.1a.4.4 0 0 1-.5.2 4.1 4.1 0 0 1-1.6-1.3 3 3 0 0 1-.5-1.8zm1.7-14q1.3 0 1.1 1.3a2 2 0 0 1-.7 1.3 2 2 0 0 1-1.2.6q-.4 0-.6-.6a3 3 0 0 1-.2-1.3 1.2 1.2 0 0 1 .5-.9 1.7 1.7 0 0 1 1-.3zM199.2 30h2a.2.2 0 0 1 .2.2v.7a.2.2 0 0 1-.2.2h-1.4a.2.2 0 0 0-.1 0 .1.1 0 0 0 0 .2 9.9 9.9 0 0 1 0 1.8l-1.3 12.4q0 .4-.2.4t-.2-.5l-.6-7.1-.7-7.2h-1.3a.2.2 0 0 1-.2-.1l.1-.2a2 2 0 0 0 1.3-.8 2.5 2.5 0 0 0 .4-1.7 6 6 0 0 1 .4-2.8q.6-1.2 2.1-.7l1.6.6q.7.3 1-.3l.2-.2v.5a3.3 3.3 0 0 1-1.1 1.8q-.7.4-2-.3-1.5-.6-1.7.7t.5 1.6a3.7 3.7 0 0 1 1 .7.4.4 0 0 0 .2.1zM205.8 42q-.2.4-.4 0a7.8 7.8 0 0 0-4-2.4l-.2-.1a.2.2 0 0 1 .2-.2q.7-.3.7-1.6v-6a.7.7 0 0 0 0-.2.2.2 0 0 1 0-.1.2.2 0 0 1 .1 0 12.8 12.8 0 0 0 5.6-1.8.3.3 0 0 1 .2 0v.1a5 5 0 0 0 1.3 2.5 5.7 5.7 0 0 1 1 2 5.3 5.3 0 0 1 .3 2 3.9 3.9 0 0 1-.7 1.7 8.7 8.7 0 0 1-1.1 1.4 8.4 8.4 0 0 1-1.6 1.2 3.5 3.5 0 0 0-1.4 1.6zm-1.3-10.4v6.7a.3.3 0 0 0 .2.3l2 1.3a.4.4 0 0 0 .6-.1 3.7 3.7 0 0 0 1-3 4.6 4.6 0 0 0-.4-1.8 6 6 0 0 0-1-1.4 6 6 0 0 1-1.3-2.3.2.2 0 0 0-.1-.1.2.2 0 0 0-.2 0l-.7.2a.2.2 0 0 0 0 .2zM215.8 33v5.7l.1.5.9.5q.3.2.8-.6a.2.2 0 0 1 .3 0q.2 0 0 .3A12.2 12.2 0 0 0 216 42q-.2.2-.4 0a7 7 0 0 0-1.2-1.2 5 5 0 0 0-1.7-.6l-.2-.2a.2.2 0 0 1 .1-.2q.8-.1.8-1.4v-5q0-1.1-.5-1.4-.5-.3-.8.3-.1.2-.3 0t0-.3l.7-1.1.6-1.2a.3.3 0 0 1 .5 0 3.5 3.5 0 0 1 2.1 2 .2.2 0 0 0 .2.2.2.2 0 0 0 .1-.1l1.8-2a.2.2 0 0 1 .2-.1.2.2 0 0 1 .2 0l1.2 2.4a.2.2 0 0 1 0 .2l-1.4 1.7a.2.2 0 0 1-.2 0 .2.2 0 0 1-.2 0l-.9-1.8a.2.2 0 0 0-.2 0 .2.2 0 0 0-.1 0l-.6.6a.2.2 0 0 0 0 .2zM224.5 37.6q0 2 .7 2.2a.2.2 0 0 1 .1.2.2.2 0 0 1 0 .1 5.9 5.9 0 0 0-1.8 2.1.2.2 0 0 1-.3 0 5.5 5.5 0 0 0-1.8-2 .2.2 0 0 1 0-.2.2.2 0 0 1 0-.2q.8-.3.8-2.2v-3.9q0-1.2-.5-1.4-.5-.4-.8.2-.1.3-.3.1t0-.4l.7-1 .6-1.2a.3.3 0 0 1 .5-.1 3.6 3.6 0 0 1 2.1 2 .2.2 0 0 0 .1.2.2.2 0 0 0 .2 0l1.3-1.1a3.8 3.8 0 0 0 1-1.1q0-.4.4 0l1.2 1.1a3.6 3.6 0 0 0 1.7.7q.2 0 .2.2a.2.2 0 0 1-.2.1 1.3 1.3 0 0 0-.5.4 1.5 1.5 0 0 0-.2 1v5q0 1.2.4 1.4.5.3.8-.2.2-.3.3-.1t0 .4l-.6 1-.7 1.2a.4.4 0 0 1-.5.1 3.3 3.3 0 0 1-2.1-3v-6q0-.4-.2-.5l-1-.8a.2.2 0 0 0-.3 0l-1.2 1zM233.9 39.1v-6.4a.8.8 0 0 0-.2-.4q-.2-.4-.4-.2l-.5.5q-.2.2-.4 0t0-.4a14.7 14.7 0 0 0 1-1.3l.9-1.3q.2-.2.4 0a12.4 12.4 0 0 0 1 1 7 7 0 0 0 1.3 1l.2.2a.2.2 0 0 1-.1.2 1.3 1.3 0 0 0-.6.4 1.5 1.5 0 0 0-.2 1v4.9q0 1.2.4 1.5a.6.6 0 0 0 .9-.3q0-.2.3-.1t0 .4l-.7 1.1-.6 1.1a.4.4 0 0 1-.6.2 4.1 4.1 0 0 1-1.6-1.3 3 3 0 0 1-.5-1.8zm1.7-14q1.3 0 1.2 1.3a2 2 0 0 1-.8 1.3 2 2 0 0 1-1.2.6q-.4 0-.6-.6a3 3 0 0 1-.2-1.3 1.2 1.2 0 0 1 .5-.9 1.7 1.7 0 0 1 1.1-.3zM244.8 40.2l-1.3 1-1.4 1a.5.5 0 0 1-.3.1l-.1-.2q0-.2-.7-1a5.9 5.9 0 0 1-1.9-4.6 5.3 5.3 0 0 1 2.3-4.1 13.8 13.8 0 0 0 1.3-1.1 6 6 0 0 0 1-1.4q.2-.4.6 0a6.8 6.8 0 0 0 3.5 2.3q.6.1.1.5a1.3 1.3 0 0 0-.6 1V39a.8.8 0 0 0 .5.8q.3.2.8-.3.2-.2.3-.1t0 .3l-.8 1.3a7.8 7.8 0 0 0-.6 1.2q-.2.3-.4 0a.6.6 0 0 0-.3-.1 2.1 2.1 0 0 1-1.7-1.8.3.3 0 0 0-.1-.1.3.3 0 0 0-.2 0zm.1-6.9a4.4 4.4 0 0 1-1.7-1.1q-.5-.6-.7-.1a5.9 5.9 0 0 0-1 4q.4 3.3 2.2 4 .5.2 1.2-.6v-.6l.2-5.4a.2.2 0 0 0-.2-.2zM250 40a5 5 0 0 0 1.5-1.6q.2-.2.4 0a3.5 3.5 0 0 0 1.5 1.6.2.2 0 0 1 0 .2 5.2 5.2 0 0 1-.6 2.3 15.9 15.9 0 0 1-1.3 2.1.2.2 0 0 1-.3.1q-.1-.1 0-.2a3.3 3.3 0 0 0 .5-2.3q-.1-1.1-1.7-1.9-.3-.1 0-.3zM270 33.9q.2.2 0 .3a5 5 0 0 1-5 .1 4.4 4.4 0 0 1-2.6-3.7 6 6 0 0 1 1.4-4.4 5.6 5.6 0 0 1 4.5-2 5.4 5.4 0 0 1 2.2.5 6.5 6.5 0 0 1 1.6.9l2 1.7a1.6 1.6 0 0 0 1.8.2q.3-.2.5 0t-.3.5q-2.6 1.7-2.8 3t1.8 4q1.8 2.8 1.3 4.8a6 6 0 0 1-2.5 3.3 8.2 8.2 0 0 1-4 1.6 5.3 5.3 0 0 1-4.2-1.5l-1.7-1.6a1.5 1.5 0 0 0-2 0q-.2.3-.4.1t0-.4q3.5-3.6 6.9.1a5.3 5.3 0 0 0 2.8 2 2.5 2.5 0 0 0 2.2-.7 2.3 2.3 0 0 0 .7-2 9 9 0 0 0-1.6-3.4q-1.9-3-1.8-4.5t2.3-3.3v-.2q0-.2-.2-.1a4 4 0 0 1-2.7-1.3 4.5 4.5 0 0 0-3.1-1.3 3.6 3.6 0 0 0-2.7 1.2 4 4 0 0 0-.7 3.1 3.3 3.3 0 0 0 2.1 3 4.6 4.6 0 0 0 3.9-.1q.3-.1.4 0zM282 33v5.7q0 .4.2.5l.9.5q.2.2.8-.6a.2.2 0 0 1 .3 0q.2 0 0 .3a12.2 12.2 0 0 0-1.9 2.7q-.2.2-.4 0a7 7 0 0 0-1.3-1.2 5 5 0 0 0-1.6-.6l-.3-.2a.2.2 0 0 1 .2-.2q.8-.1.8-1.4v-5q0-1.1-.5-1.4-.5-.3-.8.3-.1.2-.3 0t0-.3l.7-1.1q.4-.5.6-1.2a.3.3 0 0 1 .5 0 3.5 3.5 0 0 1 2 2 .2.2 0 0 0 .2.2.2.2 0 0 0 .2-.1l1.8-2a.2.2 0 0 1 .2-.1.2.2 0 0 1 .1 0l1.3 2.4a.2.2 0 0 1 0 .2l-1.5 1.7a.2.2 0 0 1-.1 0 .2.2 0 0 1-.2 0l-1-1.8a.2.2 0 0 0-.3 0l-.5.6a.2.2 0 0 0 0 .2zM287.6 40.6q-.2.1-.2 0a.4.4 0 0 1 .1-.4 5.8 5.8 0 0 0 1.4-3.4 3.7 3.7 0 0 0-1.1-2.7q-2-2-1.6-3a6.3 6.3 0 0 1 1.8-2.7q.1-.2.2 0t0 .2q-.8 1 0 1.7a12.9 12.9 0 0 1 1.2 1.6.2.2 0 0 0 .3 0 22.7 22.7 0 0 0 2-1.2l1.8-1.3a.2.2 0 0 1 .2 0 .2.2 0 0 1 .1 0 2.3 2.3 0 0 0 .5 1.2l.7.9a5.1 5.1 0 0 1 1.3 3.7 5.3 5.3 0 0 1-1.7 4l-1.6 1.4a13.5 13.5 0 0 0-1.3 1.6h-.3l-1.7-1.1a2.3 2.3 0 0 0-2-.5zm2.1-1.9a8.2 8.2 0 0 1 1.4.7l1.4.8a.2.2 0 0 0 .3 0 17.2 17.2 0 0 0 .8-1.6 5.7 5.7 0 0 0 .5-2.2 5 5 0 0 0-.5-2.3 18.2 18.2 0 0 0-1.1-2q-.7-1-2.6.1a.2.2 0 0 0 0 .3 4.8 4.8 0 0 1 .7 3.2 8 8 0 0 1-1 2.7.2.2 0 0 0 0 .2.2.2 0 0 0 .1.1zM299 39.1l-.2-6.4a.8.8 0 0 0 0-.4q-.3-.4-.5-.2l-.5.5q-.2.2-.3 0t0-.4a14.7 14.7 0 0 0 1-1.3l.8-1.3q.2-.2.4 0a12.4 12.4 0 0 0 1 1 7 7 0 0 0 1.3 1q.3.1.2.2a.2.2 0 0 1-.1.2 1.3 1.3 0 0 0-.6.4 1.5 1.5 0 0 0-.2 1v4.9q0 1.2.5 1.5a.6.6 0 0 0 .8-.3q.1-.2.3-.1t0 .4l-.7 1.1-.6 1.1a.4.4 0 0 1-.6.2 4.1 4.1 0 0 1-1.5-1.3 3 3 0 0 1-.6-1.8zm1.6-14q1.3 0 1.2 1.3a2 2 0 0 1-.8 1.3 2 2 0 0 1-1.1.6q-.4 0-.7-.6a3 3 0 0 1-.1-1.3 1.2 1.2 0 0 1 .5-.9 1.7 1.7 0 0 1 1-.3zM308.2 37.6q0 2 .7 2.2a.2.2 0 0 1 .1.2.2.2 0 0 1 0 .1 5.9 5.9 0 0 0-1.8 2.1.2.2 0 0 1-.3 0 5.5 5.5 0 0 0-1.8-2 .2.2 0 0 1 0-.2.2.2 0 0 1 0-.2q.8-.3.8-2.2v-3.9q0-1.2-.5-1.4-.5-.4-.8.2-.2.3-.3.1t0-.4l.6-1 .7-1.2a.3.3 0 0 1 .5-.1 3.6 3.6 0 0 1 2 2 .2.2 0 0 0 .2.2.2.2 0 0 0 .2 0l1.3-1.1a3.8 3.8 0 0 0 1-1.1q0-.4.3 0l1.2 1.1a3.6 3.6 0 0 0 1.7.7q.2 0 .2.2a.2.2 0 0 1-.1.1 1.3 1.3 0 0 0-.5.4 1.5 1.5 0 0 0-.3 1v5q0 1.2.5 1.4.5.3.8-.2.1-.3.3-.1t0 .4l-.7 1-.6 1.2a.4.4 0 0 1-.5.1 3.3 3.3 0 0 1-2.1-3v-6q0-.4-.2-.5l-1-.8a.2.2 0 0 0-.3 0l-1.2 1zM319.6 42.2a.5.5 0 0 0-.3-.4 3.2 3.2 0 0 1-.4-.3 5 5 0 0 1-2-2.3 8.1 8.1 0 0 1-.6-2.8 6.1 6.1 0 0 1 1.8-5 5.9 5.9 0 0 1 1.6-1 12.5 12.5 0 0 1 1.9-.7q.3 0 .4.3l1.7 4q.1.3 0 .4h-.1l-4.8 1.8a.2.2 0 0 0-.1.2q.5 2.6 1.9 3.4a3 3 0 0 0 2.7.2h.3a.1.1 0 0 1-.1.2l-1.8 1a12.3 12.3 0 0 0-1.6 1 .5.5 0 0 1-.3.1l-.2-.1zm-1-6.6a.2.2 0 0 0 0 .1.2.2 0 0 0 .2 0l2.5-1a.2.2 0 0 0 0-.2L320 31q-.1-.2-.5 0a2.5 2.5 0 0 0-.9 1.8 9.6 9.6 0 0 0 0 2.8"/></svg>