<svg id="College_Degree" data-name="College Degree" xmlns="http://www.w3.org/2000/svg" viewBox="0 0 350 150"><title>Bachelor of Science</title><rect width="350" height="150" style="fill:#feefc4"/><path id="Frame" d="M337.9561,12.0439V137.9561H12.0439V12.0439H337.9561M340,10H10V140H340V10Z" style="fill:#e3c675"/><path d="M123.457,118.5664q-.0242.7559-.0239,1.5186V123.66q0,.7632.0239,1.53l1.0322.1084v.5518h-3.5161v-.5518l.9961-.1084q.0234-.7559.0239-1.5176v-3.87l-2.7241,6.0479h-.4321l-2.7358-6.0723v5.3643l1.0562.1563v.5518h-2.8081v-.5518l1.1162-.1562v-6.5645l-1.0444-.1191v-.5527h2.28l2.76,6.0244,2.748-6.0244h2.28v.5527Z"/><path d="M128.2451,125.37v.48h-2.9282v-.48l.8159-.1553q.0125-.4556.0122-.9727V122.73c0-.3281-.0039-.6016-.0122-.8223s-.0161-.4492-.0239-.6895l-.876-.1084v-.4434l2.1-.7441.18.12-.0361,1.668v2.5381q0,.5215.0122.9658Zm-1.4521-6.6a.9273.9273,0,0,1-.6479-.24.8691.8691,0,0,1,0-1.248.9309.9309,0,0,1,.6479-.2393.9106.9106,0,0,1,.6421.2393.8841.8841,0,0,1,0,1.248A.9071.9071,0,0,1,126.793,118.7705Z"/><path d="M135.6011,125.37v.48h-2.9282v-.48l.8042-.1553q.0117-.4438.0117-.96v-2.0283a2.2672,2.2672,0,0,0-.1855-1.0742.6946.6946,0,0,0-.6543-.3174,1.6025,1.6025,0,0,0-.7441.1855,3.4763,3.4763,0,0,0-.7559.5576v2.6641q0,.5171.0122.9727l.7681.1553v.48h-2.94v-.48l.8164-.1553q.0117-.4556.0117-.9727v-1.56q0-.4922-.0117-.7979t-.0244-.666l-.876-.1084v-.4434l1.9321-.7441.18.12.0957.96a3.7922,3.7922,0,0,1,.9663-.8105,2.199,2.199,0,0,1,1.0859-.27,1.5067,1.5067,0,0,1,1.2422.51,2.622,2.622,0,0,1,.4136,1.65v2.1719q0,.5156.0122.96Z"/><path d="M139.249,119.9229a2.962,2.962,0,0,1,1.08.2041,2.6991,2.6991,0,0,1,.93.6,3.01,3.01,0,0,1,.6479.9658,3.2577,3.2577,0,0,1,.2461,1.3018,3.3669,3.3669,0,0,1-.2339,1.2969,2.8579,2.8579,0,0,1-.63.9531,2.61,2.61,0,0,1-.9243.5889,3.2552,3.2552,0,0,1-2.2319,0,2.6039,2.6039,0,0,1-.9238-.5889,2.8432,2.8432,0,0,1-.63-.9531,3.6758,3.6758,0,0,1,.0059-2.5986,2.8819,2.8819,0,0,1,.6479-.9658,2.7716,2.7716,0,0,1,.93-.6A2.94,2.94,0,0,1,139.249,119.9229Zm0,.5635a1.1718,1.1718,0,0,0-1.0742.63,3.7909,3.7909,0,0,0-.3657,1.8662,3.7126,3.7126,0,0,0,.3657,1.86,1.249,1.249,0,0,0,2.1479,0,3.712,3.712,0,0,0,.3662-1.86,3.79,3.79,0,0,0-.3662-1.8662A1.1716,1.1716,0,0,0,139.249,120.4863Z"/><path d="M145.2129,121.3145a3.2711,3.2711,0,0,1,.78-1.02,1.3979,1.3979,0,0,1,.9-.3721,1.0777,1.0777,0,0,1,.5161.1436.6979.6979,0,0,1,.3359.5166.7419.7419,0,0,1-.2158.5576.7764.7764,0,0,1-.564.21,1.12,1.12,0,0,1-.8042-.3965l-.06-.06a3.0473,3.0473,0,0,0-.876,1.2842v2.0459q0,.51.0122.9658l.96.18v.48h-3.12v-.48l.8042-.1553q.0117-.4438.0117-.9658v-1.5664q0-.4922-.0117-.7979t-.0244-.666l-.876-.1084v-.4434l1.9321-.7441.18.12Z"/><path d="M149.5566,121.7949a.9428.9428,0,1,1,.66-.2764A.8976.8976,0,0,1,149.5566,121.7949Zm0,4.2354a.9411.9411,0,1,1,.66-.2754A.9.9,0,0,1,149.5566,126.03Z"/><path d="M160.5244,115.1465a5.8011,5.8011,0,0,1,2.0479.3525,4.6039,4.6039,0,0,1,1.6323,1.0234,4.7082,4.7082,0,0,1,1.08,1.6719,6.2643,6.2643,0,0,1,.3916,2.2959,5.7377,5.7377,0,0,1-.4316,2.2959,4.84,4.84,0,0,1-1.1763,1.6807,5.0417,5.0417,0,0,1-1.7437,1.0322,6.3479,6.3479,0,0,1-2.12.3516h-4.416v-.6562l1.4717-.1758q.0322-1.0239.0322-2.0879V118.043q0-1.0239-.0322-2.0645l-1.4717-.1758v-.6562Zm-.272,9.9521a3.7523,3.7523,0,0,0,1.5122-.2959,3.0645,3.0645,0,0,0,1.16-.88,4.1692,4.1692,0,0,0,.7441-1.44,6.72,6.72,0,0,0,.2642-1.9756,6.8047,6.8047,0,0,0-.2642-1.9844,4.0944,4.0944,0,0,0-.752-1.4482,3.1479,3.1479,0,0,0-1.168-.88,3.7523,3.7523,0,0,0-1.5122-.2959h-1.4077q-.0322,1.04-.0322,2.0879v4.9766q0,1.08.0322,2.1357Z"/><path d="M170.7,125.2744v.5762h-3.7119v-.5762l1.2-.2236q.0161-.6079.0244-1.32t.0078-1.24v-.8q0-.6562-.0161-1.0957c-.0107-.293-.0215-.6006-.0317-.92l-1.2642-.1445v-.56l2.4639-.9766.24.16-.0479,2.1768V122.49q0,.5288.0078,1.24t.0239,1.32Zm-1.8237-8.9922a1.07,1.07,0,0,1-.7681-.2881.9857.9857,0,0,1-.3042-.752.9606.9606,0,0,1,.3042-.7432,1.1919,1.1919,0,0,1,1.5356,0,.9623.9623,0,0,1,.3042.7432.9874.9874,0,0,1-.3042.752A1.07,1.07,0,0,1,168.8765,116.2822Z"/><path d="M179.1323,119.2109H177.58a2.7547,2.7547,0,0,1,.3521,1.4072,2.6446,2.6446,0,0,1-.2236,1.1123,2.4237,2.4237,0,0,1-.6084.8242,2.6288,2.6288,0,0,1-.9116.5117,3.6024,3.6024,0,0,1-1.1523.1758,4.3141,4.3141,0,0,1-.6079-.04,3.9047,3.9047,0,0,1-.56-.1191,1.9911,1.9911,0,0,0-.2158.376,1.0394,1.0394,0,0,0-.0879.4238.6843.6843,0,0,0,.272.5762,1.6738,1.6738,0,0,0,.9761.208h1.6636a3.2945,3.2945,0,0,1,1.9443.4639,1.5322,1.5322,0,0,1,.6318,1.3115,2.2625,2.2625,0,0,1-.248,1.0244,2.5423,2.5423,0,0,1-.752.88,4.0276,4.0276,0,0,1-1.248.6162,5.9229,5.9229,0,0,1-1.752.2314,6.6325,6.6325,0,0,1-1.4722-.1436,3.5033,3.5033,0,0,1-1.0317-.3926,1.7253,1.7253,0,0,1-.6079-.584,1.35,1.35,0,0,1-.2-.7041q0-.9917,1.4883-1.7432a1.4279,1.4279,0,0,1-.6641-.5361,1.3131,1.3131,0,0,1-.2-.6963,1.3413,1.3413,0,0,1,.2642-.8,3.1991,3.1991,0,0,1,.76-.72,2.4444,2.4444,0,0,1-.896-.8809,2.9323,2.9323,0,0,1-.1118-2.4873,2.4161,2.4161,0,0,1,.6079-.8242,2.6311,2.6311,0,0,1,.9121-.5117,3.6265,3.6265,0,0,1,1.1519-.1768,3.0831,3.0831,0,0,1,2.0479.6563l1.792-.6074.24.1592Zm-4.6562,6.6553a4.1208,4.1208,0,0,1-.8159-.08,3.5046,3.5046,0,0,0-.4316.624,1.4551,1.4551,0,0,0-.16.6885,1.117,1.117,0,0,0,.5762,1.0479,3.0193,3.0193,0,0,0,1.5039.3281,3.5688,3.5688,0,0,0,2.0078-.4639,1.341,1.341,0,0,0,.68-1.12,1.0149,1.0149,0,0,0-.0723-.376.7749.7749,0,0,0-.2559-.3281,1.441,1.441,0,0,0-.4878-.2324,2.8229,2.8229,0,0,0-.7681-.0879Zm.5122-3.2637a1.4309,1.4309,0,0,0,1.2-.56,2.32,2.32,0,0,0,.4316-1.4561,2.2832,2.2832,0,0,0-.4-1.4,1.35,1.35,0,0,0-1.1519-.5361,1.4172,1.4172,0,0,0-1.1919.5518,2.2869,2.2869,0,0,0-.4243,1.4326,2.3448,2.3448,0,0,0,.4,1.4238A1.3275,1.3275,0,0,0,174.9883,122.6025Z"/><path d="M183.7559,125.2744v.5762h-3.7119v-.5762l1.2-.2236q.0161-.6079.0244-1.32t.0078-1.24v-.8q0-.6562-.0161-1.0957c-.0107-.293-.0215-.6006-.0317-.92l-1.2642-.1445v-.56l2.4639-.9766.24.16-.0479,2.1768V122.49q0,.5288.0078,1.24t.0239,1.32Zm-1.8237-8.9922a1.07,1.07,0,0,1-.7681-.2881.9857.9857,0,0,1-.3042-.752.9606.9606,0,0,1,.3042-.7432,1.1919,1.1919,0,0,1,1.5356,0,.9623.9623,0,0,1,.3042.7432.9874.9874,0,0,1-.3042.752A1.07,1.07,0,0,1,181.9321,116.2822Z"/><path d="M189.42,125.1621a2.0313,2.0313,0,0,1-.792.624,2.5986,2.5986,0,0,1-1.0962.2246,1.9185,1.9185,0,0,1-1.3359-.44,1.7744,1.7744,0,0,1-.4878-1.3838q0-.3032.0078-.6t.0083-.7607v-3.6953H184.396v-.7041l1.4238-.1758.4-2.1768h.9761l-.08,2.208h2.144v.8486H187.084v4.8633a1.4137,1.4137,0,0,0,.2319.9043.7951.7951,0,0,0,.6479.28,1.8454,1.8454,0,0,0,1.0723-.4482Z"/><path d="M197.5317,125.1621a1.5657,1.5657,0,0,1-.5918.6807,1.5015,1.5015,0,0,1-.7041.168,1.5734,1.5734,0,0,1-1.0562-.3281,1.5107,1.5107,0,0,1-.4961-.8721q-.32.3208-.5918.56a3.5427,3.5427,0,0,1-.5439.4,2.3671,2.3671,0,0,1-.56.24,2.4152,2.4152,0,0,1-.64.08,2.6461,2.6461,0,0,1-.8237-.1279,1.9806,1.9806,0,0,1-.688-.3848,1.7754,1.7754,0,0,1-.4644-.6318,2.12,2.12,0,0,1-.168-.8721,1.9669,1.9669,0,0,1,.1123-.6553,1.6854,1.6854,0,0,1,.4-.6162,3.6422,3.6422,0,0,1,.8081-.5918,8.3233,8.3233,0,0,1,1.3359-.584q.3677-.1289.84-.2646t.9521-.2637v-.4316a4.3138,4.3138,0,0,0-.0879-.9521,1.4533,1.4533,0,0,0-.2642-.5918.9345.9345,0,0,0-.4561-.3047,2.2919,2.2919,0,0,0-.68-.0879c-.1172,0-.2427.0059-.376.0166a3.7725,3.7725,0,0,0-.44.0635l-.32,1.12q-.2241.7676-.8643.7676a.73.73,0,0,1-.5278-.1836.781.781,0,0,1-.2241-.5039,2.402,2.402,0,0,1,1.0562-1.4639,3.6526,3.6526,0,0,1,2.064-.5527,2.4717,2.4717,0,0,1,1.8721.6406,3.1208,3.1208,0,0,1,.6079,2.1758v3.4238q0,.9448.5278.9443a.633.633,0,0,0,.3364-.0879,1.9487,1.9487,0,0,0,.2559-.1846l.08-.0957Zm-2.88-3.4551q-.416.1113-.8081.2393c-.2617.0859-.4775.16-.6479.2246a4.1775,4.1775,0,0,0-.84.4238,2.084,2.084,0,0,0-.4722.4238,1.0887,1.0887,0,0,0-.208.416,1.702,1.702,0,0,0-.0479.3838,1.25,1.25,0,0,0,.0879.5127,1.3527,1.3527,0,0,0,.2158.3359,1.32,1.32,0,0,0,.9761.3672,1.6208,1.6208,0,0,0,.3682-.04,1.4412,1.4412,0,0,0,.3677-.1436,4.4007,4.4007,0,0,0,.4321-.2725q.24-.167.5762-.4072Z"/><path d="M201.9795,125.2744v.5762h-3.936v-.5762l1.2642-.2236q.0154-.6562.0239-1.2881t.0078-1.2725V115.627l-1.312-.16v-.5605l2.4961-.72.2241.1279-.064,2.2725V122.49q0,.64.0078,1.28t.0239,1.28Z"/><path d="M216.5713,125.1943v.6563h-4.3521v-.6562l1.5684-.1914-.896-2.6406h-3.68l-.896,2.624,1.5518.208v.6563h-3.68v-.6562l1.36-.208,3.4238-9.84h.96l3.44,9.9043Zm-3.936-3.584-1.5679-4.624-1.6,4.624Z"/><path d="M219.9312,120.0264a4.1062,4.1062,0,0,1,1.0317-1.4961,1.9261,1.9261,0,0,1,1.272-.5361,1.37,1.37,0,0,1,.68.1846.826.826,0,0,1,.4077.6.7855.7855,0,0,1-.272.6318,1.02,1.02,0,0,1-.688.2324,1.2873,1.2873,0,0,1-.9116-.4l-.1123-.1113a3.4923,3.4923,0,0,0-.832.8721,4.7376,4.7376,0,0,0-.56,1.2236V122.49q0,.5288.0083,1.2324t.0239,1.3115l1.312.24v.5762h-3.8721v-.5762l1.1519-.208q.0161-.6079.0239-1.3193t.0083-1.2568v-.8154q0-.6562-.0161-1.0879c-.0107-.2881-.0215-.5928-.0317-.9121l-1.2642-.1445v-.56l2.2241-.9766.24.16Z"/><path d="M228.9546,125.1621a2.0313,2.0313,0,0,1-.792.624,2.5986,2.5986,0,0,1-1.0962.2246,1.9185,1.9185,0,0,1-1.3359-.44,1.7744,1.7744,0,0,1-.4878-1.3838q0-.3032.0078-.6t.0083-.7607v-3.6953h-1.3281v-.7041l1.4238-.1758.4-2.1768h.9761l-.08,2.208h2.144v.8486h-2.1758v4.8633a1.4137,1.4137,0,0,0,.2319.9043.7951.7951,0,0,0,.6479.28,1.8454,1.8454,0,0,0,1.0723-.4482Z"/><path d="M233.13,121.4189a4.02,4.02,0,0,1,1.7041,1.0313,2.0615,2.0615,0,0,1,.2959,2.2,2.0717,2.0717,0,0,1-.584.7363,3.0246,3.0246,0,0,1-.9761.5117,4.3308,4.3308,0,0,1-1.3521.1924,4.6618,4.6618,0,0,1-1.24-.1523,5.8687,5.8687,0,0,1-1.16-.4717l-.0479-1.7441h.88l.3042,1.376a3.083,3.083,0,0,0,1.2959.2559,2.2631,2.2631,0,0,0,1.36-.3359,1.0632,1.0632,0,0,0,.4482-.8955.9964.9964,0,0,0-.376-.8164,4.2263,4.2263,0,0,0-1.144-.5918l-.7363-.2725a3.842,3.842,0,0,1-1.4077-.84,1.7364,1.7364,0,0,1-.5283-1.2881,2.005,2.005,0,0,1,.2-.88,2.3321,2.3321,0,0,1,.56-.7363,2.7352,2.7352,0,0,1,.88-.5117,3.3308,3.3308,0,0,1,1.16-.1924,3.9186,3.9186,0,0,1,1.1841.168,4.953,4.953,0,0,1,1.0557.4883l-.064,1.6318h-.832l-.24-1.2793a2.6119,2.6119,0,0,0-1.12-.2725,1.7055,1.7055,0,0,0-1.1118.3125,1.0511,1.0511,0,0,0-.376.8555.9457.9457,0,0,0,.3276.76,3.9758,3.9758,0,0,0,1.16.584Z"/><path d="M93.5786,99.0645a9.7462,9.7462,0,0,1,1.53.72,4.38,4.38,0,0,1,1.0171.8105,2.8234,2.8234,0,0,1,.5669.9355,3.3121,3.3121,0,0,1,.18,1.1162,3.2414,3.2414,0,0,1-.3149,1.4492,3.1653,3.1653,0,0,1-.8823,1.0889,4.0972,4.0972,0,0,1-1.3589.6934,5.8658,5.8658,0,0,1-1.728.2422,6.7573,6.7573,0,0,1-1.9531-.2783,6.412,6.412,0,0,1-1.5566-.6748l.1079-2.5205h1.0977l.36,2.0879a3.5283,3.5283,0,0,0,.873.3691,3.9741,3.9741,0,0,0,1.0166.1172,3.3185,3.3185,0,0,0,2.0435-.5762,1.9283,1.9283,0,0,0,.7646-1.6377,1.8413,1.8413,0,0,0-.1348-.7295,1.676,1.676,0,0,0-.4053-.5664,3.0474,3.0474,0,0,0-.6929-.4687,9.7677,9.7677,0,0,0-.999-.4316l-.7021-.27a8.1724,8.1724,0,0,1-1.269-.6123,4.5641,4.5641,0,0,1-.981-.7832,3.257,3.257,0,0,1-.6387-.98,3.4058,3.4058,0,0,1,.0811-2.6289,3.2162,3.2162,0,0,1,.8457-1.0791,3.7343,3.7343,0,0,1,1.2871-.6846,5.3861,5.3861,0,0,1,1.6108-.2334A4.9492,4.9492,0,0,1,95,93.8a4.8906,4.8906,0,0,1,1.314.6924l-.1079,2.3584H95.09l-.3779-2.0518a3.2107,3.2107,0,0,0-1.458-.3418,2.847,2.847,0,0,0-1.7461.5215,1.8278,1.8278,0,0,0-.7017,1.5664,1.794,1.794,0,0,0,.5308,1.3672,4.5409,4.5409,0,0,0,1.521.8828Z"/><path d="M102.5244,97.0127a4.081,4.081,0,0,1,1.521.2969,3.8346,3.8346,0,0,1,1.3228.8818,4.5429,4.5429,0,0,1,.936,1.44,5.6163,5.6163,0,0,1,.0088,3.9326,4.1514,4.1514,0,0,1-.9355,1.4131,3.9406,3.9406,0,0,1-1.332.8555,4.2093,4.2093,0,0,1-1.521.2871,4.2522,4.2522,0,0,1-1.5391-.2871,3.84,3.84,0,0,1-1.3232-.8555,4.2125,4.2125,0,0,1-.9268-1.4131,5.08,5.08,0,0,1-.3511-1.9619,5.15,5.15,0,0,1,.3511-1.9707,4.3363,4.3363,0,0,1,.936-1.44,3.9378,3.9378,0,0,1,1.3228-.8818A4.0575,4.0575,0,0,1,102.5244,97.0127Zm0,.8281a2.0429,2.0429,0,0,0-1.8184.9629,5.1293,5.1293,0,0,0-.63,2.7988,4.9934,4.9934,0,0,0,.63,2.7627,2.2037,2.2037,0,0,0,3.6182,0,4.9934,4.9934,0,0,0,.63-2.7627,5.1293,5.1293,0,0,0-.63-2.7988A2.0267,2.0267,0,0,0,102.5244,97.8408Z"/><path d="M119.0122,105.0762a2.3311,2.3311,0,0,1-.873.7021,2.6743,2.6743,0,0,1-1.1611.252,2.2746,2.2746,0,0,1-1.5752-.4951,1.9966,1.9966,0,0,1-.5488-1.5566c0-.2275.0029-.4531.0093-.6748s.0088-.5068.0088-.8555V98.291h-3.78V102.07q0,.7207.0088,1.4316t.0269,1.4307l1.6021.27v.6484h-4.626v-.6484l1.4219-.252q.0183-.7192.0273-1.4395t.0088-1.44V98.291h-1.4761v-.792l1.4941-.1982q.0718-.7207.1709-1.2959a7.9519,7.9519,0,0,1,.2432-1.0352,4.0014,4.0014,0,0,1,.36-.8281,3.7371,3.7371,0,0,1,.5039-.6748,3.0839,3.0839,0,0,1,1.2422-.8643,3.8431,3.8431,0,0,1,1.2778-.2344,2.698,2.698,0,0,1,1.125.2168,1.0854,1.0854,0,0,1,.6211.7373.8513.8513,0,0,1-.3237.5947,1.1967,1.1967,0,0,1-.7744.2334,1.5073,1.5073,0,0,1-.6479-.1436,3.402,3.402,0,0,1-.6479-.4141l-.45-.36a2.2622,2.2622,0,0,0-.6123.72A4.2109,4.2109,0,0,0,111.2,95.23a8.8557,8.8557,0,0,0-.144,2.1064h3.9058l.45-2.4844H116.51l-.09,2.4844h2.4121v.9541h-2.4478v5.4717a1.5141,1.5141,0,0,0,.2788,1.0166.97.97,0,0,0,.7651.3154,1.2158,1.2158,0,0,0,.5669-.126,5.6172,5.6172,0,0,0,.603-.3779Z"/><path d="M132.854,98.0742l-.99.2168-2.646,7.7393h-.666L126.14,99.7666l-2.3042,6.2637h-.666l-2.8979-7.7939-1.0259-.1621v-.7373h4.104v.7373l-1.4038.1982,1.8716,5.5264,2.0161-5.5264-1.332-.1982v-.7373h3.978v.7373l-1.35.2168,2.0522,5.4717,1.71-5.4717-1.35-.2168v-.7373h3.312Z"/><path d="M141.8354,105.0762a1.7516,1.7516,0,0,1-.666.7656,1.6765,1.6765,0,0,1-.792.1885,1.7707,1.7707,0,0,1-1.188-.3691,1.6907,1.6907,0,0,1-.5576-.98q-.36.36-.666.63a4.0157,4.0157,0,0,1-.6123.45,2.6067,2.6067,0,0,1-.63.27,2.6645,2.6645,0,0,1-.72.09,2.9762,2.9762,0,0,1-.9272-.1436,2.2255,2.2255,0,0,1-.7739-.4316,2.0167,2.0167,0,0,1-.522-.7109,2.3877,2.3877,0,0,1-.189-.9814,2.2219,2.2219,0,0,1,.126-.7383,1.9025,1.9025,0,0,1,.45-.6924,4.0747,4.0747,0,0,1,.9092-.666,9.3525,9.3525,0,0,1,1.5029-.6572q.4138-.1436.9453-.2969t1.0708-.2969v-.4863a4.8262,4.8262,0,0,0-.0991-1.0713,1.6394,1.6394,0,0,0-.2969-.666,1.0557,1.0557,0,0,0-.5132-.3418,2.5924,2.5924,0,0,0-.7646-.0986q-.1985,0-.4233.0176a4.4033,4.4033,0,0,0-.4946.0723l-.36,1.26q-.252.8643-.9717.8643a.8243.8243,0,0,1-.5942-.207.8746.8746,0,0,1-.252-.5674,2.7028,2.7028,0,0,1,1.188-1.6465,4.11,4.11,0,0,1,2.3218-.6211,2.7836,2.7836,0,0,1,2.1064.72,3.5151,3.5151,0,0,1,.6836,2.4482v3.8516q0,1.0635.5942,1.0625a.7065.7065,0,0,0,.3779-.1,2.239,2.239,0,0,0,.2881-.2061l.09-.1084Zm-3.24-3.8877q-.468.126-.9092.2705t-.729.252a4.686,4.686,0,0,0-.9448.4766,2.3655,2.3655,0,0,0-.5312.4775,1.2246,1.2246,0,0,0-.2339.4678,1.95,1.95,0,0,0-.0537.4316,1.4,1.4,0,0,0,.0986.5762,1.521,1.521,0,0,0,.2432.3779,1.4821,1.4821,0,0,0,1.0981.4141,1.8492,1.8492,0,0,0,.4141-.0449,1.647,1.647,0,0,0,.4141-.1621,5.205,5.205,0,0,0,.4858-.3057q.27-.189.6479-.459Z"/><path d="M145.4541,99.2988a4.6164,4.6164,0,0,1,1.1611-1.6836,2.1679,2.1679,0,0,1,1.4307-.6025,1.547,1.547,0,0,1,.7651.207.93.93,0,0,1,.459.6748.8853.8853,0,0,1-.3062.7109,1.1516,1.1516,0,0,1-.7739.2607,1.4531,1.4531,0,0,1-1.0259-.4492l-.126-.126a3.9137,3.9137,0,0,0-.936.98,5.325,5.325,0,0,0-.63,1.377V102.07q0,.5947.0088,1.3867t.0269,1.4756l1.4761.27v.6484h-4.356v-.6484l1.2959-.2334q.0183-.6841.0273-1.4854t.0088-1.4131v-.918q0-.7368-.0181-1.2236t-.0361-1.0264l-1.4219-.1621v-.63l2.502-1.0977.27.18Z"/><path d="M151.7358,101.4941a3.9066,3.9066,0,0,0,.8281,2.5742,2.9395,2.9395,0,0,0,3.5278.54,4.5218,4.5218,0,0,0,1.062-.9355l.4321.3418a3.72,3.72,0,0,1-1.3408,1.5391,3.8015,3.8015,0,0,1-2.1152.5664,4.2831,4.2831,0,0,1-1.6558-.3057,3.4268,3.4268,0,0,1-1.26-.8906,4.1279,4.1279,0,0,1-.81-1.4131,5.621,5.621,0,0,1-.2876-1.8545,5.2745,5.2745,0,0,1,.3237-1.8809,4.4661,4.4661,0,0,1,.8911-1.4668,4.0819,4.0819,0,0,1,1.3228-.9541,3.8508,3.8508,0,0,1,1.6021-.3418,3.7159,3.7159,0,0,1,1.3232.2344,2.9689,2.9689,0,0,1,1.0708.6836,3.2449,3.2449,0,0,1,.7109,1.0977,3.8784,3.8784,0,0,1,.2612,1.458,3.9816,3.9816,0,0,1-.0361.5586,3.6639,3.6639,0,0,1-.09.4492Zm3.312-.7734a1.0739,1.0739,0,0,0,.8643-.2705,1.03,1.03,0,0,0,.2158-.666,1.8123,1.8123,0,0,0-.1528-.7285,2.0792,2.0792,0,0,0-.4141-.6211,2.0185,2.0185,0,0,0-.6118-.4316,1.8,1.8,0,0,0-.7651-.1621,2.22,2.22,0,0,0-.7832.1523,1.9814,1.9814,0,0,0-.7378.5049,3.1252,3.1252,0,0,0-.5762.8994,4.2408,4.2408,0,0,0-.3149,1.3232Z"/><path d="M172.8857,102.6465l-.126,3.2041h-9.3242v-.7383l1.6563-.1973q.0352-1.1353.0356-2.2959V97.0664q0-1.1514-.0356-2.3223l-1.6562-.1973v-.7383h8.9639l.126,3.2041H171.5l-.396-2.2861h-4.248q-.0359,1.1338-.0361,2.2676V99.28h2.6821l.252-1.7275h.81v4.2656h-.81l-.2339-1.6914h-2.7v2.4746q0,1.1792.0361,2.3486h4.6079l.396-2.3037Z"/><path d="M183.9014,105.2021v.6484h-4.1763v-.6484l1.332-.252q.0176-.665.0269-1.458.0088-.791.0093-1.4219v-1.584a3.12,3.12,0,0,0-.3423-1.71,1.288,1.288,0,0,0-1.1338-.4854,2.8688,2.8688,0,0,0-1.2148.27,5.5061,5.5061,0,0,0-1.269.8643V102.07q0,.5947.0088,1.3955t.0269,1.4844l1.26.252v.6484h-4.1763v-.6484l1.332-.252q.0183-.6826.0273-1.4756t.0088-1.4043v-.918q0-.7368-.0181-1.2236t-.0361-1.0264L174.145,98.74v-.63l2.502-1.0977.27.18.144,1.458a5.4588,5.4588,0,0,1,1.521-1.1875,3.6617,3.6617,0,0,1,1.7192-.45,2.0115,2.0115,0,0,1,1.7368.7734,4.4253,4.4253,0,0,1,.5669,2.5566V102.07q0,.6313.0093,1.4131.0088.7837.0269,1.4668Z"/><path d="M193.37,98.3809h-1.7461a3.1061,3.1061,0,0,1,.396,1.584,2.9689,2.9689,0,0,1-.252,1.251,2.7254,2.7254,0,0,1-.6841.9268,2.9567,2.9567,0,0,1-1.0259.5762,4.082,4.082,0,0,1-1.2964.1982,5.0762,5.0762,0,0,1-.6836-.0449,4.3148,4.3148,0,0,1-.63-.1357,2.274,2.274,0,0,0-.2427.4229,1.1688,1.1688,0,0,0-.0991.4775.7663.7663,0,0,0,.3062.6475,1.88,1.88,0,0,0,1.0977.2344h1.8721a3.702,3.702,0,0,1,2.187.5225,1.7222,1.7222,0,0,1,.7109,1.4756A2.5491,2.5491,0,0,1,193,107.6689a2.8615,2.8615,0,0,1-.8462.9893,4.5057,4.5057,0,0,1-1.4038.6934,6.654,6.654,0,0,1-1.9712.2607,7.4089,7.4089,0,0,1-1.6558-.1621,3.9408,3.9408,0,0,1-1.1611-.44,1.9537,1.9537,0,0,1-.6841-.6572,1.5258,1.5258,0,0,1-.2251-.792q0-1.1162,1.6743-1.9619a1.6087,1.6087,0,0,1-.7471-.6035,1.47,1.47,0,0,1-.2251-.7822,1.5152,1.5152,0,0,1,.2969-.9,3.6135,3.6135,0,0,1,.855-.81,2.7522,2.7522,0,0,1-1.0078-.99,3.3013,3.3013,0,0,1-.126-2.7988,2.7324,2.7324,0,0,1,.6841-.9277,2.9548,2.9548,0,0,1,1.0259-.5752,4.0811,4.0811,0,0,1,1.2959-.1982,3.4713,3.4713,0,0,1,2.3042.7383l2.0161-.6846.27.1807Zm-5.2383,7.4873a4.6264,4.6264,0,0,1-.918-.09,3.9059,3.9059,0,0,0-.4858.7021,1.6352,1.6352,0,0,0-.18.7744,1.2559,1.2559,0,0,0,.6479,1.1787,3.4,3.4,0,0,0,1.6919.3691,4.0128,4.0128,0,0,0,2.2593-.5225,1.5073,1.5073,0,0,0,.7651-1.26,1.1574,1.1574,0,0,0-.0811-.4229.8856.8856,0,0,0-.2881-.3691,1.5986,1.5986,0,0,0-.5493-.2607,3.1466,3.1466,0,0,0-.8638-.1Zm.5762-3.6719a1.61,1.61,0,0,0,1.35-.63,2.6075,2.6075,0,0,0,.4858-1.6377,2.5687,2.5687,0,0,0-.45-1.5752,1.52,1.52,0,0,0-1.2959-.6025,1.5925,1.5925,0,0,0-1.3408.6211,2.5667,2.5667,0,0,0-.4771,1.61,2.6425,2.6425,0,0,0,.45,1.6025A1.4911,1.4911,0,0,0,188.7075,102.1963Z"/><path d="M198.5713,105.2021v.6484H194.395v-.6484l1.35-.252q.0176-.6826.0269-1.4844t.0093-1.3955v-.8994q0-.7383-.0181-1.2334t-.0361-1.0352l-1.4219-.1621v-.63l2.772-1.0977.27.18-.0542,2.4482v2.43q0,.5947.0093,1.3955t.0269,1.4844ZM196.519,95.0869a1.2056,1.2056,0,0,1-.8638-.3242,1.1118,1.1118,0,0,1-.3423-.8457,1.0859,1.0859,0,0,1,.3423-.8379,1.3442,1.3442,0,0,1,1.728,0,1.0872,1.0872,0,0,1,.3418.8379,1.1132,1.1132,0,0,1-.3418.8457A1.2076,1.2076,0,0,1,196.519,95.0869Z"/><path d="M209.5151,105.2021v.6484h-4.1763v-.6484l1.332-.252q.0176-.665.0269-1.458.0088-.791.0093-1.4219v-1.584a3.12,3.12,0,0,0-.3423-1.71,1.288,1.288,0,0,0-1.1338-.4854,2.8688,2.8688,0,0,0-1.2148.27,5.5061,5.5061,0,0,0-1.269.8643V102.07q0,.5947.0088,1.3955t.0269,1.4844l1.26.252v.6484h-4.1763v-.6484l1.332-.252q.0183-.6826.0273-1.4756t.0088-1.4043v-.918q0-.7368-.0181-1.2236t-.0361-1.0264l-1.4219-.1621v-.63l2.502-1.0977.27.18.144,1.458a5.4588,5.4588,0,0,1,1.521-1.1875,3.6617,3.6617,0,0,1,1.7192-.45,2.0115,2.0115,0,0,1,1.7368.7734,4.4253,4.4253,0,0,1,.5669,2.5566V102.07q0,.6313.0093,1.4131.0088.7837.0269,1.4668Z"/><path d="M212.5205,101.4941a3.9066,3.9066,0,0,0,.8281,2.5742,2.9395,2.9395,0,0,0,3.5278.54,4.5218,4.5218,0,0,0,1.062-.9355l.4321.3418a3.72,3.72,0,0,1-1.3408,1.5391,3.8015,3.8015,0,0,1-2.1152.5664,4.2831,4.2831,0,0,1-1.6558-.3057,3.4268,3.4268,0,0,1-1.26-.8906,4.1279,4.1279,0,0,1-.81-1.4131,5.621,5.621,0,0,1-.2876-1.8545,5.2745,5.2745,0,0,1,.3237-1.8809,4.4661,4.4661,0,0,1,.8911-1.4668,4.0819,4.0819,0,0,1,1.3228-.9541,3.8508,3.8508,0,0,1,1.6021-.3418,3.7159,3.7159,0,0,1,1.3232.2344,2.9689,2.9689,0,0,1,1.0708.6836,3.2449,3.2449,0,0,1,.7109,1.0977,3.8784,3.8784,0,0,1,.2612,1.458,3.9816,3.9816,0,0,1-.0361.5586,3.6639,3.6639,0,0,1-.09.4492Zm3.312-.7734a1.0739,1.0739,0,0,0,.8643-.2705,1.03,1.03,0,0,0,.2158-.666,1.8123,1.8123,0,0,0-.1528-.7285,2.0792,2.0792,0,0,0-.4141-.6211,2.0185,2.0185,0,0,0-.6118-.4316,1.8,1.8,0,0,0-.7651-.1621,2.22,2.22,0,0,0-.7832.1523,1.9814,1.9814,0,0,0-.7378.5049,3.1252,3.1252,0,0,0-.5762.8994,4.2408,4.2408,0,0,0-.3149,1.3232Z"/><path d="M221.7007,101.4941a3.9066,3.9066,0,0,0,.8281,2.5742,2.9395,2.9395,0,0,0,3.5278.54,4.5218,4.5218,0,0,0,1.062-.9355l.4321.3418a3.72,3.72,0,0,1-1.3408,1.5391,3.8015,3.8015,0,0,1-2.1152.5664,4.2831,4.2831,0,0,1-1.6558-.3057,3.4268,3.4268,0,0,1-1.26-.8906,4.1279,4.1279,0,0,1-.81-1.4131,5.621,5.621,0,0,1-.2876-1.8545,5.2745,5.2745,0,0,1,.3237-1.8809,4.4661,4.4661,0,0,1,.8911-1.4668,4.0819,4.0819,0,0,1,1.3228-.9541,3.8508,3.8508,0,0,1,1.6021-.3418,3.7159,3.7159,0,0,1,1.3232.2344,2.9689,2.9689,0,0,1,1.0708.6836,3.2449,3.2449,0,0,1,.7109,1.0977,3.8784,3.8784,0,0,1,.2612,1.458,3.9816,3.9816,0,0,1-.0361.5586,3.6639,3.6639,0,0,1-.09.4492Zm3.312-.7734a1.0739,1.0739,0,0,0,.8643-.2705,1.03,1.03,0,0,0,.2158-.666,1.8123,1.8123,0,0,0-.1528-.7285,2.0792,2.0792,0,0,0-.4141-.6211,2.0185,2.0185,0,0,0-.6118-.4316,1.8,1.8,0,0,0-.7651-.1621,2.22,2.22,0,0,0-.7832.1523,1.9814,1.9814,0,0,0-.7378.5049,3.1252,3.1252,0,0,0-.5762.8994,4.2408,4.2408,0,0,0-.3149,1.3232Z"/><path d="M232.0146,99.2988a4.6164,4.6164,0,0,1,1.1611-1.6836,2.1679,2.1679,0,0,1,1.4307-.6025,1.547,1.547,0,0,1,.7651.207.93.93,0,0,1,.459.6748.8853.8853,0,0,1-.3062.7109,1.1516,1.1516,0,0,1-.7739.2607,1.4531,1.4531,0,0,1-1.0259-.4492l-.126-.126a3.9137,3.9137,0,0,0-.936.98,5.325,5.325,0,0,0-.63,1.377V102.07q0,.5947.0088,1.3867t.0269,1.4756l1.4761.27v.6484h-4.356v-.6484l1.2959-.2334q.0183-.6841.0273-1.4854t.0088-1.4131v-.918q0-.7368-.0181-1.2236t-.0361-1.0264l-1.4219-.1621v-.63l2.502-1.0977.27.18Z"/><path d="M240.8345,105.2021v.6484h-4.1763v-.6484l1.35-.252q.0176-.6826.0269-1.4844t.0093-1.3955v-.8994q0-.7383-.0181-1.2334t-.0361-1.0352l-1.4219-.1621v-.63l2.772-1.0977.27.18-.0542,2.4482v2.43q0,.5947.0093,1.3955t.0269,1.4844Zm-2.0522-10.1152a1.2056,1.2056,0,0,1-.8638-.3242,1.1118,1.1118,0,0,1-.3423-.8457,1.0859,1.0859,0,0,1,.3423-.8379,1.3442,1.3442,0,0,1,1.728,0,1.0872,1.0872,0,0,1,.3418.8379,1.1132,1.1132,0,0,1-.3418.8457A1.2076,1.2076,0,0,1,238.7822,95.0869Z"/><path d="M251.7783,105.2021v.6484h-4.1763v-.6484l1.332-.252q.0176-.665.0269-1.458.0088-.791.0093-1.4219v-1.584a3.12,3.12,0,0,0-.3423-1.71,1.288,1.288,0,0,0-1.1338-.4854,2.8688,2.8688,0,0,0-1.2148.27,5.5061,5.5061,0,0,0-1.269.8643V102.07q0,.5947.0088,1.3955t.0269,1.4844l1.26.252v.6484H242.13v-.6484l1.332-.252q.0183-.6826.0273-1.4756t.0088-1.4043v-.918q0-.7368-.0181-1.2236t-.0361-1.0264L242.022,98.74v-.63l2.502-1.0977.27.18.144,1.458a5.4588,5.4588,0,0,1,1.521-1.1875,3.6617,3.6617,0,0,1,1.7192-.45,2.0115,2.0115,0,0,1,1.7368.7734,4.4253,4.4253,0,0,1,.5669,2.5566V102.07q0,.6313.0093,1.4131.0088.7837.0269,1.4668Z"/><path d="M261.2461,98.3809H259.5a3.1061,3.1061,0,0,1,.396,1.584,2.9689,2.9689,0,0,1-.252,1.251,2.7254,2.7254,0,0,1-.6841.9268,2.9567,2.9567,0,0,1-1.0259.5762,4.082,4.082,0,0,1-1.2964.1982,5.0762,5.0762,0,0,1-.6836-.0449,4.3148,4.3148,0,0,1-.63-.1357,2.274,2.274,0,0,0-.2427.4229,1.1688,1.1688,0,0,0-.0991.4775.7663.7663,0,0,0,.3062.6475,1.88,1.88,0,0,0,1.0977.2344h1.8721a3.702,3.702,0,0,1,2.187.5225,1.7222,1.7222,0,0,1,.7109,1.4756,2.5491,2.5491,0,0,1-.2788,1.1523,2.8615,2.8615,0,0,1-.8462.9893,4.5057,4.5057,0,0,1-1.4038.6934,6.654,6.654,0,0,1-1.9712.2607A7.4089,7.4089,0,0,1,255,109.45a3.9407,3.9407,0,0,1-1.1611-.44,1.9537,1.9537,0,0,1-.6841-.6572,1.5258,1.5258,0,0,1-.2251-.792q0-1.1162,1.6743-1.9619a1.6087,1.6087,0,0,1-.7471-.6035,1.47,1.47,0,0,1-.2251-.7822,1.5152,1.5152,0,0,1,.2969-.9,3.6135,3.6135,0,0,1,.855-.81,2.7522,2.7522,0,0,1-1.0078-.99,3.3013,3.3013,0,0,1-.126-2.7988,2.7324,2.7324,0,0,1,.6841-.9277,2.9548,2.9548,0,0,1,1.0259-.5752,4.0811,4.0811,0,0,1,1.2959-.1982,3.4713,3.4713,0,0,1,2.3042.7383l2.0161-.6846.27.1807Zm-5.2383,7.4873a4.6264,4.6264,0,0,1-.918-.09,3.9059,3.9059,0,0,0-.4858.7021,1.6352,1.6352,0,0,0-.18.7744,1.2559,1.2559,0,0,0,.6479,1.1787,3.4,3.4,0,0,0,1.6919.3691,4.0128,4.0128,0,0,0,2.2593-.5225,1.5073,1.5073,0,0,0,.7651-1.26,1.1574,1.1574,0,0,0-.0811-.4229.8856.8856,0,0,0-.2881-.3691,1.5986,1.5986,0,0,0-.5493-.2607,3.1466,3.1466,0,0,0-.8638-.1Zm.5762-3.6719a1.61,1.61,0,0,0,1.35-.63,2.6075,2.6075,0,0,0,.4858-1.6377,2.5687,2.5687,0,0,0-.45-1.5752,1.52,1.52,0,0,0-1.2959-.6025,1.5925,1.5925,0,0,0-1.3408.6211,2.5667,2.5667,0,0,0-.4771,1.61,2.6425,2.6425,0,0,0,.45,1.6025A1.4911,1.4911,0,0,0,256.584,102.1963Z"/><path d="M172.7744,86.4189v.4316H169.99v-.4316l.9-.168q.0117-.457.0181-.99t.0063-.93V83.73c0-.3281-.0044-.6016-.0122-.8223s-.0161-.4492-.0239-.6895L169.93,82.11v-.42l1.8481-.7314.18.1191-.0361,1.6328v1.62q0,.3955.0059.93t.0181.99Zm-1.3682-6.7441a.807.807,0,0,1-.5762-.2158.7427.7427,0,0,1-.2275-.5645.7219.7219,0,0,1,.2275-.5576.8955.8955,0,0,1,1.1523,0,.7222.7222,0,0,1,.228.5576.7431.7431,0,0,1-.228.5645A.807.807,0,0,1,171.4063,79.6748Z"/><path d="M180.07,86.4189v.4316h-2.7837v-.4316l.8877-.168q.0117-.4438.0181-.9727c.0039-.3516.0059-.668.0059-.9473V83.2744a2.08,2.08,0,0,0-.2275-1.14.8609.8609,0,0,0-.7563-.3242,1.9116,1.9116,0,0,0-.81.18,3.7081,3.7081,0,0,0-.8457.5762v1.7646q0,.3955.0059.93t.0181.99l.84.168v.4316h-2.7837v-.4316l.8877-.168c.0078-.3047.0142-.6318.0181-.9844s.0059-.6641.0059-.9355v-.6123q0-.4922-.0117-.8164t-.0239-.6836l-.9482-.1084v-.42l1.668-.7314.18.1191.0957.9727a3.6471,3.6471,0,0,1,1.0142-.792,2.4372,2.4372,0,0,1,1.146-.3,1.3414,1.3414,0,0,1,1.1582.5156,2.9483,2.9483,0,0,1,.3779,1.7041v1.1523c0,.2793.002.5938.0059.9414s.01.6738.0181.9785Z"/><path d="M94.1973,67.7783c-.0645.0361-.1309.07-.1987.1016-.0684.0332-.1274.06-.1772.0811a.2546.2546,0,0,1-.1074.0322c-.1577,0-.2363-.082-.2363-.2471a.23.23,0,0,1,.1182-.2041,27.9023,27.9023,0,0,0,3.4429-2.2666,4.2958,4.2958,0,0,0,1.7349-3.6309,5.6664,5.6664,0,0,0-.9668-2.9648,3.1925,3.1925,0,0,0-2.9-1.5254,3.7759,3.7759,0,0,0-2.4492.9287,2.6768,2.6768,0,0,0-1.1279,2.0791,3.3151,3.3151,0,0,0,.6875,2.084,3.2452,3.2452,0,0,0,2.2021,1.1172,3.11,3.11,0,0,0,1.9551-.5049,1.7415,1.7415,0,0,0,.231-.23.3648.3648,0,0,1,.2632-.1562.191.191,0,0,1,.2041.14.22.22,0,0,1-.0537.2363,3.3663,3.3663,0,0,1-.6982.5479,2.9568,2.9568,0,0,1-1.6221.4512q-2.439.0322-3.373-1.1973a4.37,4.37,0,0,1-.752-3.1641A4.7986,4.7986,0,0,1,92.14,56.1982a5.1171,5.1171,0,0,1,3.6577-1.2676,5.6149,5.6149,0,0,1,2.8359.7627,4.6788,4.6788,0,0,1,1.6221,1.7295.1451.1451,0,0,0,.1719.0967.1381.1381,0,0,0,.15-.1289,3.1761,3.1761,0,0,1,3.2549-2.417,3.2262,3.2262,0,0,1,2.1592.7891,4.6963,4.6963,0,0,1,1.3428,2.5625q.3113,1.17.87,1.1494c.15,0,.2378.06.2632.1768.0249.1191-.0342.2139-.1772.2852l-2.4277,1.1279a.1778.1778,0,0,0,.043.333,4.2208,4.2208,0,0,1,2.25,1.3906,3.91,3.91,0,0,1,.9722,2.6807q-.0432,2.4814-3.2656,4.3828a8.76,8.76,0,0,1-3.416,1.2139,6.9493,6.9493,0,0,1-3.0937-.3223,6.5317,6.5317,0,0,1-2.8306-1.9492Q95.3467,67.4229,94.1973,67.7783Zm7.1113-5.07,4.1895-1.9766a.2029.2029,0,0,0,.0967-.15.1785.1785,0,0,0-.0859-.1611,2.8668,2.8668,0,0,1-1.0957-1.8584,5.8517,5.8517,0,0,0-.73-1.708,1.2831,1.2831,0,0,0-1.2891-.5693,1.5605,1.5605,0,0,0-1.3374,1.2246,7.0287,7.0287,0,0,0-.0591,2.2021A4.5423,4.5423,0,0,1,99.88,63.3037a16.8408,16.8408,0,0,1-2.8682,2.7236,2.9469,2.9469,0,0,1,2.0088.9883,17.1021,17.1021,0,0,0,1.52,1.332,8.6773,8.6773,0,0,0,1.67,1.0205,4.0295,4.0295,0,0,0,2.2129.4023,2.7507,2.7507,0,0,0,1.9014-1.1543,2.8716,2.8716,0,0,0,.5962-1.7559,3.2788,3.2788,0,0,0-.752-2.0254,3.8692,3.8692,0,0,0-1.9121-1.3965,7.6873,7.6873,0,0,0-2.8521-.2686c-.1577.0068-.249-.0518-.2739-.1768S101.165,62.7725,101.3086,62.708Z"/><path d="M115.4346,69.3359q-.5479.4189-1.2031.9189-.6555.498-1.2139.918a.4289.4289,0,0,1-.3062.1289c-.0752-.0146-.106-.0791-.0913-.1934q0-.2256-.666-.8594a5.4,5.4,0,0,1-1.6865-4.2754,4.8475,4.8475,0,0,1,2.0947-3.8135,12.8184,12.8184,0,0,0,1.1655-.999,5.4916,5.4916,0,0,0,.9614-1.2783c.1143-.2217.272-.2295.4727-.0215a6.193,6.193,0,0,0,3.2549,2.1807q.5156.0967.1074.4082a1.2066,1.2066,0,0,0-.5479.9023v.0215l.0322,4.9092a.6887.6887,0,0,0,.36.6768q.36.1831.7788-.2793c.1074-.1221.2095-.1523.3062-.0918s.0981.1709.0054.3281q-.3867.58-.7466,1.1387a7.1011,7.1011,0,0,0-.6069,1.16l-.0107.0107q-.15.2476-.3643,0a.5665.5665,0,0,0-.2778-.1719,1.96,1.96,0,0,1-1.5391-1.6221.2881.2881,0,0,0-.1069-.1289A.28.28,0,0,0,115.4346,69.3359Zm.1182-6.3271a4.0209,4.0209,0,0,1-1.5576-1.0312q-.43-.5156-.6875-.0967a5.368,5.368,0,0,0-.8916,3.749q.3435,2.9326,2.0625,3.62a.0334.0334,0,0,1,.0215.0107q.44.1392,1.0635-.5264a.22.22,0,0,0,.043-.1182c-.0073-.1074-.0107-.2754-.0107-.5049l.0967-4.9307A.171.171,0,0,0,115.5527,63.0088Z"/><path d="M123.7061,70.6895a.4608.4608,0,0,0-.2739-.3867,2.9107,2.9107,0,0,1-.4243-.2578,4.6611,4.6611,0,0,1-1.7456-2.0459,7.4475,7.4475,0,0,1-.5747-2.5625,5.6015,5.6015,0,0,1,1.6543-4.6621,5.371,5.371,0,0,1,1.4609-.93A11.5191,11.5191,0,0,1,125.5,59.26q.2358-.0425.4082.2793,1.2671,2.03,1.9658,1.5039.6013-.397.5908-.6982a6.8491,6.8491,0,0,0-.2847-2.3418,5.6523,5.6523,0,0,0-.8-1.5684q-.1611-.2256-.0107-.3437t.3545.1074a5.4735,5.4735,0,0,1,.7627,1.2676.1518.1518,0,0,0,.14.1182.1946.1946,0,0,0,.1826-.0967,4.0887,4.0887,0,0,1,1.96-1.7246,5.3606,5.3606,0,0,1,2.7124-.4883c0,.0068.0464.0156.14.0273.0928.01.14.082.14.2148s-.09.1914-.2686.1768a2.9684,2.9684,0,0,0-1.9658.5156,2.5993,2.5993,0,0,0-.8271,2.2773l.0215,2.4063a.1634.1634,0,0,0,.0859.1553.1552.1552,0,0,0,.1719-.0049,6.1912,6.1912,0,0,0,1.1978-.6768,9.9721,9.9721,0,0,0,1.09-.9023q.397-.397.4512.14a1.2112,1.2112,0,0,0,.333.709q.29.312.5371.6123a6.5659,6.5659,0,0,1,1.4932,3.9961,7.5906,7.5906,0,0,1-2.2236,5.58,26.773,26.773,0,0,1-4.1787,3.7012q-.2688.2036-.3867.07t.0752-.2959a40.9272,40.9272,0,0,0,3.0615-2.9111q1.5359-1.6113,1.3965-5.06a10.9754,10.9754,0,0,0-.4136-2.5518,4.08,4.08,0,0,0-1.2729-1.9922,1.1526,1.1526,0,0,0-1.3105.0107.1489.1489,0,0,0-.0967.1611l.043,6.4883q0,.87.6982.72a1.5016,1.5016,0,0,0,.5156-.3437q.1714-.1392.2954-.0381c.082.0684.0767.1523-.0161.2529q-.5376.5376-1.0259,1.0791a11.2686,11.2686,0,0,0-.8647,1.08q-.1289.2578-.3867,0a6.5823,6.5823,0,0,0-2.084-1.5469c-.1289-.0576-.1919-.1221-.188-.1934a.1856.1856,0,0,1,.1343-.1611q.687-.2358.6768-1.418l-.0215-6.0371q-.011-.3442-.2686-.1611a7.4019,7.4019,0,0,0-1.4072,1.8691q-.1289.2256-.3867,0a10.6576,10.6576,0,0,1-2.4277-2.7607q-.1077-.2256-.3867-.0645a2.57,2.57,0,0,0-.9023,1.998,8.8049,8.8049,0,0,0,.0859,2.9q.5046,2.4814,1.751,3.18a2.8025,2.8025,0,0,0,2.4922.2148c.15-.0713.2432-.0625.2793.0264a.1405.1405,0,0,1-.0859.1992q-.87.4189-1.66.8916a12.1421,12.1421,0,0,0-1.4126.9775.3351.3351,0,0,1-.3223.0752C123.7559,70.8252,123.7061,70.7686,123.7061,70.6895Z"/><path d="M139.916,71.1514a.4608.4608,0,0,0-.2739-.3867,2.9107,2.9107,0,0,1-.4243-.2578,4.6528,4.6528,0,0,1-1.7456-2.0469,7.4319,7.4319,0,0,1-.5747-2.5615,5.6015,5.6015,0,0,1,1.6543-4.6621,5.3451,5.3451,0,0,1,1.4609-.9287,11.4109,11.4109,0,0,1,1.6973-.5859q.2681-.0542.3975.2686l1.5469,3.6309q.1069.29-.0752.3652h-.0215l-4.4043,1.708a.1791.1791,0,0,0-.1074.2041q.5259,2.3848,1.7617,3.0557a2.8109,2.8109,0,0,0,2.46.1992q.2146-.0967.2739.0322a.1316.1316,0,0,1-.0806.1934q-.87.4409-1.66.9023a11.2237,11.2237,0,0,0-1.4126.9668.4239.4239,0,0,1-.2847.043C139.9785,71.2764,139.916,71.23,139.916,71.1514Zm-.999-6.0693a.185.185,0,0,0,.0752.1338.15.15,0,0,0,.1611.0059l2.2881-.8594a.1534.1534,0,0,0,.0967-.2256l-1.3105-3.2119q-.0967-.2358-.3867-.0645a2.2774,2.2774,0,0,0-.8486,1.665A8.7675,8.7675,0,0,0,138.917,65.082Z"/><path d="M144.7822,56.7354a.1876.1876,0,0,1-.0054-.29q.134-.1392.3384.0537.2468.3.51.6445a4.4763,4.4763,0,0,1,.4458.709.1678.1678,0,0,0,.1548.1074.1714.1714,0,0,0,.1553-.0859,4.8194,4.8194,0,0,1,1.7554-1.7344,4.4234,4.4234,0,0,1,2.4355-.6182c.1646.0068.25.0771.2578.21s-.0791.1982-.2578.1982a2.3578,2.3578,0,0,0-1.7026.6123,3.0559,3.0559,0,0,0-.6392,2.2344l-.0107,9.3027q0,.3442.1611.44l.7734.44q.2681.0967.7412-.5156a.205.205,0,0,1,.29-.07q.1714.0923-.0107.2852a11.1887,11.1887,0,0,0-1.7295,2.4707q-.1289.2256-.3857,0a5.1343,5.1343,0,0,0-1.08-1.0684,4.1433,4.1433,0,0,0-1.5635-.5967q-.1721-.022-.1772-.1553a.1813.1813,0,0,1,.1128-.1885,1.1511,1.1511,0,0,0,.4888-.36,1.3685,1.3685,0,0,0,.22-.875L146.05,60.667a7.1891,7.1891,0,0,0-.333-2.4385A4.1152,4.1152,0,0,0,144.7822,56.7354Z"/><path d="M154.3965,71.0439q-.1611.2681-.3975,0a7.143,7.143,0,0,0-3.5879-2.2129c-.1289-.0361-.1914-.0928-.188-.1719a.1894.1894,0,0,1,.1235-.1719q.687-.2358.6875-1.4287L151.002,61.58a.6706.6706,0,0,0-.0215-.1885.1466.1466,0,0,1,.0161-.1289.1812.1812,0,0,1,.145-.0693,11.687,11.687,0,0,0,5.0811-1.5576.2328.2328,0,0,1,.1772-.0322c.0537.0146.084.0645.0913.15a4.6291,4.6291,0,0,0,1.1387,2.2773,5.2557,5.2557,0,0,1,.8755,1.7617,4.83,4.83,0,0,1,.2739,1.8584,3.562,3.562,0,0,1-.5693,1.5625,7.9762,7.9762,0,0,1-1.0527,1.2734,7.7156,7.7156,0,0,1-1.5039,1.16A3.1906,3.1906,0,0,0,154.3965,71.0439ZM153.2256,61.44l.043,6.1875a.2308.2308,0,0,0,.1289.2256l1.9014,1.1816a.3524.3524,0,0,0,.5156-.1074,3.3916,3.3916,0,0,0,.9238-2.6318,4.25,4.25,0,0,0-.3706-1.708,5.4451,5.4451,0,0,0-.8647-1.332,5.56,5.56,0,0,1-1.2783-2.1055.1843.1843,0,0,0-.0967-.0908.1484.1484,0,0,0-.14-.0059c-.2148.0791-.43.1465-.6445.2041A.1743.1743,0,0,0,153.2256,61.44Z"/><path d="M163.5488,62.7939l-.0107,5.21q0,.3442.1719.44l.7734.4512q.2468.1509.752-.5264a.1964.1964,0,0,1,.2686-.06c.1074.0547.1074.1455,0,.2744a11.1887,11.1887,0,0,0-1.7295,2.4707q-.1831.2476-.3984,0a6.3693,6.3693,0,0,0-1.1279-1.0635,4.53,4.53,0,0,0-1.5352-.6016c-.1289-.0361-.1934-.0928-.1934-.1719a.182.182,0,0,1,.14-.1719q.7192-.1187.709-1.2354V63.2666q0-1.0957-.4082-1.3428-.4731-.312-.7734.2256-.1187.2256-.2686.1074t.0107-.376q.3113-.4937.5962-1.01T161.11,59.84a.2979.2979,0,0,1,.4844-.1182,3.1932,3.1932,0,0,1,1.9,1.9336.1842.1842,0,0,0,.1289.1348.1561.1561,0,0,0,.1719-.07l1.6543-1.9014a.19.19,0,0,1,.15-.06.1752.1752,0,0,1,.14.0918l1.1279,2.1592a.1708.1708,0,0,1-.0215.1826l-1.2891,1.5469a.1982.1982,0,0,1-.1665.0645.14.14,0,0,1-.1235-.0967l-.87-1.6113a.1976.1976,0,0,0-.1343-.0811.1851.1851,0,0,0-.1665.06l-.5049.6123A.1446.1446,0,0,0,163.5488,62.7939Z"/><path d="M177.9219,71.0439q-.1611.2681-.3975,0a7.143,7.143,0,0,0-3.5879-2.2129c-.1289-.0361-.1914-.0928-.188-.1719a.1894.1894,0,0,1,.1235-.1719q.687-.2358.6875-1.4287l-.0322-5.4785a.6706.6706,0,0,0-.0215-.1885.1466.1466,0,0,1,.0161-.1289.1812.1812,0,0,1,.145-.0693,11.687,11.687,0,0,0,5.0811-1.5576.2328.2328,0,0,1,.1772-.0322c.0537.0146.084.0645.0913.15a4.6291,4.6291,0,0,0,1.1387,2.2773,5.2557,5.2557,0,0,1,.8755,1.7617,4.83,4.83,0,0,1,.2739,1.8584,3.562,3.562,0,0,1-.5693,1.5625,7.9762,7.9762,0,0,1-1.0527,1.2734,7.7156,7.7156,0,0,1-1.5039,1.16A3.1906,3.1906,0,0,0,177.9219,71.0439ZM176.751,61.44l.043,6.1875a.2308.2308,0,0,0,.1289.2256l1.9014,1.1816a.3524.3524,0,0,0,.5156-.1074,3.3916,3.3916,0,0,0,.9238-2.6318,4.25,4.25,0,0,0-.3706-1.708,5.4451,5.4451,0,0,0-.8647-1.332A5.56,5.56,0,0,1,177.75,61.15a.1843.1843,0,0,0-.0967-.0908.1484.1484,0,0,0-.14-.0059c-.2148.0791-.43.1465-.6445.2041A.1743.1743,0,0,0,176.751,61.44Z"/><path d="M186.376,59.99h1.8584a.1522.1522,0,0,1,.1719.1719v.666a.1522.1522,0,0,1-.1719.1719h-1.3a.1775.1775,0,0,0-.1343.0645.1246.1246,0,0,0-.0376.1289,9.0735,9.0735,0,0,1-.0322,1.6758L185.6455,74.17c-.0288.2432-.1006.3672-.2148.37s-.1865-.127-.2148-.3916q-.2688-3.2871-.5479-6.5635t-.5908-6.5635h-1.2461a.1455.1455,0,0,1-.1665-.1553c-.0034-.1045.0376-.1631.1235-.1777a1.8079,1.8079,0,0,0,1.16-.72,2.2489,2.2489,0,0,0,.3975-1.5684,5.49,5.49,0,0,1,.3975-2.5615q.4724-1.0371,1.8906-.5752.7837.2681,1.4341.4678.65.1978.9185-.2207.1289-.2256.2363-.1934t-.0322.4189a3.057,3.057,0,0,1-1.0044,1.6494q-.6182.4233-1.9175-.1992-1.2568-.58-1.4771.5742t.4673,1.51a3.4354,3.4354,0,0,1,.87.6016A.3477.3477,0,0,0,186.376,59.99Z"/><path d="M209.5146,56.37q.2468-.3.5-.1016t-.0376.4775q-.8167.7734-1.3589,1.2725a5.4334,5.4334,0,0,1-1.0044.7578,2.1593,2.1593,0,0,1-1.6382.2852,11.834,11.834,0,0,1-2.2612-.94,6.9783,6.9783,0,0,0-2.7715-.833,3.0993,3.0993,0,0,0-2.3311.9834,4.9427,4.9427,0,0,0-1.38,2.0459,6.4933,6.4933,0,0,0-.2847,2.1221,5.4975,5.4975,0,0,0,2.2935,4.3135,8.258,8.258,0,0,0,5.4839,1.6484A7.8366,7.8366,0,0,0,208.666,67.37a2.74,2.74,0,0,0,1.3857-2.9541,1.6764,1.6764,0,0,0-1.6113-1.6592,5.1171,5.1171,0,0,0-3.0723.9717q-2.2134,1.4077-3.2119,1.2461t-2.7715-2.6c-.1436-.1865-.147-.3184-.0107-.3975s.2686-.0215.3975.1719a1.2851,1.2851,0,0,0,1.66.5742,15.21,15.21,0,0,0,2.24-1.09q.8269-.4614,1.5576-.8437a2.6417,2.6417,0,0,1,1.8584-.1123,5.1739,5.1739,0,0,1,2.1,1.1494,4.1281,4.1281,0,0,1,1.3481,2.2344,4.021,4.021,0,0,1-.043,2.1484,6.9848,6.9848,0,0,1-.8271,1.74,6.8077,6.8077,0,0,1-2.5728,2.2988,7.8261,7.8261,0,0,1-3.69.8486,8.8156,8.8156,0,0,1-5.6289-2.0518,6.6944,6.6944,0,0,1-2.5029-5.6719q.0857-5.124,7.67-8.1533a.8954.8954,0,0,1,.7627.043q3.33,1.6436,4.3882,1.6113A1.7988,1.7988,0,0,0,209.5146,56.37Z"/><path d="M215.0039,71.1621a.4608.4608,0,0,0-.2739-.3867,2.9107,2.9107,0,0,1-.4243-.2578,4.6611,4.6611,0,0,1-1.7456-2.0459,7.4475,7.4475,0,0,1-.5747-2.5625,5.6015,5.6015,0,0,1,1.6543-4.6621,5.371,5.371,0,0,1,1.4609-.93,11.5191,11.5191,0,0,1,1.6973-.585c.1572-.0283.29.0605.3975.2686l1.2568,2.5352q.15.312-.0752.3545a3.4814,3.4814,0,0,0-1.45.5586q-.301.1934-.4941-.1934l-1.1172-2.32q-.1077-.2256-.3867-.0645a2.57,2.57,0,0,0-.9023,1.998,8.8049,8.8049,0,0,0,.0859,2.9q.5046,2.4814,1.751,3.18a2.8025,2.8025,0,0,0,2.4922.2148c.1074-.05.1895-.043.2471.0215.0571.0928.0391.1611-.0537.2041q-.87.4409-1.66.9023a11.2237,11.2237,0,0,0-1.4126.9668.4239.4239,0,0,1-.2847.043C215.0664,71.2871,215.0039,71.2412,215.0039,71.1621Z"/><path d="M220.9229,68.3262l-.0752-5.8867a.7463.7463,0,0,0-.0645-.333q-.2578-.4189-.44-.2041l-.43.44q-.1721.1934-.3276.043t.0483-.4189a13.5836,13.5836,0,0,0,.8486-1.1816q.3757-.59.7734-1.1709c.1143-.1357.2471-.1328.3975.0107a11.4268,11.4268,0,0,0,.8809.9619,6.4713,6.4713,0,0,0,1.2246.875c.15.0576.2163.125.1987.2041a.1508.1508,0,0,1-.145.1289,1.1858,1.1858,0,0,0-.4941.37,1.3952,1.3952,0,0,0-.2148.876V67.585q0,1.0957.4082,1.3428a.5043.5043,0,0,0,.7734-.2363c.0713-.1357.1592-.167.2632-.0908.1035.0742.1021.1982-.0054.37q-.3223.5054-.6016,1.0146-.28.5112-.5693,1.0156a.3424.3424,0,0,1-.5049.1289,3.7657,3.7657,0,0,1-1.4556-1.1279A2.7564,2.7564,0,0,1,220.9229,68.3262Zm1.5576-12.751q1.1924,0,1.085,1.1494a1.9082,1.9082,0,0,1-.7251,1.165,1.792,1.792,0,0,1-1.0474.5752q-.3867,0-.5908-.6123a2.825,2.825,0,0,1-.1611-1.1279,1.0765,1.0765,0,0,1,.478-.8213A1.59,1.59,0,0,1,222.48,55.5752Z"/><path d="M228.8076,71.1514a.4608.4608,0,0,0-.2739-.3867,2.9107,2.9107,0,0,1-.4243-.2578,4.6528,4.6528,0,0,1-1.7456-2.0469,7.4319,7.4319,0,0,1-.5747-2.5615,5.6015,5.6015,0,0,1,1.6543-4.6621,5.3451,5.3451,0,0,1,1.4609-.9287,11.4109,11.4109,0,0,1,1.6973-.5859q.2681-.0542.3975.2686l1.5469,3.6309q.1069.29-.0752.3652h-.0215l-4.4043,1.708a.1791.1791,0,0,0-.1074.2041q.5259,2.3848,1.7617,3.0557a2.8109,2.8109,0,0,0,2.46.1992q.2146-.0967.2739.0322a.1316.1316,0,0,1-.0806.1934q-.87.4409-1.66.9023a11.2237,11.2237,0,0,0-1.4126.9668.4239.4239,0,0,1-.2847.043C228.87,71.2764,228.8076,71.23,228.8076,71.1514Zm-.999-6.0693a.185.185,0,0,0,.0752.1338.15.15,0,0,0,.1611.0059l2.2881-.8594a.1534.1534,0,0,0,.0967-.2256l-1.3105-3.2119q-.0967-.2358-.3867-.0645a2.2774,2.2774,0,0,0-.8486,1.665A8.7674,8.7674,0,0,0,227.8086,65.082Z"/><path d="M237.4014,66.9727q-.011,1.73.6445,1.998a.17.17,0,0,1,.0752.1455.1437.1437,0,0,1-.0752.1338,5.3757,5.3757,0,0,0-1.5684,1.9443.194.194,0,0,1-.3223,0,5.0259,5.0259,0,0,0-1.6328-1.9336.1551.1551,0,0,1-.0645-.14.1743.1743,0,0,1,.0752-.15q.698-.2681.6982-1.998V63.4063q0-1.0957-.4082-1.3428-.4731-.312-.7734.2256-.1187.2256-.2686.1074t.0107-.376q.3113-.4937.5962-1.01t.5854-1.0312a.3075.3075,0,0,1,.4834-.1289l.0107.0107a3.2878,3.2878,0,0,1,1.8906,1.9443.1531.1531,0,0,0,.1069.14.1974.1974,0,0,0,.1719-.043q.5889-.4937,1.2109-1.042a3.4718,3.4718,0,0,0,.8467-1.01q.1179-.28.3857.0107.6431.6768,1.0986,1.0742a3.2652,3.2652,0,0,0,1.55.5908c.1289.0283.1948.084.1987.166a.16.16,0,0,1-.1343.167,1.1858,1.1858,0,0,0-.4941.37,1.3952,1.3952,0,0,0-.2148.876v4.5439q0,1.0957.4082,1.3428.4724.29.7627-.2363c.0786-.1357.17-.167.2739-.0908.1035.0742.1021.1982-.0054.37q-.3223.5054-.6069,1.0146-.2849.5112-.5747,1.0156a.3269.3269,0,0,1-.4824.14,3.006,3.006,0,0,1-1.9453-2.8037l.0107-5.5q0-.3223-.1611-.4189h-.0107v-.0215l-.9131-.752a.21.21,0,0,0-.2471-.0107l-1.1172.87a.1563.1563,0,0,0-.0752.1289Z"/><path d="M247.8535,71.1621a.4608.4608,0,0,0-.2739-.3867,2.9107,2.9107,0,0,1-.4243-.2578,4.6611,4.6611,0,0,1-1.7456-2.0459,7.4475,7.4475,0,0,1-.5747-2.5625,5.6015,5.6015,0,0,1,1.6543-4.6621,5.371,5.371,0,0,1,1.4609-.93,11.5191,11.5191,0,0,1,1.6973-.585c.1572-.0283.29.0605.3975.2686l1.2568,2.5352q.15.312-.0752.3545a3.4814,3.4814,0,0,0-1.45.5586q-.301.1934-.4941-.1934l-1.1172-2.32q-.1077-.2256-.3867-.0645a2.57,2.57,0,0,0-.9023,1.998,8.8049,8.8049,0,0,0,.0859,2.9q.5046,2.4814,1.751,3.18a2.8025,2.8025,0,0,0,2.4922.2148c.1074-.05.1895-.043.2471.0215.0571.0928.0391.1611-.0537.2041q-.87.4409-1.66.9023a11.2237,11.2237,0,0,0-1.4126.9668.4239.4239,0,0,1-.2847.043C247.916,71.2871,247.8535,71.2412,247.8535,71.1621Z"/><path d="M255.6523,71.1514a.4608.4608,0,0,0-.2739-.3867,2.9107,2.9107,0,0,1-.4243-.2578,4.6528,4.6528,0,0,1-1.7456-2.0469,7.4319,7.4319,0,0,1-.5747-2.5615,5.6015,5.6015,0,0,1,1.6543-4.6621,5.3451,5.3451,0,0,1,1.4609-.9287,11.4109,11.4109,0,0,1,1.6973-.5859q.2681-.0542.3975.2686l1.5469,3.6309q.1069.29-.0752.3652h-.0215l-4.4043,1.708a.1791.1791,0,0,0-.1074.2041q.5259,2.3848,1.7617,3.0557a2.8109,2.8109,0,0,0,2.46.1992q.2146-.0967.2739.0322a.1316.1316,0,0,1-.0806.1934q-.87.4409-1.66.9023a11.2237,11.2237,0,0,0-1.4126.9668.4239.4239,0,0,1-.2847.043C255.7148,71.2764,255.6523,71.23,255.6523,71.1514Zm-.999-6.0693a.185.185,0,0,0,.0752.1338.15.15,0,0,0,.1611.0059l2.2881-.8594a.1534.1534,0,0,0,.0967-.2256l-1.3105-3.2119q-.0967-.2358-.3867-.0645a2.2774,2.2774,0,0,0-.8486,1.665A8.7675,8.7675,0,0,0,254.6533,65.082Z"/><path d="M39.1914,42.0146a4.6686,4.6686,0,0,1-1.582-1.0781,3.5961,3.5961,0,0,1-.4687-1.98q0-.1641-.1113-.1992a.2022.2022,0,0,0-.2168.082q-.4922.5273-.99,1.0488t-.99,1.0488q-2.2969,2.3906-4.8164-.293a4.5471,4.5471,0,0,0-1.7344-1.2246,1.5989,1.5989,0,0,0-1.6641.416q-.2109.1641-.3574,0t.0762-.3633l2.9648-2.4961.0117-.0117q1.4883-1.43,1.0957-2.49a6.202,6.202,0,0,0-1.4121-2.1152A7.7254,7.7254,0,0,1,27.5313,30.22a2.9,2.9,0,0,1,.34-2.83,4.3054,4.3054,0,0,1,1.957-1.7754,4.8892,4.8892,0,0,1,2.1328-.51,2.0121,2.0121,0,0,1,2.0625,1.3418,1.7683,1.7683,0,0,1-.7031,2.127q-.2578.2109-.4395-.0059t.1-.4512q.9492-.7383.4629-1.5645a1.7248,1.7248,0,0,0-1.4707-.8848,1.84,1.84,0,0,0-1.3184.48,1.6551,1.6551,0,0,0-.627,1.2422,2.3879,2.3879,0,0,0,.51,1.875q.5566.5156.9316.8789,1.9219,1.98,1.67,3.4453t-3.0293,3.3633a.2039.2039,0,0,0-.1172.1934q.0117.1113.1875.1465a2.0585,2.0585,0,0,1,1.1191.6035q.3926.4395.8379.85,1.5117,1.4063,2.6719.9141A6.3908,6.3908,0,0,0,37.07,37.9014a.2017.2017,0,0,0,.0469-.1289l-.07-8.4609a1.0754,1.0754,0,0,0-.6562-1.125q-.5391-.2461.0234-.5625,1.1719-.5625,2.3438-1.1484t2.3555-1.1719a.2815.2815,0,0,1,.3691.041q.1582.1582-.0879.3809A3.155,3.155,0,0,0,40.17,27.4893a9.34,9.34,0,0,0-.2988,2.584l.082,8.25q.0117,1.875,1.793,1.23a.2874.2874,0,0,1,.3633.0645q.1289.1582-.0469.3223l-2.2383,2.0156a.5582.5582,0,0,1-.6328.0586Z"/><path d="M47.4648,37.62q-.0117,1.8867.7031,2.18a.1846.1846,0,0,1,.082.1582.1569.1569,0,0,1-.082.1465,5.8662,5.8662,0,0,0-1.7109,2.1211.2117.2117,0,0,1-.3516,0,5.485,5.485,0,0,0-1.7812-2.1094.17.17,0,0,1-.07-.1523.19.19,0,0,1,.082-.1641q.7617-.293.7617-2.18V33.7295q0-1.1953-.4453-1.4648-.5156-.34-.8437.2461-.1289.2461-.293.1172t.0117-.41q.34-.5391.65-1.1016t.6387-1.125a.3359.3359,0,0,1,.5273-.1406l.0117.0117a3.5857,3.5857,0,0,1,2.0625,2.1211.1677.1677,0,0,0,.1167.1523.2148.2148,0,0,0,.187-.0469q.6431-.5391,1.3213-1.1367a3.7861,3.7861,0,0,0,.9238-1.1016q.1289-.3047.4209.0117.7017.7383,1.1982,1.1719a3.5621,3.5621,0,0,0,1.6914.6445q.2109.0469.2168.1816a.1745.1745,0,0,1-.1465.1816,1.2954,1.2954,0,0,0-.5391.4043,1.5219,1.5219,0,0,0-.2344.9551v4.957q0,1.1953.4453,1.4648.5156.3164.832-.2578.1289-.2227.2988-.1t-.0059.4043q-.3516.5508-.6621,1.1074t-.627,1.1074a.3561.3561,0,0,1-.5259.1523,3.28,3.28,0,0,1-2.1226-3.0586l.0117-6q0-.3516-.1758-.457h-.0117v-.0234l-.9961-.82a.2286.2286,0,0,0-.27-.0117l-1.2187.9492a.17.17,0,0,0-.082.1406Z"/><path d="M56.8164,39.0967l-.082-6.4219a.8131.8131,0,0,0-.07-.3633q-.2812-.457-.48-.2227l-.4687.48q-.1875.2109-.3574.0469t.0527-.457a14.7063,14.7063,0,0,0,.9258-1.2891q.41-.6445.8438-1.2773.1875-.2227.4336.0117a12.374,12.374,0,0,0,.9609,1.0488,7.0822,7.0822,0,0,0,1.3359.9551q.2461.0938.2168.2227a.1649.1649,0,0,1-.1582.1406,1.2954,1.2954,0,0,0-.5391.4043,1.5219,1.5219,0,0,0-.2344.9551v4.957q0,1.1953.4453,1.4648a.55.55,0,0,0,.8438-.2578q.1172-.2227.2871-.1t-.0059.4043q-.3516.5508-.6562,1.1074t-.6211,1.1074a.373.373,0,0,1-.5508.1406,4.1161,4.1161,0,0,1-1.5879-1.23A3.0079,3.0079,0,0,1,56.8164,39.0967Zm1.6992-13.91q1.3008,0,1.1836,1.2539a2.0845,2.0845,0,0,1-.791,1.2715,1.9533,1.9533,0,0,1-1.1426.627q-.4219,0-.6445-.668a3.0881,3.0881,0,0,1-.1758-1.23,1.1764,1.1764,0,0,1,.5215-.8965A1.7365,1.7365,0,0,1,58.5156,25.1865Z"/><path d="M62.8867,40.6318q-.2227.082-.2461-.0762a.42.42,0,0,1,.1758-.3457A5.7626,5.7626,0,0,0,64.17,36.835a3.7472,3.7472,0,0,0-1.1191-2.73q-1.8867-1.9336-1.6172-3.041A6.3418,6.3418,0,0,1,63.25,28.4092q.1523-.1641.2754-.0586t-.0176.27q-.82.9844-.1172,1.6992a12.8577,12.8577,0,0,1,1.3359,1.5469.1791.1791,0,0,0,.2578.0586,22.6507,22.6507,0,0,0,1.9629-1.2012q.9316-.6387,1.8457-1.3535a.1937.1937,0,0,1,.1992-.0469.1714.1714,0,0,1,.1172.1641,2.3436,2.3436,0,0,0,.4688,1.1016q.3633.457.75.8906a5.1138,5.1138,0,0,1,1.2773,3.75,5.3464,5.3464,0,0,1-1.7344,3.8789q-.7734.668-1.582,1.4941a13.4654,13.4654,0,0,0-1.3359,1.5645q-.1289.1406-.2578.0469-.6562-.4219-1.7578-1.16A2.2974,2.2974,0,0,0,62.8867,40.6318Zm2.1211-1.9336a8.2243,8.2243,0,0,1,1.3711.68q.8086.48,1.4414.8555a.1693.1693,0,0,0,.2578-.07,17.213,17.213,0,0,0,.7852-1.5469,5.6566,5.6566,0,0,0,.48-2.2148,5.0078,5.0078,0,0,0-.4922-2.2969,18.2043,18.2043,0,0,0-1.1133-1.9453q-.68-.9844-2.5312.082a.1646.1646,0,0,0-.07.2578,4.8045,4.8045,0,0,1,.7266,3.2461,7.9287,7.9287,0,0,1-.9609,2.66.2232.2232,0,0,0-.0117.1641A.1548.1548,0,0,0,65.0078,38.6982Z"/><path d="M76.2578,42.1787a.5013.5013,0,0,0-.2988-.4219,3.2044,3.2044,0,0,1-.4629-.2812,5.0837,5.0837,0,0,1-1.9043-2.2324,8.12,8.12,0,0,1-.627-2.7949A6.1108,6.1108,0,0,1,74.77,31.3623a5.8659,5.8659,0,0,1,1.5938-1.0137,12.4936,12.4936,0,0,1,1.8516-.6387q.293-.0586.4336.293l1.6875,3.9609q.1172.3164-.082.3984H80.23l-4.8047,1.8633a.1955.1955,0,0,0-.1172.2227q.5742,2.6016,1.9219,3.334a3.07,3.07,0,0,0,2.6836.2168q.2344-.1055.2988.0352a.1432.1432,0,0,1-.0879.2109q-.9492.48-1.8105.9844a12.3459,12.3459,0,0,0-1.541,1.0547.4641.4641,0,0,1-.3105.0469Q76.2578,42.3076,76.2578,42.1787Zm-1.09-6.6211a.2069.2069,0,0,0,.082.1465.1651.1651,0,0,0,.1758.0059l2.4961-.9375a.1673.1673,0,0,0,.1055-.2461l-1.43-3.5039q-.1055-.2578-.4219-.07a2.4851,2.4851,0,0,0-.9258,1.8164A9.5772,9.5772,0,0,0,75.168,35.5576Z"/><path d="M85.5625,33.0615l-.0117,5.6836q0,.375.1875.48l.8438.4922q.27.1641.82-.5742a.2129.2129,0,0,1,.293-.0645q.1758.0879,0,.2988a12.22,12.22,0,0,0-1.8867,2.6953q-.1992.27-.4346,0a7.0087,7.0087,0,0,0-1.23-1.16,4.9409,4.9409,0,0,0-1.6748-.6562q-.2109-.0586-.2109-.1875a.1988.1988,0,0,1,.1523-.1875q.7852-.1289.7734-1.3477v-4.957q0-1.1953-.4453-1.4648-.5156-.34-.8437.2461-.1289.2461-.293.1172t.0117-.41q.34-.5391.65-1.1016t.6387-1.125a.3252.3252,0,0,1,.5288-.1289,3.4824,3.4824,0,0,1,2.0728,2.1094.1985.1985,0,0,0,.1406.1465.1693.1693,0,0,0,.1875-.0762l1.8047-2.0742a.2054.2054,0,0,1,.1641-.0645.19.19,0,0,1,.1523.1l1.23,2.3555a.1856.1856,0,0,1-.0234.1992l-1.4062,1.6875a.2136.2136,0,0,1-.1816.07.1534.1534,0,0,1-.1348-.1055L86.4883,32.3a.21.21,0,0,0-.1465-.0879.1984.1984,0,0,0-.1816.0645l-.5508.668A.159.159,0,0,0,85.5625,33.0615Z"/><path d="M94.2109,27.3311a4.3413,4.3413,0,0,1,3.0117.1992,3.4858,3.4858,0,0,1,1.4414,1.23,2.5967,2.5967,0,0,1,.41,1.7578,2.1463,2.1463,0,0,1-.6387,1.4414q-.5332.4688-.873.7266t-.6445.5391q-.5977.5625-.0937,1.0078a5.4,5.4,0,0,1,1.8223,2.3086,1.7916,1.7916,0,0,1-.334,1.6523,22.6233,22.6233,0,0,1-1.6934,1.8691q-.8965.8848-1.7754,1.7871-.4336.4219-.5273-.0469-.1523-.6445-1.377-1.1309t-2.584-.9316q-.2461-.0937-.0352-.3516.3164-.3281.6563-.6562t.68-.6445q.5273-.4922.3574-.873a3.2481,3.2481,0,0,0-.627-.8613,3.1966,3.1966,0,0,1-1.1074-2.2383,2.8492,2.8492,0,0,1,.7559-1.84,10.0185,10.0185,0,0,1,1.5059-1.3535,13.1478,13.1478,0,0,0,1.5879-1.377q.0938-.082.2461.0586a4.5182,4.5182,0,0,0,2.6191,1.4063,1.3564,1.3564,0,0,0,1.3652-.6211,1.3951,1.3951,0,0,0-.0586-1.3418,2.8909,2.8909,0,0,0-1.2187-1.1543,3.5346,3.5346,0,0,0-2.8008-.1172q-.3047.1172-.3633-.1289T94.2109,27.3311Zm-.2578,8.0859a.1769.1769,0,0,0,.2578-.0117l2.18-2.1328a.2032.2032,0,0,0,.0645-.2168.1933.1933,0,0,0-.1816-.1113,3.9874,3.9874,0,0,1-1.4766-.5156q-1.3008-.7383-1.6992-.9961t-1.02.4688a1.196,1.196,0,0,0-.0059,1.77A18.6462,18.6462,0,0,0,93.9531,35.417Zm-1.6172,2.4375a.1934.1934,0,0,0,.07.3047q.832.3867,1.6641.7617t1.6758.7266q.5859.2578,1.1719-.668.7266-1.16-1.9219-3.0469-.41-.2461-1.0078.2344Z"/><path d="M101.6172,39.0967l-.082-6.4219a.8131.8131,0,0,0-.07-.3633q-.2812-.457-.48-.2227l-.4687.48q-.1875.2109-.3574.0469t.0527-.457a14.7063,14.7063,0,0,0,.9258-1.2891q.41-.6445.8438-1.2773.1875-.2227.4336.0117a12.374,12.374,0,0,0,.9609,1.0488,7.0822,7.0822,0,0,0,1.3359.9551q.2461.0938.2168.2227a.1649.1649,0,0,1-.1582.1406,1.2954,1.2954,0,0,0-.5391.4043,1.5219,1.5219,0,0,0-.2344.9551v4.957q0,1.1953.4453,1.4648a.55.55,0,0,0,.8438-.2578q.1172-.2227.2871-.1t-.0059.4043q-.3516.5508-.6562,1.1074t-.6211,1.1074a.373.373,0,0,1-.5508.1406,4.1161,4.1161,0,0,1-1.5879-1.23A3.0079,3.0079,0,0,1,101.6172,39.0967Zm1.6992-13.91q1.3008,0,1.1836,1.2539a2.0845,2.0845,0,0,1-.791,1.2715,1.9533,1.9533,0,0,1-1.1426.627q-.4219,0-.6445-.668a3.0881,3.0881,0,0,1-.1758-1.23,1.1764,1.1764,0,0,1,.5215-.8965A1.7365,1.7365,0,0,1,103.3164,25.1865Z"/><path d="M110.7227,32.3l-.0117,6.5625a.5426.5426,0,0,0,.1758.48l.8438.48q.2461.2109.82-.5625a.1916.1916,0,0,1,.2871-.0469q.1816.1055.0176.2813a11.25,11.25,0,0,0-1.8867,2.6953q-.1992.2461-.4336,0a6.5328,6.5328,0,0,0-1.2187-1.16,5.1757,5.1757,0,0,0-1.6758-.6562q-.1875-.0352-.1992-.1758a.1862.1862,0,0,1,.1406-.1992q.7852-.1875.7734-1.3477l-.0117-6.34q.0117-.2109-.1758-.2109h-1.3828a.1994.1994,0,0,1-.2109-.1289q-.0469-.1289.1055-.2227a24.9226,24.9226,0,0,0,2.8652-2.4023q1.459-1.4062,2.6543-2.6719.1523-.1641.2988-.0645t.0059.2871a10.0988,10.0988,0,0,0-1.084,1.7344,6.136,6.136,0,0,0-.6621,1.9453.251.251,0,0,0,.0117.1758.2249.2249,0,0,0,.1641.07h2.0273a.1918.1918,0,0,1,.1406.0586.2678.2678,0,0,1,.0586.1523l-.0469.8789a.1853.1853,0,0,1-.1992.1875h-2.0273Q110.7227,32.1006,110.7227,32.3Z"/><path d="M118.5273,31.5615q.7031-.3867,1.4238-.8379a8.162,8.162,0,0,0,1.33-1.0371q.41-.4336.4922.1523a1.2344,1.2344,0,0,0,.3633.7734q.3281.34.5977.668a7.1893,7.1893,0,0,1,1.6289,4.3594,8.3323,8.3323,0,0,1-2.4316,6.0879,28.665,28.665,0,0,1-4.5645,4.0371q-.2812.1875-.4043.0469t.0645-.293q1.6523-1.4648,3.34-3.1992t1.5234-5.4961a11.7445,11.7445,0,0,0-.457-2.7832,4.5184,4.5184,0,0,0-1.3828-2.1738q-.5625-.457-1.6289.1523a.2018.2018,0,0,0-.082.1758q.0117,2.2617.0293,3.8145t.0293,3.123q.0352,1.0781.7734.7852l.5273-.41a.257.257,0,0,1,.3516-.0234q.1523.1289-.0234.293-.5977.5977-1.1543,1.166a5.4353,5.4353,0,0,0-.8965,1.1895q-.1289.27-.4336,0a11.47,11.47,0,0,0-.85-.9023,7.088,7.088,0,0,0-1.4121-.7852q-.2344-.082-.2285-.2109a.19.19,0,0,1,.1582-.1758q.75-.2578.7383-1.5469,0-1.3359.0293-2.7012t-.0059-2.666a1.2791,1.2791,0,0,0-.2754-.82,6.4759,6.4759,0,0,0-.4863-.4922,1.9521,1.9521,0,0,1-.8379-1.9453,4.2329,4.2329,0,0,1,1.4121-2.168q.2109-.2344.3691-.1055t.0059.293a1.3119,1.3119,0,0,0-.4687,1.0488q.0586.51.8438.7441a2.5818,2.5818,0,0,1,1.2656.7148,2.103,2.103,0,0,1,.4453.9961.193.193,0,0,0,.1.1465A.178.178,0,0,0,118.5273,31.5615Z"/><path d="M136.4688,42.0615q-.1758.293-.4336,0a7.7924,7.7924,0,0,0-3.9141-2.4141q-.2109-.0586-.2051-.1875a.2066.2066,0,0,1,.1348-.1875q.75-.2578.75-1.5586l-.0352-5.9766a.7209.7209,0,0,0-.0234-.2051.1617.1617,0,0,1,.0176-.1406.1985.1985,0,0,1,.1582-.0762,12.7535,12.7535,0,0,0,5.543-1.6992.2572.2572,0,0,1,.1934-.0352q.0879.0234.1.1641a5.053,5.053,0,0,0,1.2422,2.4844,5.727,5.727,0,0,1,.9551,1.9219,5.2547,5.2547,0,0,1,.2988,2.0273,3.8862,3.8862,0,0,1-.6211,1.7051,8.716,8.716,0,0,1-1.1484,1.3887,8.379,8.379,0,0,1-1.6406,1.2656A3.4807,3.4807,0,0,0,136.4688,42.0615ZM135.1914,31.585l.0469,6.75a.2518.2518,0,0,0,.1406.2461l2.0742,1.2891a.3847.3847,0,0,0,.5625-.1172,3.7,3.7,0,0,0,1.0078-2.8711,4.6275,4.6275,0,0,0-.4043-1.8633,5.9282,5.9282,0,0,0-.9434-1.4531,6.07,6.07,0,0,1-1.3945-2.2969.2031.2031,0,0,0-.1055-.1.1627.1627,0,0,0-.1523-.0059q-.3516.1289-.7031.2227A.1906.1906,0,0,0,135.1914,31.585Z"/><path d="M145.6914,30.0029h2.0273a.1657.1657,0,0,1,.1875.1875v.7266a.1657.1657,0,0,1-.1875.1875h-1.418a.1945.1945,0,0,0-.1465.07.1369.1369,0,0,0-.041.1406,9.8988,9.8988,0,0,1-.0352,1.8281l-1.1836,12.3281q-.0469.3984-.2344.4043t-.2344-.4277q-.293-3.5859-.5977-7.16t-.6445-7.16h-1.3594a.1588.1588,0,0,1-.1816-.17q-.0059-.17.1348-.1934a1.9714,1.9714,0,0,0,1.2656-.7852,2.451,2.451,0,0,0,.4336-1.7109,5.9989,5.9989,0,0,1,.4336-2.7949q.5156-1.1309,2.0625-.627.8555.293,1.5645.51t1.002-.24q.1406-.2461.2578-.2109t-.0352.457a3.3306,3.3306,0,0,1-1.0957,1.7988q-.6738.4629-2.0918-.2168-1.3711-.6328-1.6113.627t.51,1.6465a3.7409,3.7409,0,0,1,.9492.6563A.381.381,0,0,0,145.6914,30.0029Z"/><path d="M163.6914,39.0264q-.293.1289-.4219-.0469t.1055-.3633q1.3594-1.0078,1.3945-1.7227a1.819,1.819,0,0,0-.4395-1.1367,12.8543,12.8543,0,0,0-1.67-1.7461q-2.4258-2.2031-2.4023-3.6563,0-1.3359,2.0156-2.59.07-.0352.5742-.334t.7266-.4629a.2147.2147,0,0,0,.082-.2109,1.87,1.87,0,0,0-2.0156-1.6055q-1.6758,0-2.5078,2.08a9.5093,9.5093,0,0,0-.5859,4.541,9.6707,9.6707,0,0,0,2.7656,6.4395,7.6984,7.6984,0,0,0,5.3555,2.15,7.9777,7.9777,0,0,0,3.4922-.8906q.27-.1289.3984.0645t-.1172.4043a10.0334,10.0334,0,0,1-6.3984,2.2148,7.3849,7.3849,0,0,1-5.9414-2.83,9.803,9.803,0,0,1-2.52-5.5371,10.7755,10.7755,0,0,1,1.4883-6.6328,5.0958,5.0958,0,0,1,4.3828-2.7187,2.6035,2.6035,0,0,1,1.7285.5449,2.81,2.81,0,0,1,.8965,1.3066q.082.2344.293.1055a15.0437,15.0437,0,0,0,1.91-1.6758.7681.7681,0,0,1,.8848-.0293q.498.2637.92.4746.3867.2227.9492.5273a1.3127,1.3127,0,0,0,1.1953.0352q.2578-.1289.3926.0059t-.0176.3105q-.5977.5859-1.1133,1.0488t-1.0078.9082a.65.65,0,0,1-.1523.1289.2609.2609,0,0,1-.1172.0234.4074.4074,0,0,1-.2168-.082q-.123-.082-.2051-.1289a8.1092,8.1092,0,0,0-2.8008-.9844,1.9684,1.9684,0,0,0-1.1367.48,2.0594,2.0594,0,0,0-.9727,1.4766q-.0352.9141,1.4414,2.1914,3.07,2.66,3.2344,4.2422Q167.6758,36.8467,163.6914,39.0264Z"/><path d="M177.4844,40.1982q-.5977.457-1.3125,1.002t-1.3242,1.002a.471.471,0,0,1-.334.1406q-.123-.0234-.1-.2109,0-.2461-.7266-.9375a5.8923,5.8923,0,0,1-1.84-4.6641,5.2887,5.2887,0,0,1,2.2852-4.16,13.8014,13.8014,0,0,0,1.2715-1.09,5.981,5.981,0,0,0,1.0488-1.3945q.1875-.3633.5156-.0234a6.7557,6.7557,0,0,0,3.5508,2.3789q.5625.1055.1172.4453a1.32,1.32,0,0,0-.5977.9844v.0234l.0352,5.3555a.7512.7512,0,0,0,.3926.7383q.3926.1992.85-.3047.1758-.1992.334-.1t.0059.3574q-.4219.6328-.8145,1.2422a7.8176,7.8176,0,0,0-.6621,1.2656l-.0117.0117q-.1641.27-.397,0a.6239.6239,0,0,0-.3032-.1875,2.1388,2.1388,0,0,1-1.6792-1.77.3141.3141,0,0,0-.1167-.1406A.3014.3014,0,0,0,177.4844,40.1982Zm.1289-6.9023a4.382,4.382,0,0,1-1.6992-1.125q-.4687-.5625-.75-.1055a5.8587,5.8587,0,0,0-.9727,4.09q.375,3.1992,2.25,3.9492a.0338.0338,0,0,1,.0234.0117q.48.1523,1.16-.5742a.2377.2377,0,0,0,.0469-.1289q-.0117-.1758-.0117-.5508l.1055-5.3789A.1864.1864,0,0,0,177.6133,33.2959Z"/><path d="M182.8867,26.4521a.205.205,0,0,1-.0059-.3164q.1465-.1523.3691.0586.27.3281.5566.7031a4.8137,4.8137,0,0,1,.4863.7734.1826.1826,0,0,0,.1689.1172.187.187,0,0,0,.1689-.0937,5.2674,5.2674,0,0,1,1.9155-1.8926,4.8305,4.8305,0,0,1,2.6567-.6738q.27.0117.2813.2285t-.2812.2168a2.5727,2.5727,0,0,0-1.8574.668,3.334,3.334,0,0,0-.6973,2.4375l-.0117,10.1484q0,.375.1758.48l.8438.48q.293.1055.8086-.5625a.2233.2233,0,0,1,.3164-.0762q.1875.1-.0117.3105a12.22,12.22,0,0,0-1.8867,2.6953q-.1406.2461-.4209,0a5.6076,5.6076,0,0,0-1.1777-1.166,4.5349,4.5349,0,0,0-1.7061-.65q-.1875-.0234-.1934-.17a.198.198,0,0,1,.123-.2051,1.254,1.254,0,0,0,.5332-.3926,1.4938,1.4938,0,0,0,.24-.9551l-.0117-7.875a7.8324,7.8324,0,0,0-.3633-2.66A4.4845,4.4845,0,0,0,182.8867,26.4521Z"/><path d="M190.7617,39.0967l-.082-6.4219a.8131.8131,0,0,0-.07-.3633q-.2812-.457-.48-.2227l-.4687.48q-.1875.2109-.3574.0469t.0527-.457a14.7063,14.7063,0,0,0,.9258-1.2891q.41-.6445.8438-1.2773.1875-.2227.4336.0117a12.374,12.374,0,0,0,.9609,1.0488,7.0822,7.0822,0,0,0,1.3359.9551q.2461.0938.2168.2227a.1649.1649,0,0,1-.1582.1406,1.2954,1.2954,0,0,0-.5391.4043,1.5219,1.5219,0,0,0-.2344.9551v4.957q0,1.1953.4453,1.4648a.55.55,0,0,0,.8438-.2578q.1172-.2227.2871-.1t-.0059.4043q-.3516.5508-.6562,1.1074t-.6211,1.1074a.373.373,0,0,1-.5508.1406,4.1161,4.1161,0,0,1-1.5879-1.23A3.0079,3.0079,0,0,1,190.7617,39.0967Zm1.6992-13.91q1.3008,0,1.1836,1.2539a2.0845,2.0845,0,0,1-.791,1.2715,1.9533,1.9533,0,0,1-1.1426.627q-.4219,0-.6445-.668a3.0881,3.0881,0,0,1-.1758-1.23,1.1764,1.1764,0,0,1,.5215-.8965A1.7365,1.7365,0,0,1,192.4609,25.1865Z"/><path d="M199.2227,30.0029H201.25a.1657.1657,0,0,1,.1875.1875v.7266a.1657.1657,0,0,1-.1875.1875h-1.418a.1945.1945,0,0,0-.1465.07.1369.1369,0,0,0-.041.1406,9.8988,9.8988,0,0,1-.0352,1.8281l-1.1836,12.3281q-.0469.3984-.2344.4043t-.2344-.4277q-.293-3.5859-.5977-7.16t-.6445-7.16h-1.3594a.1588.1588,0,0,1-.1816-.17q-.0059-.17.1348-.1934a1.9714,1.9714,0,0,0,1.2656-.7852,2.451,2.451,0,0,0,.4336-1.7109,5.9989,5.9989,0,0,1,.4336-2.7949q.5156-1.1309,2.0625-.627.8555.293,1.5645.51t1.002-.24q.1406-.2461.2578-.2109t-.0352.457a3.3306,3.3306,0,0,1-1.0957,1.7988q-.6738.4629-2.0918-.2168-1.3711-.6328-1.6113.627t.51,1.6465a3.7409,3.7409,0,0,1,.9492.6563A.381.381,0,0,0,199.2227,30.0029Z"/><path d="M205.7852,42.0615q-.1758.293-.4336,0a7.7924,7.7924,0,0,0-3.9141-2.4141q-.2109-.0586-.2051-.1875a.2066.2066,0,0,1,.1348-.1875q.75-.2578.75-1.5586l-.0352-5.9766a.7209.7209,0,0,0-.0234-.2051.1617.1617,0,0,1,.0176-.1406.1985.1985,0,0,1,.1582-.0762,12.7535,12.7535,0,0,0,5.543-1.6992.2572.2572,0,0,1,.1934-.0352q.0879.0234.1.1641a5.053,5.053,0,0,0,1.2422,2.4844,5.727,5.727,0,0,1,.9551,1.9219,5.2547,5.2547,0,0,1,.2988,2.0273,3.8862,3.8862,0,0,1-.6211,1.7051,8.716,8.716,0,0,1-1.1484,1.3887,8.379,8.379,0,0,1-1.6406,1.2656A3.4807,3.4807,0,0,0,205.7852,42.0615ZM204.5078,31.585l.0469,6.75a.2518.2518,0,0,0,.1406.2461L206.77,39.87a.3847.3847,0,0,0,.5625-.1172,3.7,3.7,0,0,0,1.0078-2.8711,4.6275,4.6275,0,0,0-.4043-1.8633,5.9282,5.9282,0,0,0-.9434-1.4531,6.07,6.07,0,0,1-1.3945-2.2969.2031.2031,0,0,0-.1055-.1.1627.1627,0,0,0-.1523-.0059q-.3516.1289-.7031.2227A.1906.1906,0,0,0,204.5078,31.585Z"/><path d="M215.77,33.0615l-.0117,5.6836q0,.375.1875.48l.8438.4922q.27.1641.82-.5742a.2129.2129,0,0,1,.293-.0645q.1758.0879,0,.2988a12.22,12.22,0,0,0-1.8867,2.6953q-.1992.27-.4346,0a7.0087,7.0087,0,0,0-1.23-1.16,4.9409,4.9409,0,0,0-1.6748-.6562q-.2109-.0586-.2109-.1875a.1988.1988,0,0,1,.1523-.1875q.7852-.1289.7734-1.3477v-4.957q0-1.1953-.4453-1.4648-.5156-.34-.8437.2461-.1289.2461-.293.1172t.0117-.41q.34-.5391.65-1.1016t.6387-1.125a.3252.3252,0,0,1,.5288-.1289,3.4824,3.4824,0,0,1,2.0728,2.1094.1985.1985,0,0,0,.1406.1465.1693.1693,0,0,0,.1875-.0762l1.8047-2.0742a.2054.2054,0,0,1,.1641-.0645.19.19,0,0,1,.1523.1l1.23,2.3555a.1856.1856,0,0,1-.0234.1992l-1.4062,1.6875a.2136.2136,0,0,1-.1816.07.1534.1534,0,0,1-.1348-.1055L216.6953,32.3a.21.21,0,0,0-.1465-.0879.1984.1984,0,0,0-.1816.0645l-.5508.668A.159.159,0,0,0,215.77,33.0615Z"/><path d="M224.5469,37.62q-.0117,1.8867.7031,2.18a.1846.1846,0,0,1,.082.1582.1569.1569,0,0,1-.082.1465,5.8662,5.8662,0,0,0-1.7109,2.1211.2117.2117,0,0,1-.3516,0,5.485,5.485,0,0,0-1.7812-2.1094.17.17,0,0,1-.07-.1523.19.19,0,0,1,.082-.1641q.7617-.293.7617-2.18V33.7295q0-1.1953-.4453-1.4648-.5156-.34-.8437.2461-.1289.2461-.293.1172t.0117-.41q.34-.5391.65-1.1016t.6387-1.125a.3359.3359,0,0,1,.5273-.1406l.0117.0117A3.5857,3.5857,0,0,1,224.5,31.9834a.1677.1677,0,0,0,.1167.1523.2148.2148,0,0,0,.187-.0469q.6431-.5391,1.3213-1.1367a3.7861,3.7861,0,0,0,.9238-1.1016q.1289-.3047.4209.0117.7017.7383,1.1982,1.1719a3.5621,3.5621,0,0,0,1.6914.6445q.2109.0469.2168.1816a.1745.1745,0,0,1-.1465.1816,1.2954,1.2954,0,0,0-.5391.4043,1.5219,1.5219,0,0,0-.2344.9551v4.957q0,1.1953.4453,1.4648.5156.3164.832-.2578.1289-.2227.2988-.1t-.0059.4043q-.3516.5508-.6621,1.1074t-.627,1.1074a.3561.3561,0,0,1-.5259.1523,3.28,3.28,0,0,1-2.1226-3.0586l.0117-6q0-.3516-.1758-.457h-.0117v-.0234l-.9961-.82a.2286.2286,0,0,0-.27-.0117l-1.2187.9492a.17.17,0,0,0-.082.1406Z"/><path d="M233.8984,39.0967l-.082-6.4219a.8131.8131,0,0,0-.07-.3633q-.2812-.457-.48-.2227l-.4687.48q-.1875.2109-.3574.0469t.0527-.457a14.7063,14.7063,0,0,0,.9258-1.2891q.41-.6445.8438-1.2773.1875-.2227.4336.0117a12.374,12.374,0,0,0,.9609,1.0488,7.0822,7.0822,0,0,0,1.3359.9551q.2461.0938.2168.2227a.1649.1649,0,0,1-.1582.1406,1.2954,1.2954,0,0,0-.5391.4043,1.5219,1.5219,0,0,0-.2344.9551v4.957q0,1.1953.4453,1.4648a.55.55,0,0,0,.8438-.2578q.1172-.2227.2871-.1t-.0059.4043q-.3516.5508-.6562,1.1074t-.6211,1.1074a.373.373,0,0,1-.5508.1406,4.1161,4.1161,0,0,1-1.5879-1.23A3.0079,3.0079,0,0,1,233.8984,39.0967Zm1.6992-13.91q1.3008,0,1.1836,1.2539a2.0845,2.0845,0,0,1-.791,1.2715,1.9533,1.9533,0,0,1-1.1426.627q-.4219,0-.6445-.668a3.0881,3.0881,0,0,1-.1758-1.23,1.1764,1.1764,0,0,1,.5215-.8965A1.7365,1.7365,0,0,1,235.5977,25.1865Z"/><path d="M244.7734,40.1982q-.5977.457-1.3125,1.002t-1.3242,1.002a.471.471,0,0,1-.334.1406q-.123-.0234-.1-.2109,0-.2461-.7266-.9375a5.8923,5.8923,0,0,1-1.84-4.6641,5.2887,5.2887,0,0,1,2.2852-4.16,13.8014,13.8014,0,0,0,1.2715-1.09,5.981,5.981,0,0,0,1.0488-1.3945q.1875-.3633.5156-.0234a6.7557,6.7557,0,0,0,3.5508,2.3789q.5625.1055.1172.4453a1.32,1.32,0,0,0-.5977.9844v.0234l.0352,5.3555a.7512.7512,0,0,0,.3926.7383q.3926.1992.85-.3047.1758-.1992.334-.1t.0059.3574q-.4219.6328-.8145,1.2422a7.8176,7.8176,0,0,0-.6621,1.2656l-.0117.0117q-.1641.27-.397,0a.6239.6239,0,0,0-.3032-.1875,2.1388,2.1388,0,0,1-1.6792-1.77.3141.3141,0,0,0-.1167-.1406A.3014.3014,0,0,0,244.7734,40.1982Zm.1289-6.9023a4.382,4.382,0,0,1-1.6992-1.125q-.4687-.5625-.75-.1055a5.8587,5.8587,0,0,0-.9727,4.09q.375,3.1992,2.25,3.9492a.0338.0338,0,0,1,.0234.0117q.48.1523,1.16-.5742a.2377.2377,0,0,0,.0469-.1289q-.0117-.1758-.0117-.5508l.1055-5.3789A.1864.1864,0,0,0,244.9023,33.2959Z"/><path d="M249.9883,39.9873a5.0883,5.0883,0,0,0,1.5352-1.5469q.1875-.2812.34,0a3.5392,3.5392,0,0,0,1.5352,1.5469.1679.1679,0,0,1,.0938.1641,5.1525,5.1525,0,0,1-.6914,2.3086,15.8583,15.8583,0,0,1-1.3359,2.18.1874.1874,0,0,1-.2344.0586q-.1758-.1055-.1055-.2227a3.3254,3.3254,0,0,0,.58-2.2441q-.1348-1.1426-1.7168-1.916Q249.6719,40.1982,249.9883,39.9873Z"/><path d="M270.0859,33.8584q.1055.2344-.1523.375a5.0087,5.0087,0,0,1-4.9687.1,4.4047,4.4047,0,0,1-2.5371-3.7324,5.9817,5.9817,0,0,1,1.418-4.377,5.6365,5.6365,0,0,1,4.4355-1.9863,5.4119,5.4119,0,0,1,2.2441.4512,6.4505,6.4505,0,0,1,1.6118.8965q1.1953,1.0664,2.0449,1.6934a1.5807,1.5807,0,0,0,1.752.1816q.293-.1641.4336.0527t-.293.498q-2.5664,1.6406-2.7422,2.8945t1.7578,4.1719q1.8047,2.73,1.2715,4.6934a6.0741,6.0741,0,0,1-2.4434,3.3457,8.1809,8.1809,0,0,1-4.0376,1.541,5.2829,5.2829,0,0,1-4.1309-1.5059q-.9375-.8437-1.7344-1.541a1.51,1.51,0,0,0-1.957.041q-.3047.2227-.48.0469t.0352-.3984q3.5273-3.5859,6.8906.1289a5.3391,5.3391,0,0,0,2.7891,1.8867,2.486,2.486,0,0,0,2.1567-.6211,2.2892,2.2892,0,0,0,.7148-2.0742,9.0436,9.0436,0,0,0-1.5352-3.3516q-1.9226-2.9062-1.8579-4.43t2.28-3.3164q.1406-.1172.1055-.2344t-.2227-.1055a3.9181,3.9181,0,0,1-2.7251-1.2656,4.4576,4.4576,0,0,0-3.1465-1.2891,3.5793,3.5793,0,0,0-2.6367,1.1777,4.0679,4.0679,0,0,0-.7266,3.1113,3.306,3.306,0,0,0,2.1035,2.8887,4.61,4.61,0,0,0,3.8848-.0176Q269.9688,33.6592,270.0859,33.8584Z"/><path d="M282.0513,33.0615l-.0117,5.6836q0,.375.1875.48l.8438.4922q.27.1641.82-.5742a.2129.2129,0,0,1,.293-.0645q.1758.0879,0,.2988a12.22,12.22,0,0,0-1.8867,2.6953q-.1992.27-.4346,0a6.9748,6.9748,0,0,0-1.23-1.16,4.9451,4.9451,0,0,0-1.6748-.6562q-.2109-.0586-.2109-.1875a.1988.1988,0,0,1,.1523-.1875q.7852-.1289.7734-1.3477v-4.957q0-1.1953-.4453-1.4648-.5156-.34-.8437.2461-.1289.2461-.293.1172t.0117-.41q.34-.5391.65-1.1016t.6387-1.125a.3247.3247,0,0,1,.5283-.1289,3.4807,3.4807,0,0,1,2.0732,2.1094.1985.1985,0,0,0,.1406.1465.1693.1693,0,0,0,.1875-.0762l1.8047-2.0742a.2054.2054,0,0,1,.1641-.0645.19.19,0,0,1,.1523.1l1.23,2.3555a.1856.1856,0,0,1-.0234.1992l-1.4062,1.6875a.2136.2136,0,0,1-.1816.07.1534.1534,0,0,1-.1348-.1055L282.9771,32.3a.21.21,0,0,0-.1465-.0879.1984.1984,0,0,0-.1816.0645l-.5508.668A.159.159,0,0,0,282.0513,33.0615Z"/><path d="M287.606,40.6318q-.2227.082-.2461-.0762a.42.42,0,0,1,.1758-.3457,5.7626,5.7626,0,0,0,1.3535-3.375,3.7472,3.7472,0,0,0-1.1191-2.73q-1.8867-1.9336-1.6172-3.041a6.3418,6.3418,0,0,1,1.8164-2.6543q.1523-.1641.2754-.0586t-.0176.27q-.82.9844-.1172,1.6992a12.8577,12.8577,0,0,1,1.3359,1.5469.1791.1791,0,0,0,.2578.0586,22.6507,22.6507,0,0,0,1.9629-1.2012q.9316-.6387,1.8457-1.3535a.1937.1937,0,0,1,.1992-.0469.1714.1714,0,0,1,.1172.1641,2.3436,2.3436,0,0,0,.4688,1.1016q.3633.457.75.8906a5.1138,5.1138,0,0,1,1.2773,3.75,5.3464,5.3464,0,0,1-1.7344,3.8789q-.7734.668-1.582,1.4941a13.4654,13.4654,0,0,0-1.3359,1.5645q-.1289.1406-.2578.0469-.6562-.4219-1.7578-1.16A2.2974,2.2974,0,0,0,287.606,40.6318Zm2.1211-1.9336a8.2243,8.2243,0,0,1,1.3711.68q.8086.48,1.4414.8555a.1693.1693,0,0,0,.2578-.07,17.213,17.213,0,0,0,.7852-1.5469,5.6566,5.6566,0,0,0,.48-2.2148,5.0078,5.0078,0,0,0-.4922-2.2969,18.2043,18.2043,0,0,0-1.1133-1.9453q-.68-.9844-2.5312.082a.1646.1646,0,0,0-.07.2578,4.8045,4.8045,0,0,1,.7266,3.2461,7.9287,7.9287,0,0,1-.9609,2.66.2232.2232,0,0,0-.0117.1641A.1548.1548,0,0,0,289.7271,38.6982Z"/><path d="M298.9263,39.0967l-.082-6.4219a.8131.8131,0,0,0-.07-.3633q-.2812-.457-.48-.2227l-.4687.48q-.1875.2109-.3574.0469t.0527-.457a14.7063,14.7063,0,0,0,.9258-1.2891q.41-.6445.8438-1.2773.1875-.2227.4336.0117a12.374,12.374,0,0,0,.9609,1.0488,7.0822,7.0822,0,0,0,1.3359.9551q.2461.0938.2168.2227a.1649.1649,0,0,1-.1582.1406,1.2954,1.2954,0,0,0-.5391.4043,1.5219,1.5219,0,0,0-.2344.9551v4.957q0,1.1953.4453,1.4648a.55.55,0,0,0,.8438-.2578q.1172-.2227.2871-.1t-.0059.4043q-.3516.5508-.6562,1.1074t-.6211,1.1074a.373.373,0,0,1-.5508.1406,4.1161,4.1161,0,0,1-1.5879-1.23A3.0079,3.0079,0,0,1,298.9263,39.0967Zm1.6992-13.91q1.3008,0,1.1836,1.2539a2.0845,2.0845,0,0,1-.791,1.2715,1.9533,1.9533,0,0,1-1.1426.627q-.4219,0-.6445-.668a3.0881,3.0881,0,0,1-.1758-1.23,1.1764,1.1764,0,0,1,.5215-.8965A1.7365,1.7365,0,0,1,300.6255,25.1865Z"/><path d="M308.2188,37.62q-.0117,1.8867.7031,2.18a.1846.1846,0,0,1,.082.1582.1569.1569,0,0,1-.082.1465,5.8662,5.8662,0,0,0-1.7109,2.1211.2112.2112,0,0,1-.3511,0,5.485,5.485,0,0,0-1.7812-2.1094.17.17,0,0,1-.07-.1523.19.19,0,0,1,.082-.1641q.7617-.293.7617-2.18V33.7295q0-1.1953-.4453-1.4648-.5156-.34-.8437.2461-.1289.2461-.293.1172t.0117-.41q.34-.5391.65-1.1016t.6387-1.125a.3359.3359,0,0,1,.5273-.1406l.0117.0117a3.5861,3.5861,0,0,1,2.062,2.1211.1675.1675,0,0,0,.1172.1523.2148.2148,0,0,0,.1865-.0469q.6431-.5391,1.3213-1.1367a3.7939,3.7939,0,0,0,.9238-1.1016q.1289-.3047.4209.0117.7017.7383,1.1982,1.1719a3.56,3.56,0,0,0,1.6914.6445q.2109.0469.2168.1816a.1745.1745,0,0,1-.1465.1816,1.2954,1.2954,0,0,0-.5391.4043,1.5219,1.5219,0,0,0-.2344.9551v4.957q0,1.1953.4453,1.4648.5156.3164.832-.2578.1289-.2227.2988-.1t-.0059.4043q-.3516.5508-.6621,1.1074t-.627,1.1074a.3566.3566,0,0,1-.5264.1523,3.28,3.28,0,0,1-2.1221-3.0586l.0117-6q0-.3516-.1758-.457h-.0117v-.0234l-.9961-.82a.2286.2286,0,0,0-.27-.0117l-1.2187.9492a.17.17,0,0,0-.082.1406Z"/><path d="M319.6211,42.1787a.5013.5013,0,0,0-.2988-.4219,3.2044,3.2044,0,0,1-.4629-.2812,5.0837,5.0837,0,0,1-1.9043-2.2324,8.12,8.12,0,0,1-.627-2.7949,6.1108,6.1108,0,0,1,1.8047-5.0859,5.8659,5.8659,0,0,1,1.5938-1.0137,12.4936,12.4936,0,0,1,1.8516-.6387q.293-.0586.4336.293l1.6875,3.9609q.1172.3164-.082.3984h-.0234l-4.8047,1.8633a.1955.1955,0,0,0-.1172.2227q.5742,2.6016,1.9219,3.334a3.07,3.07,0,0,0,2.6836.2168q.2344-.1055.2988.0352a.1432.1432,0,0,1-.0879.2109q-.9492.48-1.8105.9844a12.3459,12.3459,0,0,0-1.541,1.0547.4641.4641,0,0,1-.3105.0469Q319.6211,42.3076,319.6211,42.1787Zm-1.09-6.6211a.2069.2069,0,0,0,.082.1465.1651.1651,0,0,0,.1758.0059l2.4961-.9375a.1673.1673,0,0,0,.1055-.2461l-1.43-3.5039q-.1055-.2578-.4219-.07a2.4851,2.4851,0,0,0-.9258,1.8164A9.5772,9.5772,0,0,0,318.5313,35.5576Z"/></svg>