<svg xmlns="http://www.w3.org/2000/svg" viewBox="0 0 350 150"><path fill="#feefc4" d="M0 0h350v150H0"/><path fill="#e3c675" d="M337.96 12.04v125.92H12.04V12.04h325.92M340 10H10v130h330V10"/><path d="M123.46 118.57q-.03.75-.03 1.52v3.56q0 .76.03 1.53l1.03.1v.55h-3.53v-.55l1-.1.02-1.53v-3.87l-2.73 6.05h-.43l-2.74-6.07v5.36l1.06.16v.55h-2.8v-.55l1.1-.16v-6.56l-1.04-.12v-.55h2.28l2.76 6.03 2.75-6.02h2.3v.56zm4.8 6.8v.48h-2.94v-.48l.8-.16q.03-.44.03-.96v-1.5a22.57 22.57 0 0 0-.04-1.52l-.87-.1v-.45l2.1-.75.18.12-.02 1.67v3.5zm-1.47-6.6a.93.93 0 0 1-.65-.24.87.87 0 0 1 0-1.25.93.93 0 0 1 .64-.24.9.9 0 0 1 .64.24.88.88 0 0 1 0 1.25.9.9 0 0 1-.65.24zm8.8 6.6v.48h-2.93v-.48l.8-.16q.02-.43.02-.95v-2.02a2.27 2.27 0 0 0-.2-1.08.7.7 0 0 0-.65-.32 1.6 1.6 0 0 0-.75.2 3.48 3.48 0 0 0-.75.55v3.63l.78.17v.48H129v-.48l.8-.16V121.9l-.02-.66-.87-.1v-.45l1.94-.75.18.12.1.96a3.8 3.8 0 0 1 .96-.8 2.2 2.2 0 0 1 1.1-.28 1.5 1.5 0 0 1 1.23.5 2.62 2.62 0 0 1 .42 1.66v3.13zm3.65-5.45a2.96 2.96 0 0 1 1.08.2 2.7 2.7 0 0 1 .93.6 3 3 0 0 1 .65.97 3.26 3.26 0 0 1 .25 1.3 3.37 3.37 0 0 1-.23 1.3 2.86 2.86 0 0 1-.63.94 2.6 2.6 0 0 1-.94.6 3.26 3.26 0 0 1-2.23 0 2.6 2.6 0 0 1-.92-.6 2.84 2.84 0 0 1-.62-.95 3.68 3.68 0 0 1 0-2.6 2.88 2.88 0 0 1 .65-.97 2.77 2.77 0 0 1 .93-.6 2.94 2.94 0 0 1 1.1-.2zm0 .57a1.17 1.17 0 0 0-1.08.62 3.8 3.8 0 0 0-.36 1.86 3.7 3.7 0 0 0 .37 1.86 1.25 1.25 0 0 0 2.15 0 3.7 3.7 0 0 0 .37-1.86 3.8 3.8 0 0 0-.38-1.86 1.17 1.17 0 0 0-1.07-.63zm5.96.8a3.27 3.27 0 0 1 .8-1 1.4 1.4 0 0 1 .9-.38 1.08 1.08 0 0 1 .5.15.7.7 0 0 1 .34.5.74.74 0 0 1-.2.57.78.78 0 0 1-.57.2 1.12 1.12 0 0 1-.8-.4l-.07-.05a3.05 3.05 0 0 0-.88 1.28v2.04q0 .5.02.97l.96.17v.48h-3.12v-.48l.8-.16V121.9l-.02-.66-.88-.1v-.45l1.93-.75.2.12zm4.36.5a.94.94 0 1 1 .66-.28.9.9 0 0 1-.66.27zm0 4.23a.94.94 0 1 1 .66-.28.9.9 0 0 1-.66.28zm10.96-10.88a5.8 5.8 0 0 1 2.05.35 4.6 4.6 0 0 1 1.63 1.02 4.7 4.7 0 0 1 1.08 1.67 6.26 6.26 0 0 1 .4 2.3 5.74 5.74 0 0 1-.44 2.3 4.84 4.84 0 0 1-1.17 1.67 5.04 5.04 0 0 1-1.75 1.03 6.35 6.35 0 0 1-2.12.35h-4.4v-.66l1.46-.18q.03-1.03.03-2.1v-4.88q0-1.02-.04-2.06l-1.47-.18v-.65zm-.27 9.95a3.75 3.75 0 0 0 1.5-.3 3.06 3.06 0 0 0 1.17-.88 4.17 4.17 0 0 0 .75-1.44 6.72 6.72 0 0 0 .26-1.97 6.8 6.8 0 0 0-.26-1.98 4.1 4.1 0 0 0-.75-1.45 3.15 3.15 0 0 0-1.17-.88 3.75 3.75 0 0 0-1.5-.3h-1.42q-.03 1.04-.03 2.1v4.96q0 1.08.03 2.14zm10.45.17v.58H167v-.58l1.2-.22v-1.32l.02-1.24v-.8q0-.67-.02-1.1l-.03-.92-1.26-.15v-.56l2.47-.98.24.15-.04 2.18v3.39l.04 1.32zm-1.82-9a1.07 1.07 0 0 1-.77-.28 1 1 0 0 1-.3-.76.96.96 0 0 1 .3-.74 1.2 1.2 0 0 1 1.54 0 .96.96 0 0 1 .3.74 1 1 0 0 1-.3.75 1.07 1.07 0 0 1-.76.3zm10.25 2.94h-1.55a2.75 2.75 0 0 1 .35 1.4 2.64 2.64 0 0 1-.22 1.13 2.42 2.42 0 0 1-.6.82 2.63 2.63 0 0 1-.9.52 3.6 3.6 0 0 1-1.16.17 4.3 4.3 0 0 1-.6-.04 3.9 3.9 0 0 1-.57-.12 2 2 0 0 0-.22.38 1.04 1.04 0 0 0-.1.42.68.68 0 0 0 .3.58 1.67 1.67 0 0 0 .96.2h1.68a3.3 3.3 0 0 1 1.94.47 1.53 1.53 0 0 1 .63 1.3 2.26 2.26 0 0 1-.25 1.04 2.54 2.54 0 0 1-.75.88 4.03 4.03 0 0 1-1.25.6 5.92 5.92 0 0 1-1.75.24 6.63 6.63 0 0 1-1.47-.15 3.5 3.5 0 0 1-1.03-.4 1.73 1.73 0 0 1-.6-.58 1.35 1.35 0 0 1-.2-.7q0-1 1.48-1.74a1.43 1.43 0 0 1-.67-.54 1.3 1.3 0 0 1-.2-.7 1.34 1.34 0 0 1 .27-.8 3.2 3.2 0 0 1 .76-.73 2.44 2.44 0 0 1-.9-.88 2.93 2.93 0 0 1-.1-2.5 2.42 2.42 0 0 1 .6-.82 2.63 2.63 0 0 1 .9-.5 3.63 3.63 0 0 1 1.15-.2 3.08 3.08 0 0 1 2.05.67l1.8-.6.23.15zm-4.65 6.67a4.12 4.12 0 0 1-.82-.08 3.5 3.5 0 0 0-.43.6 1.46 1.46 0 0 0-.16.7 1.12 1.12 0 0 0 .57 1.05 3.02 3.02 0 0 0 1.5.32 3.57 3.57 0 0 0 2.02-.46 1.34 1.34 0 0 0 .68-1.1 1 1 0 0 0-.08-.4.77.77 0 0 0-.25-.3 1.44 1.44 0 0 0-.48-.25 2.82 2.82 0 0 0-.77-.08zm.5-3.27a1.43 1.43 0 0 0 1.2-.56 2.32 2.32 0 0 0 .44-1.45 2.28 2.28 0 0 0-.4-1.4 1.35 1.35 0 0 0-1.15-.55 1.42 1.42 0 0 0-1.2.55 2.3 2.3 0 0 0-.42 1.43 2.34 2.34 0 0 0 .4 1.43 1.33 1.33 0 0 0 1.14.54zm8.78 2.67v.58h-3.72v-.58l1.2-.22.03-1.32v-3.14l-.04-.92-1.27-.15v-.56l2.47-.98.24.15-.05 2.18v3.4q0 .7.03 1.32zm-1.83-9a1.07 1.07 0 0 1-.77-.28 1 1 0 0 1-.3-.76.96.96 0 0 1 .3-.74 1.2 1.2 0 0 1 1.54 0 .96.96 0 0 1 .3.74 1 1 0 0 1-.3.75 1.07 1.07 0 0 1-.77.3zm7.5 8.9a2.03 2.03 0 0 1-.8.62 2.6 2.6 0 0 1-1.1.2 1.92 1.92 0 0 1-1.33-.43 1.77 1.77 0 0 1-.5-1.38l.02-.6q.02-.3 0-.77v-3.7h-1.32v-.7l1.42-.18.4-2.18h.98l-.08 2.2h2.14v.86h-2.18V124a1.4 1.4 0 0 0 .24.9.8.8 0 0 0 .64.3 1.85 1.85 0 0 0 1.08-.46zm8.1 0a1.57 1.57 0 0 1-.6.67 1.5 1.5 0 0 1-.7.17 1.57 1.57 0 0 1-1.05-.32 1.5 1.5 0 0 1-.5-.87q-.32.33-.6.57a3.54 3.54 0 0 1-.53.4 2.37 2.37 0 0 1-.56.24 2.42 2.42 0 0 1-.65.1 2.65 2.65 0 0 1-.83-.14 1.98 1.98 0 0 1-.68-.38 1.78 1.78 0 0 1-.47-.63 2.12 2.12 0 0 1-.17-.88 1.97 1.97 0 0 1 .12-.65 1.7 1.7 0 0 1 .4-.62 3.64 3.64 0 0 1 .8-.6 8.32 8.32 0 0 1 1.34-.57q.37-.13.84-.27t.95-.26v-.43a4.3 4.3 0 0 0-.1-.96 1.45 1.45 0 0 0-.25-.58.93.93 0 0 0-.46-.3 2.3 2.3 0 0 0-.68-.1c-.1 0-.24 0-.37.03a3.77 3.77 0 0 0-.45.06l-.32 1.13q-.23.77-.87.77a.73.73 0 0 1-.52-.2.78.78 0 0 1-.23-.5 2.4 2.4 0 0 1 1.07-1.45 3.65 3.65 0 0 1 2.06-.56 2.47 2.47 0 0 1 1.87.63 3.12 3.12 0 0 1 .6 2.18v3.43q0 .95.54.95a.63.63 0 0 0 .34-.1 1.95 1.95 0 0 0 .25-.17l.08-.1zm-2.88-3.46q-.4.1-.8.25c-.27.08-.48.16-.65.22a4.18 4.18 0 0 0-.84.42 2.08 2.08 0 0 0-.48.42 1.1 1.1 0 0 0-.2.4 1.7 1.7 0 0 0-.05.4 1.25 1.25 0 0 0 .1.5 1.35 1.35 0 0 0 .2.35 1.32 1.32 0 0 0 .98.36 1.62 1.62 0 0 0 .38-.04 1.44 1.44 0 0 0 .36-.15 4.4 4.4 0 0 0 .44-.27l.57-.4zm7.33 3.57v.58h-3.94v-.58l1.27-.22.03-1.3v-8.12l-1.3-.16v-.56l2.5-.7.22.1-.07 2.3v7.17l.04 1.28zm14.6-.07v.65h-4.36v-.66l1.57-.2-.9-2.64h-3.7l-.9 2.63 1.57.2v.65h-3.68v-.66l1.35-.2 3.42-9.85h.96l3.44 9.9zm-3.94-3.6l-1.57-4.6-1.6 4.6zm7.3-1.57a4.1 4.1 0 0 1 1.02-1.5 1.93 1.93 0 0 1 1.27-.54 1.37 1.37 0 0 1 .68.18.83.83 0 0 1 .42.6.8.8 0 0 1-.27.63 1.02 1.02 0 0 1-.7.24 1.3 1.3 0 0 1-.9-.4l-.1-.1a3.5 3.5 0 0 0-.84.86 4.74 4.74 0 0 0-.55 1.23v2.5q0 .7.03 1.3l1.3.24v.58h-3.86v-.58l1.15-.2q.02-.6.02-1.32t0-1.26V120.58l-.04-.93-1.27-.14v-.56l2.22-.98.24.15zm9 5.13a2.03 2.03 0 0 1-.78.63 2.6 2.6 0 0 1-1.1.2 1.92 1.92 0 0 1-1.33-.43 1.77 1.77 0 0 1-.5-1.38l.02-.6v-4.47h-1.32v-.7l1.42-.18.4-2.18h.98l-.08 2.2h2.14v.86h-2.18V124a1.4 1.4 0 0 0 .23.9.8.8 0 0 0 .65.3 1.85 1.85 0 0 0 1.07-.46zm4.2-3.74a4.02 4.02 0 0 1 1.7 1.03 2.06 2.06 0 0 1 .3 2.2 2.07 2.07 0 0 1-.6.74 3.02 3.02 0 0 1-.97.5 4.33 4.33 0 0 1-1.35.2 4.66 4.66 0 0 1-1.24-.16 5.87 5.87 0 0 1-1.16-.47l-.05-1.75h.88l.3 1.38a3.08 3.08 0 0 0 1.3.25 2.26 2.26 0 0 0 1.36-.33 1.06 1.06 0 0 0 .46-.9 1 1 0 0 0-.38-.8 4.23 4.23 0 0 0-1.14-.6l-.74-.28a3.84 3.84 0 0 1-1.4-.84 1.74 1.74 0 0 1-.53-1.3 2 2 0 0 1 .2-.87 2.33 2.33 0 0 1 .56-.73 2.74 2.74 0 0 1 .88-.5 3.33 3.33 0 0 1 1.17-.2 3.92 3.92 0 0 1 1.18.16 4.95 4.95 0 0 1 1.06.5l-.06 1.62H234l-.23-1.28a2.6 2.6 0 0 0-1.12-.27 1.7 1.7 0 0 0-1.1.3 1.05 1.05 0 0 0-.4.87.95.95 0 0 0 .34.76 3.98 3.98 0 0 0 1.15.58zM93.57 99.06a9.75 9.75 0 0 1 1.53.72 4.38 4.38 0 0 1 1.03.8 2.82 2.82 0 0 1 .56.95 3.3 3.3 0 0 1 .17 1.12 3.24 3.24 0 0 1-.3 1.45 3.17 3.17 0 0 1-.9 1.08 4.1 4.1 0 0 1-1.35.7 5.87 5.87 0 0 1-1.73.24 6.76 6.76 0 0 1-1.96-.28 6.4 6.4 0 0 1-1.56-.67l.1-2.52h1.1l.36 2.08a3.53 3.53 0 0 0 .88.37 3.97 3.97 0 0 0 1 .12 3.32 3.32 0 0 0 2.06-.58 1.93 1.93 0 0 0 .76-1.63 1.84 1.84 0 0 0-.13-.72 1.68 1.68 0 0 0-.4-.57 3.05 3.05 0 0 0-.7-.46 9.77 9.77 0 0 0-1-.43l-.7-.26a8.17 8.17 0 0 1-1.26-.6 4.56 4.56 0 0 1-.98-.8 3.26 3.26 0 0 1-.64-.97 3.4 3.4 0 0 1 .08-2.63 3.22 3.22 0 0 1 .85-1.08 3.73 3.73 0 0 1 1.28-.7 5.4 5.4 0 0 1 1.6-.22 4.95 4.95 0 0 1 1.67.26 4.9 4.9 0 0 1 1.3.7l-.1 2.35h-1.1l-.4-2.05a3.2 3.2 0 0 0-1.45-.34 2.85 2.85 0 0 0-1.74.52 1.83 1.83 0 0 0-.7 1.57 1.8 1.8 0 0 0 .54 1.36 4.54 4.54 0 0 0 1.52.9zm8.94-2.05a4.08 4.08 0 0 1 1.53.3 3.83 3.83 0 0 1 1.32.9 4.54 4.54 0 0 1 .93 1.43 5.62 5.62 0 0 1 0 3.93 4.15 4.15 0 0 1-.92 1.42 3.94 3.94 0 0 1-1.33.85 4.2 4.2 0 0 1-1.53.3 4.25 4.25 0 0 1-1.53-.3 3.84 3.84 0 0 1-1.34-.85 4.2 4.2 0 0 1-.92-1.42 5.08 5.08 0 0 1-.36-1.96 5.15 5.15 0 0 1 .36-1.97 4.34 4.34 0 0 1 .93-1.44 3.94 3.94 0 0 1 1.32-.9 4.06 4.06 0 0 1 1.52-.3zm0 .84a2.04 2.04 0 0 0-1.8.96 5.13 5.13 0 0 0-.64 2.8 5 5 0 0 0 .63 2.77 2.2 2.2 0 0 0 3.62 0 5 5 0 0 0 .63-2.77 5.13 5.13 0 0 0-.63-2.8 2.03 2.03 0 0 0-1.8-.96zm16.5 7.24a2.33 2.33 0 0 1-.88.7 2.67 2.67 0 0 1-1.16.25 2.27 2.27 0 0 1-1.58-.5 2 2 0 0 1-.55-1.55v-.68l.02-.85V98.3h-3.78v5.2l.03 1.43 1.6.27v.65h-4.63v-.65l1.43-.25.02-1.44v-5.2h-1.46v-.8l1.48-.2q.07-.7.17-1.3A7.95 7.95 0 0 1 110 95a4 4 0 0 1 .35-.83 3.74 3.74 0 0 1 .5-.67 3.08 3.08 0 0 1 1.25-.87 3.84 3.84 0 0 1 1.28-.22 2.7 2.7 0 0 1 1.12.2 1.1 1.1 0 0 1 .62.75.85.85 0 0 1-.32.6 1.2 1.2 0 0 1-.77.23 1.5 1.5 0 0 1-.65-.14 3.4 3.4 0 0 1-.65-.42l-.45-.36a2.26 2.26 0 0 0-.6.72 4.2 4.2 0 0 0-.48 1.28 8.86 8.86 0 0 0-.14 2.1h3.9l.45-2.48h1.1l-.08 2.5h2.4v.94h-2.44v5.47a1.5 1.5 0 0 0 .28 1.02.97.97 0 0 0 .77.3 1.22 1.22 0 0 0 .57-.12 5.62 5.62 0 0 0 .6-.38zm13.83-7l-1 .2-2.63 7.75h-.67l-2.4-6.26-2.3 6.26h-.68l-2.9-7.8-1.02-.16v-.73h4.1v.73l-1.4.2 1.87 5.53 2-5.53-1.32-.2v-.73h3.98v.73l-1.35.22 2.05 5.46 1.7-5.47-1.34-.23v-.73h3.3zm9 7a1.75 1.75 0 0 1-.68.76 1.68 1.68 0 0 1-.8.2 1.77 1.77 0 0 1-1.18-.38 1.7 1.7 0 0 1-.57-.98q-.36.36-.66.63a4.02 4.02 0 0 1-.62.46 2.6 2.6 0 0 1-.63.27 2.66 2.66 0 0 1-.72.1 2.98 2.98 0 0 1-.92-.15 2.23 2.23 0 0 1-.78-.43 2.02 2.02 0 0 1-.52-.7 2.4 2.4 0 0 1-.2-1 2.22 2.22 0 0 1 .14-.73 1.9 1.9 0 0 1 .45-.7 4.07 4.07 0 0 1 .9-.66 9.35 9.35 0 0 1 1.5-.66l.95-.3q.53-.16 1.08-.3v-.48a4.83 4.83 0 0 0-.1-1.07 1.64 1.64 0 0 0-.3-.67 1.06 1.06 0 0 0-.5-.34 2.6 2.6 0 0 0-.78-.1l-.42.02a4.4 4.4 0 0 0-.5.07l-.36 1.26q-.25.86-.97.86a.82.82 0 0 1-.6-.2.87.87 0 0 1-.24-.58 2.7 2.7 0 0 1 1.18-1.64 4.1 4.1 0 0 1 2.34-.63 2.78 2.78 0 0 1 2.1.73 3.52 3.52 0 0 1 .7 2.45v3.85q0 1.07.58 1.07a.7.7 0 0 0 .38-.1 2.24 2.24 0 0 0 .3-.2l.08-.1zm-3.25-3.9q-.47.13-.9.28t-.74.25a4.7 4.7 0 0 0-.95.5 2.37 2.37 0 0 0-.52.47 1.22 1.22 0 0 0-.23.46 1.95 1.95 0 0 0-.06.43 1.4 1.4 0 0 0 .1.58 1.52 1.52 0 0 0 .24.38 1.48 1.48 0 0 0 1.1.4 1.85 1.85 0 0 0 .4-.03 1.65 1.65 0 0 0 .42-.17 5.2 5.2 0 0 0 .5-.3l.64-.47zm6.85-1.88a4.62 4.62 0 0 1 1.17-1.68 2.17 2.17 0 0 1 1.43-.6 1.55 1.55 0 0 1 .76.2.93.93 0 0 1 .47.67.9.9 0 0 1-.3.7 1.15 1.15 0 0 1-.78.27 1.45 1.45 0 0 1-1.04-.45l-.12-.13a3.9 3.9 0 0 0-.94.97 5.33 5.33 0 0 0-.63 1.38v2.82l.04 1.46 1.48.27v.65h-4.35v-.65l1.3-.23.02-1.5v-2.32q0-.73 0-1.22t-.04-1.03l-1.42-.16v-.63l2.5-1.1.28.2zm6.3 2.2a3.9 3.9 0 0 0 .8 2.57 2.94 2.94 0 0 0 3.54.54 4.52 4.52 0 0 0 1.05-.93l.44.34a3.72 3.72 0 0 1-1.35 1.55 3.8 3.8 0 0 1-2.12.57 4.28 4.28 0 0 1-1.66-.3 3.43 3.43 0 0 1-1.26-.9 4.13 4.13 0 0 1-.8-1.4 5.62 5.62 0 0 1-.3-1.86 5.27 5.27 0 0 1 .34-1.88 4.47 4.47 0 0 1 .9-1.47 4.08 4.08 0 0 1 1.3-.95 3.85 3.85 0 0 1 1.6-.34 3.72 3.72 0 0 1 1.34.25 2.97 2.97 0 0 1 1.07.68 3.24 3.24 0 0 1 .7 1.1 3.88 3.88 0 0 1 .27 1.46 3.98 3.98 0 0 1-.03.54 3.66 3.66 0 0 1-.1.45zm3.3-.78a1.07 1.07 0 0 0 .86-.27 1.03 1.03 0 0 0 .23-.67 1.8 1.8 0 0 0-.15-.72 2.08 2.08 0 0 0-.42-.63 2.02 2.02 0 0 0-.6-.43 1.8 1.8 0 0 0-.78-.16 2.22 2.22 0 0 0-.78.15 1.98 1.98 0 0 0-.74.5 3.13 3.13 0 0 0-.57.9 4.24 4.24 0 0 0-.33 1.32zm17.84 1.93l-.14 3.2h-9.32v-.74l1.65-.2q.03-1.12.03-2.3v-5.53q0-1.15-.04-2.33l-1.66-.2v-.73h8.96l.13 3.2h-1.03l-.4-2.27h-4.24q-.04 1.13-.04 2.26v2.28h2.68l.25-1.73h.8v4.27h-.8l-.23-1.7h-2.7v2.48q0 1.18.04 2.35h4.6l.4-2.3zm11 2.55v.65h-4.17v-.65l1.33-.25.02-1.46v-3.01a3.12 3.12 0 0 0-.33-1.72 1.3 1.3 0 0 0-1.13-.5 2.87 2.87 0 0 0-1.22.28 5.5 5.5 0 0 0-1.27.87v4.04l.04 1.48 1.26.25v.65h-4.18v-.65l1.33-.25.03-1.48.02-1.4v-.92q0-.73-.02-1.22t-.03-1.03l-1.42-.16v-.63l2.5-1.1.27.2.14 1.45a5.46 5.46 0 0 1 1.52-1.2 3.66 3.66 0 0 1 1.72-.44 2 2 0 0 1 1.74.8 4.43 4.43 0 0 1 .56 2.54v3.13l.04 1.48zm9.47-6.82h-1.75a3.1 3.1 0 0 1 .4 1.58 2.97 2.97 0 0 1-.25 1.26 2.73 2.73 0 0 1-.7.92 2.96 2.96 0 0 1-1 .58 4.08 4.08 0 0 1-1.3.2 5.08 5.08 0 0 1-.7-.05 4.3 4.3 0 0 1-.62-.13 2.27 2.27 0 0 0-.24.42 1.17 1.17 0 0 0-.1.48.77.77 0 0 0 .3.64 1.88 1.88 0 0 0 1.1.24h1.88a3.7 3.7 0 0 1 2.2.52 1.72 1.72 0 0 1 .7 1.48 2.55 2.55 0 0 1-.28 1.15 2.86 2.86 0 0 1-.85 1 4.5 4.5 0 0 1-1.4.7 6.65 6.65 0 0 1-1.97.24 7.4 7.4 0 0 1-1.66-.15 3.94 3.94 0 0 1-1.16-.44 1.95 1.95 0 0 1-.68-.65 1.53 1.53 0 0 1-.23-.8q0-1.1 1.68-1.95a1.6 1.6 0 0 1-.75-.6 1.47 1.47 0 0 1-.23-.8 1.52 1.52 0 0 1 .3-.9 3.6 3.6 0 0 1 .86-.8 2.75 2.75 0 0 1-1-1 3.3 3.3 0 0 1-.13-2.8 2.73 2.73 0 0 1 .7-.9 2.95 2.95 0 0 1 1-.6 4.08 4.08 0 0 1 1.3-.2 3.47 3.47 0 0 1 2.3.75l2.03-.68.27.18zm-5.24 7.5a4.63 4.63 0 0 1-.92-.1 3.9 3.9 0 0 0-.47.7 1.64 1.64 0 0 0-.18.77 1.26 1.26 0 0 0 .65 1.18 3.4 3.4 0 0 0 1.7.37 4 4 0 0 0 2.25-.52 1.5 1.5 0 0 0 .76-1.26 1.16 1.16 0 0 0-.07-.42.9.9 0 0 0-.3-.37 1.6 1.6 0 0 0-.54-.26 3.15 3.15 0 0 0-.87-.1zm.58-3.68a1.6 1.6 0 0 0 1.36-.63 2.6 2.6 0 0 0 .48-1.64 2.57 2.57 0 0 0-.45-1.58 1.52 1.52 0 0 0-1.3-.6 1.6 1.6 0 0 0-1.34.62 2.57 2.57 0 0 0-.48 1.6 2.64 2.64 0 0 0 .45 1.6 1.5 1.5 0 0 0 1.28.63zm9.87 3v.65h-4.17v-.65l1.35-.25.02-1.48v-2.3q0-.74 0-1.23t-.04-1.04l-1.42-.16v-.63l2.78-1.1.27.2-.06 2.44v3.83l.03 1.48zm-2.05-10.1a1.2 1.2 0 0 1-.86-.34 1.1 1.1 0 0 1-.35-.84 1.1 1.1 0 0 1 .36-.84 1.34 1.34 0 0 1 1.72 0 1.1 1.1 0 0 1 .35.84 1.1 1.1 0 0 1-.35.84 1.2 1.2 0 0 1-.86.33zm13 10.1v.65h-4.18v-.65l1.33-.25.03-1.46v-3a3.12 3.12 0 0 0-.34-1.72 1.3 1.3 0 0 0-1.13-.5 2.87 2.87 0 0 0-1.2.28 5.5 5.5 0 0 0-1.28.87v4.04q0 .8.03 1.48l1.26.25v.65h-4.17v-.65l1.33-.25.03-1.48v-3.54l-.05-1.03-1.42-.16v-.63l2.5-1.1.27.2.14 1.45a5.46 5.46 0 0 1 1.53-1.2 3.66 3.66 0 0 1 1.7-.44 2 2 0 0 1 1.75.8 4.43 4.43 0 0 1 .57 2.54v3.14l.03 1.47zm3-3.7a3.9 3.9 0 0 0 .83 2.57 2.94 2.94 0 0 0 3.53.54 4.52 4.52 0 0 0 1.06-.93l.43.34a3.72 3.72 0 0 1-1.34 1.55 3.8 3.8 0 0 1-2.12.57 4.28 4.28 0 0 1-1.64-.3 3.43 3.43 0 0 1-1.26-.9 4.13 4.13 0 0 1-.8-1.4 5.62 5.62 0 0 1-.3-1.86 5.27 5.27 0 0 1 .32-1.88 4.47 4.47 0 0 1 .9-1.47 4.08 4.08 0 0 1 1.32-.95 3.85 3.85 0 0 1 1.6-.34 3.72 3.72 0 0 1 1.32.25 2.97 2.97 0 0 1 1.07.68 3.24 3.24 0 0 1 .72 1.1 3.88 3.88 0 0 1 .26 1.46 3.98 3.98 0 0 1-.03.54 3.66 3.66 0 0 1-.1.45zm3.3-.78a1.07 1.07 0 0 0 .88-.27 1.03 1.03 0 0 0 .2-.67 1.8 1.8 0 0 0-.14-.72 2.08 2.08 0 0 0-.4-.63 2.02 2.02 0 0 0-.63-.43 1.8 1.8 0 0 0-.76-.16 2.22 2.22 0 0 0-.78.15 1.98 1.98 0 0 0-.75.5 3.13 3.13 0 0 0-.58.9 4.24 4.24 0 0 0-.3 1.32zm5.88.78a3.9 3.9 0 0 0 .83 2.57 2.94 2.94 0 0 0 3.53.54 4.52 4.52 0 0 0 1.06-.93l.43.34a3.72 3.72 0 0 1-1.34 1.55 3.8 3.8 0 0 1-2.1.57 4.28 4.28 0 0 1-1.66-.3 3.43 3.43 0 0 1-1.26-.9 4.13 4.13 0 0 1-.8-1.4 5.62 5.62 0 0 1-.3-1.86 5.27 5.27 0 0 1 .33-1.88 4.47 4.47 0 0 1 .9-1.47 4.08 4.08 0 0 1 1.32-.95 3.85 3.85 0 0 1 1.6-.34 3.72 3.72 0 0 1 1.32.25 2.97 2.97 0 0 1 1.08.68 3.24 3.24 0 0 1 .7 1.1 3.88 3.88 0 0 1 .27 1.46 3.98 3.98 0 0 1-.05.54 3.66 3.66 0 0 1-.1.45zm3.3-.78a1.07 1.07 0 0 0 .88-.27 1.03 1.03 0 0 0 .2-.67 1.8 1.8 0 0 0-.14-.72 2.08 2.08 0 0 0-.4-.63 2.02 2.02 0 0 0-.63-.43 1.8 1.8 0 0 0-.75-.16 2.22 2.22 0 0 0-.78.15 1.98 1.98 0 0 0-.74.5 3.13 3.13 0 0 0-.58.9 4.24 4.24 0 0 0-.3 1.32zm7-1.42a4.62 4.62 0 0 1 1.18-1.68 2.17 2.17 0 0 1 1.43-.6 1.55 1.55 0 0 1 .77.2.93.93 0 0 1 .46.67.9.9 0 0 1-.3.7 1.15 1.15 0 0 1-.78.27 1.45 1.45 0 0 1-1.03-.45l-.12-.13a3.9 3.9 0 0 0-.94.97 5.33 5.33 0 0 0-.63 1.38v2.82l.04 1.46 1.47.27v.65h-4.35v-.65l1.3-.23v-1.5l.02-1.4v-.92q0-.73-.02-1.22t-.03-1.03l-1.43-.16v-.63l2.5-1.1.28.2zm8.83 5.9v.65h-4.17v-.65l1.35-.25.04-1.48v-3.53l-.05-1.04-1.43-.16v-.63l2.77-1.1.27.2-.04 2.44v3.83q0 .8.03 1.48zm-2.05-10.1a1.2 1.2 0 0 1-.86-.34 1.1 1.1 0 0 1-.34-.84 1.1 1.1 0 0 1 .34-.84 1.34 1.34 0 0 1 1.73 0 1.1 1.1 0 0 1 .34.84 1.1 1.1 0 0 1-.35.84 1.2 1.2 0 0 1-.87.33zm13 10.1v.65h-4.18v-.65l1.33-.25.03-1.46v-3.01a3.12 3.12 0 0 0-.33-1.72 1.3 1.3 0 0 0-1.14-.5 2.87 2.87 0 0 0-1.22.28 5.5 5.5 0 0 0-1.27.87v4.04q0 .8.05 1.48l1.26.25v.65h-4.17v-.65l1.33-.25.03-1.48v-2.32l-.02-1.22-.04-1.03-1.42-.16v-.63l2.5-1.1.27.2.14 1.45a5.46 5.46 0 0 1 1.52-1.2 3.66 3.66 0 0 1 1.72-.44 2 2 0 0 1 1.73.8 4.43 4.43 0 0 1 .58 2.54v3.13l.04 1.48zm9.47-6.82h-1.75a3.1 3.1 0 0 1 .4 1.58 2.97 2.97 0 0 1-.26 1.26 2.73 2.73 0 0 1-.68.92 2.96 2.96 0 0 1-1.03.58 4.08 4.08 0 0 1-1.3.2 5.08 5.08 0 0 1-.68-.05 4.3 4.3 0 0 1-.63-.13 2.27 2.27 0 0 0-.24.42 1.17 1.17 0 0 0-.1.48.77.77 0 0 0 .3.64 1.88 1.88 0 0 0 1.1.24h1.88a3.7 3.7 0 0 1 2.2.52 1.72 1.72 0 0 1 .7 1.48 2.55 2.55 0 0 1-.28 1.15 2.86 2.86 0 0 1-.85 1 4.5 4.5 0 0 1-1.4.7 6.65 6.65 0 0 1-1.97.24 7.4 7.4 0 0 1-1.66-.15 3.94 3.94 0 0 1-1.16-.44 1.95 1.95 0 0 1-.7-.65 1.53 1.53 0 0 1-.2-.8q0-1.1 1.66-1.95a1.6 1.6 0 0 1-.74-.6 1.47 1.47 0 0 1-.23-.8 1.52 1.52 0 0 1 .3-.9 3.6 3.6 0 0 1 .85-.8 2.75 2.75 0 0 1-1-1 3.3 3.3 0 0 1-.13-2.8 2.73 2.73 0 0 1 .68-.9 2.95 2.95 0 0 1 1.03-.6 4.08 4.08 0 0 1 1.3-.2 3.47 3.47 0 0 1 2.3.75l2.02-.68.27.18zm-5.24 7.5a4.63 4.63 0 0 1-.9-.1 3.9 3.9 0 0 0-.5.7 1.64 1.64 0 0 0-.18.77 1.26 1.26 0 0 0 .65 1.18 3.4 3.4 0 0 0 1.7.37 4 4 0 0 0 2.25-.52 1.5 1.5 0 0 0 .77-1.26 1.16 1.16 0 0 0-.1-.42.9.9 0 0 0-.3-.37 1.6 1.6 0 0 0-.53-.26 3.15 3.15 0 0 0-.86-.1zm.58-3.68a1.6 1.6 0 0 0 1.35-.63 2.6 2.6 0 0 0 .5-1.64 2.57 2.57 0 0 0-.46-1.58 1.52 1.52 0 0 0-1.3-.6 1.6 1.6 0 0 0-1.34.62 2.57 2.57 0 0 0-.47 1.6 2.64 2.64 0 0 0 .45 1.6 1.5 1.5 0 0 0 1.28.63zm-83.8-15.78v.43H170v-.43l.9-.17.02-1v-2.34l-.03-.7-.96-.1v-.4l1.85-.74.17.12-.04 1.63v2.56q0 .53.03 1zm-1.37-6.75a.8.8 0 0 1-.57-.2.74.74 0 0 1-.23-.58.72.72 0 0 1 .23-.56.9.9 0 0 1 1.15 0 .72.72 0 0 1 .23.55.74.74 0 0 1-.22.56.8.8 0 0 1-.57.2zm8.67 6.75v.43h-2.78v-.43l.87-.17q.02-.44.02-.97v-2a2.08 2.08 0 0 0-.23-1.15.86.86 0 0 0-.76-.32 1.9 1.9 0 0 0-.8.2 3.7 3.7 0 0 0-.84.57v2.7q0 .52.02 1l.84.15v.43h-2.78v-.43l.9-.17V82.9l-.03-.68-.93-.1v-.43l1.66-.74.18.12.1.97a3.65 3.65 0 0 1 1.02-.8 2.44 2.44 0 0 1 1.15-.3 1.34 1.34 0 0 1 1.16.52 2.95 2.95 0 0 1 .38 1.7v2.1l.03 1zM94.2 67.78a3 3 0 0 1-.38.18.25.25 0 0 1-.1.03c-.16 0-.24-.1-.24-.25a.23.23 0 0 1 .12-.2 27.9 27.9 0 0 0 3.44-2.27 4.3 4.3 0 0 0 1.73-3.64 5.67 5.67 0 0 0-.96-2.96 3.2 3.2 0 0 0-2.9-1.53 3.78 3.78 0 0 0-2.44.93 2.68 2.68 0 0 0-1.13 2.08 3.32 3.32 0 0 0 .7 2.1 3.25 3.25 0 0 0 2.2 1.1 3.1 3.1 0 0 0 1.94-.5 1.74 1.74 0 0 0 .24-.23.36.36 0 0 1 .27-.16.2.2 0 0 1 .2.14.22.22 0 0 1-.05.25 3.37 3.37 0 0 1-.7.55 2.96 2.96 0 0 1-1.62.45q-2.44.03-3.37-1.2a4.37 4.37 0 0 1-.76-3.16 4.8 4.8 0 0 1 1.77-3.3 5.12 5.12 0 0 1 3.66-1.27 5.6 5.6 0 0 1 2.83.76 4.68 4.68 0 0 1 1.63 1.72.15.15 0 0 0 .17.1.14.14 0 0 0 .15-.13 3.18 3.18 0 0 1 3.25-2.43 3.23 3.23 0 0 1 2.16.8 4.7 4.7 0 0 1 1.33 2.56q.32 1.17.87 1.14c.15 0 .24.06.27.18.02.12-.04.22-.18.3l-2.44 1.1a.18.18 0 0 0 .05.35 4.22 4.22 0 0 1 2.26 1.4 3.9 3.9 0 0 1 .97 2.67q-.05 2.48-3.27 4.38a8.76 8.76 0 0 1-3.4 1.22 6.95 6.95 0 0 1-3.1-.33 6.53 6.53 0 0 1-2.84-1.95q-1.17-1.38-2.32-1.02zm7.1-5.07l4.2-1.97a.2.2 0 0 0 .1-.15.18.18 0 0 0-.1-.16 2.87 2.87 0 0 1-1.1-1.86 5.85 5.85 0 0 0-.72-1.7 1.28 1.28 0 0 0-1.3-.58 1.56 1.56 0 0 0-1.32 1.23 7.03 7.03 0 0 0-.06 2.2 4.54 4.54 0 0 1-1.12 3.6A16.84 16.84 0 0 1 97 66.04a2.95 2.95 0 0 1 2.02 1 17.1 17.1 0 0 0 1.52 1.32 8.68 8.68 0 0 0 1.67 1.02 4.03 4.03 0 0 0 2.22.4 2.75 2.75 0 0 0 1.9-1.15 2.87 2.87 0 0 0 .6-1.76 3.28 3.28 0 0 0-.75-2.03 3.87 3.87 0 0 0-1.9-1.4 7.7 7.7 0 0 0-2.87-.26c-.15 0-.24-.05-.27-.18s.04-.23.18-.3zm14.13 6.64l-1.2.9-1.2.93a.43.43 0 0 1-.3.13c-.1 0-.12-.08-.1-.2q0-.22-.68-.85a5.4 5.4 0 0 1-1.68-4.28 4.85 4.85 0 0 1 2.1-3.8 12.82 12.82 0 0 0 1.16-1 5.5 5.5 0 0 0 .96-1.3c.1-.2.26-.22.46 0a6.2 6.2 0 0 0 3.26 2.17q.5.1.1.4a1.2 1.2 0 0 0-.54.9v.03l.03 4.9a.7.7 0 0 0 .37.7q.36.17.78-.3c.1-.1.2-.14.3-.1s.1.2 0 .35l-.74 1.14a7.1 7.1 0 0 0-.6 1.16q-.16.25-.37 0a.57.57 0 0 0-.28-.17 1.96 1.96 0 0 1-1.54-1.62.3.3 0 0 0-.1-.13.28.28 0 0 0-.17.04zm.12-6.33A4.02 4.02 0 0 1 114 62q-.43-.52-.7-.1a5.37 5.37 0 0 0-.88 3.75q.34 2.93 2.06 3.62a.03.03 0 0 1 .02 0q.44.15 1.06-.52a.22.22 0 0 0 .05-.1v-.5l.1-4.95a.17.17 0 0 0-.15-.17zm8.15 7.7a.46.46 0 0 0-.27-.4 2.9 2.9 0 0 1-.42-.26 4.66 4.66 0 0 1-1.74-2.04 7.45 7.45 0 0 1-.57-2.56 5.6 5.6 0 0 1 1.64-4.67 5.37 5.37 0 0 1 1.46-.93 11.52 11.52 0 0 1 1.7-.58q.24-.04.4.28 1.28 2.03 1.97 1.5.6-.4.6-.7a6.85 6.85 0 0 0-.3-2.34 5.65 5.65 0 0 0-.8-1.57q-.15-.22 0-.34t.35.1a5.47 5.47 0 0 1 .77 1.27.15.15 0 0 0 .13.1.2.2 0 0 0 .18-.1 4.1 4.1 0 0 1 1.97-1.7 5.36 5.36 0 0 1 2.7-.5l.15.03c.1 0 .14.08.14.22s-.1.2-.27.17a2.97 2.97 0 0 0-1.97.5 2.6 2.6 0 0 0-.83 2.3l.02 2.4a.16.16 0 0 0 .1.15.16.16 0 0 0 .16 0 6.2 6.2 0 0 0 1.2-.68 9.97 9.97 0 0 0 1.1-.9q.4-.4.44.13a1.2 1.2 0 0 0 .33.7q.3.33.54.63a6.57 6.57 0 0 1 1.5 4 7.6 7.6 0 0 1-2.24 5.57 26.77 26.77 0 0 1-4.18 3.7q-.27.2-.4.07t.1-.3a40.93 40.93 0 0 0 3.05-2.9q1.54-1.62 1.4-5.06a10.98 10.98 0 0 0-.42-2.55 4.08 4.08 0 0 0-1.26-2 1.15 1.15 0 0 0-1.3.02.15.15 0 0 0-.1.16l.04 6.5q0 .86.7.7a1.5 1.5 0 0 0 .5-.33q.18-.14.3-.04c.1.07.08.15 0 .25q-.55.55-1.04 1.1a11.27 11.27 0 0 0-.86 1.07q-.13.26-.4 0a6.58 6.58 0 0 0-2.07-1.54c-.12-.06-.2-.13-.2-.2a.2.2 0 0 1 .15-.16q.7-.24.68-1.42l-.02-6.03q0-.35-.26-.17a7.4 7.4 0 0 0-1.4 1.87q-.14.23-.4 0a10.66 10.66 0 0 1-2.42-2.76q-.1-.22-.4-.06a2.57 2.57 0 0 0-.9 2 8.8 8.8 0 0 0 .1 2.9q.5 2.48 1.75 3.18a2.8 2.8 0 0 0 2.5.2c.14-.06.23-.05.27.04a.14.14 0 0 1-.1.2q-.86.42-1.65.9a12.14 12.14 0 0 0-1.42.97.34.34 0 0 1-.32.06c-.1-.03-.15-.1-.15-.17zm16.22.45a.46.46 0 0 0-.28-.4 2.9 2.9 0 0 1-.42-.24 4.65 4.65 0 0 1-1.75-2.04 7.43 7.43 0 0 1-.57-2.56 5.6 5.6 0 0 1 1.65-4.66 5.35 5.35 0 0 1 1.46-.93 11.4 11.4 0 0 1 1.7-.58q.28-.05.4.27l1.55 3.62q.1.3-.07.37h-.02l-4.4 1.7a.18.18 0 0 0-.1.2q.5 2.4 1.75 3.05a2.8 2.8 0 0 0 2.47.2q.2-.1.27.04a.13.13 0 0 1-.08.18q-.87.44-1.66.9a11.22 11.22 0 0 0-1.4.97.42.42 0 0 1-.3.04c-.12-.02-.18-.07-.18-.15zm-1-6.07a.18.18 0 0 0 .07.14.15.15 0 0 0 .15 0l2.3-.86a.15.15 0 0 0 .1-.22l-1.32-3.22q-.1-.23-.4-.06a2.28 2.28 0 0 0-.84 1.67 8.77 8.77 0 0 0-.08 2.55zm5.86-8.34a.2.2 0 0 1 0-.3q.13-.13.34.06l.5.64a4.48 4.48 0 0 1 .45.7.17.17 0 0 0 .16.12.17.17 0 0 0 .15-.1 4.82 4.82 0 0 1 1.76-1.72 4.42 4.42 0 0 1 2.43-.62c.17 0 .25.08.26.2s-.08.2-.26.2a2.36 2.36 0 0 0-1.7.62 3.06 3.06 0 0 0-.64 2.24v9.3q0 .34.15.44l.77.44q.27.1.75-.52a.2.2 0 0 1 .3-.07q.16.1-.03.3a11.2 11.2 0 0 0-1.73 2.46q-.12.22-.38 0a5.13 5.13 0 0 0-1.08-1.07 4.14 4.14 0 0 0-1.56-.6q-.18-.02-.18-.15a.18.18 0 0 1 .1-.18 1.15 1.15 0 0 0 .5-.36 1.37 1.37 0 0 0 .22-.87v-7.23a7.2 7.2 0 0 0-.34-2.44 4.12 4.12 0 0 0-.94-1.5"/><path d="M154.4 71.04q-.16.27-.4 0a7.14 7.14 0 0 0-3.6-2.2c-.12-.05-.18-.1-.18-.18a.2.2 0 0 1 .13-.17q.68-.25.68-1.44l-.03-5.48a.67.67 0 0 0-.02-.2.15.15 0 0 1 .02-.12.18.18 0 0 1 .14-.07 11.7 11.7 0 0 0 5.08-1.56.23.23 0 0 1 .18-.04c.05.02.08.07.1.15a4.63 4.63 0 0 0 1.13 2.28 5.26 5.26 0 0 1 .88 1.76 4.83 4.83 0 0 1 .28 1.85 3.56 3.56 0 0 1-.57 1.56 7.98 7.98 0 0 1-1.04 1.3 7.72 7.72 0 0 1-1.5 1.15 3.2 3.2 0 0 0-1.26 1.4zm-1.17-9.6l.04 6.2a.23.23 0 0 0 .13.2l1.9 1.2a.35.35 0 0 0 .5-.1 3.4 3.4 0 0 0 .94-2.64 4.25 4.25 0 0 0-.37-1.7 5.45 5.45 0 0 0-.87-1.34 5.56 5.56 0 0 1-1.28-2.1.18.18 0 0 0-.1-.1.15.15 0 0 0-.13 0l-.66.2a.17.17 0 0 0-.1.18zm10.32 1.36V68q0 .35.16.44l.78.46q.25.15.76-.53a.2.2 0 0 1 .26-.06c.1.06.1.15 0 .28a11.2 11.2 0 0 0-1.73 2.47q-.18.25-.4 0a6.37 6.37 0 0 0-1.12-1.06 4.53 4.53 0 0 0-1.54-.6c-.12-.05-.18-.1-.18-.18a.18.18 0 0 1 .14-.18q.72-.1.7-1.23v-4.53q0-1.1-.4-1.35-.47-.3-.77.23-.13.23-.28.1t0-.37q.32-.5.6-1t.6-1.04a.3.3 0 0 1 .47-.12 3.2 3.2 0 0 1 1.9 1.94.18.18 0 0 0 .12.13.16.16 0 0 0 .18-.08l1.65-1.9a.2.2 0 0 1 .15-.06.18.18 0 0 1 .14.1l1.13 2.15a.17.17 0 0 1-.02.2l-1.3 1.54a.2.2 0 0 1-.16.06.14.14 0 0 1-.13-.1l-.87-1.6a.2.2 0 0 0-.14-.1.2.2 0 0 0-.16.07l-.5.62a.14.14 0 0 0-.05.1zm14.37 8.24q-.16.27-.4 0a7.14 7.14 0 0 0-3.58-2.2c-.13-.05-.2-.1-.2-.18a.2.2 0 0 1 .13-.17q.7-.25.7-1.44l-.04-5.48a.67.67 0 0 0-.02-.2.15.15 0 0 1 .02-.12.18.18 0 0 1 .15-.07 11.7 11.7 0 0 0 5.08-1.56.23.23 0 0 1 .18-.04c.05.02.08.07.1.15a4.63 4.63 0 0 0 1.13 2.28 5.26 5.26 0 0 1 .87 1.76 4.83 4.83 0 0 1 .27 1.85 3.56 3.56 0 0 1-.56 1.56 7.98 7.98 0 0 1-1.06 1.3 7.72 7.72 0 0 1-1.5 1.15 3.2 3.2 0 0 0-1.26 1.4zm-1.17-9.6l.04 6.2a.23.23 0 0 0 .12.2l1.9 1.2a.35.35 0 0 0 .52-.1 3.4 3.4 0 0 0 .92-2.64 4.25 4.25 0 0 0-.37-1.7 5.45 5.45 0 0 0-.87-1.34 5.56 5.56 0 0 1-1.28-2.1.18.18 0 0 0-.1-.1.15.15 0 0 0-.14 0l-.63.2a.17.17 0 0 0-.12.18zm9.63-1.45h1.85a.15.15 0 0 1 .18.16v.67a.15.15 0 0 1-.17.17h-1.3a.18.18 0 0 0-.13.06.12.12 0 0 0-.04.13 9.07 9.07 0 0 1-.03 1.67l-1.08 11.3c-.03.24-.1.37-.22.37s-.2-.13-.2-.4l-.56-6.56q-.28-3.28-.6-6.56h-1.24a.15.15 0 0 1-.17-.15c0-.1.04-.17.13-.18a1.8 1.8 0 0 0 1.15-.73 2.25 2.25 0 0 0 .4-1.57 5.5 5.5 0 0 1 .4-2.56q.47-1.04 1.88-.58l1.44.47q.65.2.92-.22.12-.22.22-.2t-.03.44a3.06 3.06 0 0 1-1 1.65q-.63.4-1.93-.2-1.26-.6-1.48.56t.46 1.5a3.44 3.44 0 0 1 .87.6.35.35 0 0 0 .25.13zm23.13-3.63q.26-.3.5-.1t-.02.48l-1.36 1.27a5.43 5.43 0 0 1-1 .76 2.16 2.16 0 0 1-1.64.28 11.83 11.83 0 0 1-2.27-.94 6.98 6.98 0 0 0-2.76-.83 3.1 3.1 0 0 0-2.33.97 4.94 4.94 0 0 0-1.37 2.05 6.5 6.5 0 0 0-.28 2.12 5.5 5.5 0 0 0 2.3 4.3 8.26 8.26 0 0 0 5.47 1.66 7.84 7.84 0 0 0 3.95-1.03 2.74 2.74 0 0 0 1.38-2.95 1.68 1.68 0 0 0-1.6-1.66 5.12 5.12 0 0 0-3.08.97q-2.22 1.4-3.2 1.24t-2.8-2.6c-.13-.18-.13-.3 0-.4s.27 0 .4.18a1.3 1.3 0 0 0 1.66.57 15.2 15.2 0 0 0 2.24-1.1l1.56-.83a2.64 2.64 0 0 1 1.86-.12 5.17 5.17 0 0 1 2.1 1.15 4.13 4.13 0 0 1 1.34 2.23 4.02 4.02 0 0 1-.05 2.15 6.98 6.98 0 0 1-.83 1.75 6.8 6.8 0 0 1-2.58 2.3 7.83 7.83 0 0 1-3.7.85 8.82 8.82 0 0 1-5.63-2.06 6.7 6.7 0 0 1-2.5-5.67q.1-5.12 7.67-8.15a.9.9 0 0 1 .76.04q3.33 1.65 4.4 1.6a1.8 1.8 0 0 0 1.4-.5zm5.5 14.8a.46.46 0 0 0-.27-.4 2.9 2.9 0 0 1-.42-.25 4.66 4.66 0 0 1-1.74-2.05 7.45 7.45 0 0 1-.57-2.56 5.6 5.6 0 0 1 1.64-4.65 5.37 5.37 0 0 1 1.46-.93 11.52 11.52 0 0 1 1.7-.6c.16-.02.3.07.4.28l1.25 2.54q.15.3-.07.35a3.48 3.48 0 0 0-1.45.55q-.3.2-.5-.2l-1.1-2.3q-.12-.24-.4-.08a2.57 2.57 0 0 0-.9 2 8.8 8.8 0 0 0 .1 2.9q.5 2.48 1.73 3.18a2.8 2.8 0 0 0 2.5.2c.1-.04.2-.03.24.04.06.08.04.15-.05.2q-.87.43-1.66.9a11.22 11.22 0 0 0-1.42.96.42.42 0 0 1-.3.04c-.1 0-.18-.06-.18-.14zm5.92-2.84l-.07-5.9a.75.75 0 0 0-.07-.32q-.25-.4-.44-.2l-.43.44q-.16.2-.3.05t.03-.43a13.58 13.58 0 0 0 .85-1.2l.78-1.16c.1-.12.24-.12.4.02a11.43 11.43 0 0 0 .87.97 6.47 6.47 0 0 0 1.23.86c.15.06.22.13.2.2a.15.15 0 0 1-.15.13 1.2 1.2 0 0 0-.5.36 1.4 1.4 0 0 0-.2.88v4.54q0 1.1.4 1.35a.5.5 0 0 0 .8-.24c.06-.14.14-.18.25-.1.1.07.1.2 0 .37q-.33.5-.6 1.02l-.58 1a.34.34 0 0 1-.5.13A3.77 3.77 0 0 1 221.4 70a2.76 2.76 0 0 1-.5-1.67zm1.56-12.75q1.2 0 1.1 1.14a1.9 1.9 0 0 1-.74 1.17 1.8 1.8 0 0 1-1.05.56q-.4 0-.6-.6a2.83 2.83 0 0 1-.16-1.14 1.08 1.08 0 0 1 .48-.82 1.6 1.6 0 0 1 .96-.32zm6.32 15.57a.46.46 0 0 0-.27-.4 2.9 2.9 0 0 1-.42-.24 4.65 4.65 0 0 1-1.74-2.04 7.43 7.43 0 0 1-.57-2.56 5.6 5.6 0 0 1 1.64-4.66 5.35 5.35 0 0 1 1.46-.93 11.4 11.4 0 0 1 1.7-.58q.27-.05.4.27l1.55 3.62q.1.3-.08.37h-.02l-4.4 1.7a.18.18 0 0 0-.1.2q.5 2.4 1.75 3.05a2.8 2.8 0 0 0 2.46.2q.2-.1.27.04a.13.13 0 0 1-.08.18q-.87.44-1.66.9a11.22 11.22 0 0 0-1.42.97.42.42 0 0 1-.28.04c-.13-.02-.2-.07-.2-.15zm-1-6.07a.18.18 0 0 0 .08.14.15.15 0 0 0 .16 0l2.3-.86a.15.15 0 0 0 .1-.22l-1.32-3.22q-.1-.23-.4-.06a2.28 2.28 0 0 0-.84 1.67 8.77 8.77 0 0 0-.07 2.55zm9.6 1.9q0 1.72.65 2a.17.17 0 0 1 .07.14.14.14 0 0 1-.07.13 5.38 5.38 0 0 0-1.57 1.94.2.2 0 0 1-.32 0 5.03 5.03 0 0 0-1.64-1.94.16.16 0 0 1-.06-.14.17.17 0 0 1 .07-.15q.7-.27.7-2V63.4q0-1.1-.4-1.34-.48-.3-.78.23-.12.2-.27.1t0-.38l.6-1 .6-1.04a.3.3 0 0 1 .48-.13 3.3 3.3 0 0 1 1.9 1.96.15.15 0 0 0 .1.15.2.2 0 0 0 .18-.05l1.2-1.04a3.47 3.47 0 0 0 .85-1q.1-.3.38 0 .64.68 1.1 1.08a3.27 3.27 0 0 0 1.55.6c.13 0 .2.07.2.15a.16.16 0 0 1-.14.16 1.2 1.2 0 0 0-.5.37 1.4 1.4 0 0 0-.2.88v4.55q0 1.1.4 1.34.46.3.76-.24c.07-.14.17-.17.27-.1.1.08.1.2 0 .37q-.33.5-.6 1.02l-.6 1a.33.33 0 0 1-.47.15 3 3 0 0 1-1.95-2.8l.03-5.5q0-.32-.17-.42v-.02l-.92-.75a.2.2 0 0 0-.25 0l-1.12.87a.16.16 0 0 0-.08.13zm10.45 4.18a.46.46 0 0 0-.27-.38 2.9 2.9 0 0 1-.42-.26 4.66 4.66 0 0 1-1.75-2.05 7.45 7.45 0 0 1-.56-2.56 5.6 5.6 0 0 1 1.65-4.65 5.37 5.37 0 0 1 1.45-.93 11.52 11.52 0 0 1 1.7-.6c.15-.02.3.07.4.28l1.25 2.54q.15.3-.07.35a3.48 3.48 0 0 0-1.45.55q-.3.2-.5-.2l-1.1-2.3q-.12-.24-.4-.08a2.57 2.57 0 0 0-.9 2 8.8 8.8 0 0 0 .1 2.9q.5 2.48 1.73 3.18a2.8 2.8 0 0 0 2.5.2c.1-.04.2-.03.25.04.06.08.04.15-.05.2q-.87.43-1.66.9a11.22 11.22 0 0 0-1.4.96.42.42 0 0 1-.3.04c-.12 0-.2-.06-.2-.14zm7.8 0a.46.46 0 0 0-.27-.4 2.9 2.9 0 0 1-.43-.25 4.65 4.65 0 0 1-1.74-2.04 7.43 7.43 0 0 1-.57-2.56 5.6 5.6 0 0 1 1.66-4.66 5.35 5.35 0 0 1 1.45-.93 11.4 11.4 0 0 1 1.7-.58q.26-.05.4.27l1.54 3.62q.1.3-.08.37h-.03l-4.4 1.7a.18.18 0 0 0-.1.2q.5 2.4 1.74 3.05a2.8 2.8 0 0 0 2.46.2q.22-.1.28.04a.13.13 0 0 1-.08.18q-.87.44-1.66.9a11.22 11.22 0 0 0-1.42.97.42.42 0 0 1-.28.04c-.13-.02-.2-.07-.2-.15zm-1-6.08a.18.18 0 0 0 .08.14.15.15 0 0 0 .16 0l2.28-.86a.15.15 0 0 0 .1-.22l-1.32-3.22q-.1-.23-.38-.06a2.28 2.28 0 0 0-.85 1.67 8.77 8.77 0 0 0-.08 2.55zM39.2 42a4.67 4.67 0 0 1-1.6-1.06 3.6 3.6 0 0 1-.46-1.98q0-.17-.1-.2a.2.2 0 0 0-.23.08l-.98 1.05-1 1.04q-2.3 2.4-4.8-.3a4.55 4.55 0 0 0-1.74-1.22 1.6 1.6 0 0 0-1.66.42q-.2.16-.36 0t.08-.37l2.96-2.5q1.5-1.44 1.1-2.5a6.2 6.2 0 0 0-1.4-2.1 7.73 7.73 0 0 1-1.47-2.15 2.9 2.9 0 0 1 .34-2.83 4.3 4.3 0 0 1 1.96-1.8 4.9 4.9 0 0 1 2.13-.5 2 2 0 0 1 2.06 1.35 1.77 1.77 0 0 1-.7 2.12q-.26.2-.44 0t.1-.45q.95-.74.46-1.57a1.72 1.72 0 0 0-1.47-.88 1.84 1.84 0 0 0-1.32.48 1.66 1.66 0 0 0-.62 1.24 2.4 2.4 0 0 0 .5 1.86l.94.88q1.92 1.98 1.67 3.45t-3.03 3.35a.2.2 0 0 0-.1.2q0 .1.18.14a2.06 2.06 0 0 1 1.12.6q.4.43.84.85 1.5 1.4 2.67.9a6.4 6.4 0 0 0 2.27-1.75.2.2 0 0 0 .05-.13l-.07-8.46a1.08 1.08 0 0 0-.66-1.1q-.55-.26 0-.58 1.2-.56 2.36-1.14t2.35-1.18a.28.28 0 0 1 .38.04q.16.16-.1.4a3.15 3.15 0 0 0-1.2 1.75 9.34 9.34 0 0 0-.3 2.57l.07 8.25q0 1.88 1.8 1.23a.3.3 0 0 1 .36.07q.14.16-.04.32l-2.24 2.02a.56.56 0 0 1-.63.05zm8.26-4.38q0 1.9.7 2.18a.18.18 0 0 1 .1.16.16.16 0 0 1-.1.14 5.87 5.87 0 0 0-1.7 2.13.2.2 0 0 1-.35 0 5.5 5.5 0 0 0-1.78-2.1.17.17 0 0 1-.07-.17.2.2 0 0 1 .1-.16q.75-.3.75-2.18v-3.9q0-1.2-.45-1.46-.5-.34-.84.25-.12.26-.3.13t.03-.4q.34-.55.65-1.1t.64-1.14a.34.34 0 0 1 .52-.15h.02A3.6 3.6 0 0 1 47.42 32a.17.17 0 0 0 .1.16.2.2 0 0 0 .2-.05l1.32-1.15a3.8 3.8 0 0 0 .93-1.1q.13-.3.42 0 .7.75 1.2 1.18a3.56 3.56 0 0 0 1.68.65q.2.05.2.18a.17.17 0 0 1-.13.18 1.3 1.3 0 0 0-.54.4 1.52 1.52 0 0 0-.23.96v4.96q0 1.2.45 1.46.5.32.83-.25.13-.23.3-.1t0 .4q-.36.55-.67 1.1t-.63 1.1a.36.36 0 0 1-.52.17 3.28 3.28 0 0 1-2.12-3.06v-6q0-.35-.16-.46v-.02l-1-.82a.23.23 0 0 0-.28 0l-1.2.94a.17.17 0 0 0-.1.14zm9.36 1.48l-.1-6.43a.8.8 0 0 0-.06-.36q-.28-.45-.48-.2l-.46.47q-.2.2-.36.05t.05-.46a14.7 14.7 0 0 0 .94-1.3q.4-.63.84-1.27.2-.23.43 0a12.37 12.37 0 0 0 .98 1.05 7.08 7.08 0 0 0 1.33.96q.26.1.23.23a.16.16 0 0 1-.16.14 1.3 1.3 0 0 0-.54.4 1.52 1.52 0 0 0-.23.96v4.96q0 1.2.44 1.45a.55.55 0 0 0 .85-.26q.1-.23.27-.1t0 .4q-.36.55-.66 1.1t-.6 1.1a.37.37 0 0 1-.56.15 4.12 4.12 0 0 1-1.6-1.23 3 3 0 0 1-.52-1.82zm1.7-13.9q1.3 0 1.18 1.24a2.08 2.08 0 0 1-.8 1.27 1.95 1.95 0 0 1-1.13.64q-.43 0-.65-.67a3.1 3.1 0 0 1-.17-1.23 1.18 1.18 0 0 1 .52-.9 1.74 1.74 0 0 1 1.05-.35zm4.37 15.43q-.24.08-.26-.07a.42.42 0 0 1 .18-.35 5.76 5.76 0 0 0 1.35-3.37 3.75 3.75 0 0 0-1.12-2.72q-1.9-1.93-1.62-3.04a6.34 6.34 0 0 1 1.82-2.65q.15-.15.28-.05t-.02.27q-.8.98-.1 1.7a12.86 12.86 0 0 1 1.33 1.55.18.18 0 0 0 .25.06 22.65 22.65 0 0 0 1.97-1.2q.93-.64 1.84-1.36a.2.2 0 0 1 .2-.05.17.17 0 0 1 .1.17 2.34 2.34 0 0 0 .48 1.1q.36.45.75.88a5.1 5.1 0 0 1 1.28 3.75 5.35 5.35 0 0 1-1.73 3.88q-.77.68-1.58 1.5a13.47 13.47 0 0 0-1.35 1.57q-.13.14-.25.04-.66-.4-1.76-1.15a2.3 2.3 0 0 0-2.05-.42zM65 38.7a8.22 8.22 0 0 1 1.37.68l1.44.85a.17.17 0 0 0 .27-.07 17.2 17.2 0 0 0 .78-1.54 5.66 5.66 0 0 0 .48-2.22 5 5 0 0 0-.5-2.3 18.2 18.2 0 0 0-1.1-1.94q-.68-.98-2.53.08a.16.16 0 0 0-.07.26 4.8 4.8 0 0 1 .72 3.25 7.93 7.93 0 0 1-.96 2.66.22.22 0 0 0 0 .17.15.15 0 0 0 .1.13zm11.26 3.48a.5.5 0 0 0-.3-.42 3.2 3.2 0 0 1-.46-.28 5.08 5.08 0 0 1-1.9-2.24 8.12 8.12 0 0 1-.64-2.8 6.1 6.1 0 0 1 1.8-5.08 5.87 5.87 0 0 1 1.6-1 12.5 12.5 0 0 1 1.86-.65q.3-.05.43.3l1.7 3.96q.1.32-.1.4h-.02l-4.8 1.87a.2.2 0 0 0-.12.22q.58 2.6 1.93 3.33a3.07 3.07 0 0 0 2.68.22q.25-.1.3.03a.14.14 0 0 1-.08.22q-.94.48-1.8.98a12.35 12.35 0 0 0-1.55 1.05.46.46 0 0 1-.3.05q-.2-.02-.2-.15zm-1.1-6.62a.2.2 0 0 0 .1.14.17.17 0 0 0 .17 0l2.5-.93a.17.17 0 0 0 .1-.24l-1.43-3.5q-.1-.27-.42-.08a2.5 2.5 0 0 0-.93 1.82 9.58 9.58 0 0 0-.08 2.8zm10.4-2.5v5.7q0 .36.18.47l.84.5q.27.15.82-.6a.2.2 0 0 1 .3-.05q.17.1 0 .3a12.22 12.22 0 0 0-1.9 2.7q-.2.26-.43 0a7 7 0 0 0-1.23-1.17 4.94 4.94 0 0 0-1.67-.64q-.2-.06-.2-.2a.2.2 0 0 1 .14-.18q.8-.13.78-1.35v-4.95q0-1.2-.44-1.47-.52-.33-.85.26-.13.24-.3.12t0-.4q.35-.55.66-1.1t.64-1.14a.33.33 0 0 1 .53-.13 3.48 3.48 0 0 1 2.07 2.1.2.2 0 0 0 .14.17.17.17 0 0 0 .2-.08l1.8-2.08a.2.2 0 0 1 .16-.07.2.2 0 0 1 .15.1l1.23 2.36a.2.2 0 0 1-.02.2l-1.4 1.7a.2.2 0 0 1-.2.06.15.15 0 0 1-.12-.1l-.95-1.76a.2.2 0 0 0-.16-.1.2.2 0 0 0-.18.08l-.55.66a.16.16 0 0 0-.04.12zm8.65-5.73a4.34 4.34 0 0 1 3.02.2 3.5 3.5 0 0 1 1.44 1.23 2.6 2.6 0 0 1 .4 1.76 2.15 2.15 0 0 1-.62 1.44q-.54.47-.88.73t-.64.53q-.6.56-.1 1a5.4 5.4 0 0 1 1.83 2.3 1.8 1.8 0 0 1-.34 1.66 22.62 22.62 0 0 1-1.7 1.86l-1.76 1.8q-.43.4-.52-.06-.16-.64-1.38-1.13t-2.58-.93q-.25-.1-.04-.35l.66-.67.68-.64q.52-.5.35-.88a3.25 3.25 0 0 0-.6-.87 3.2 3.2 0 0 1-1.12-2.23 2.85 2.85 0 0 1 .76-1.84 10.02 10.02 0 0 1 1.5-1.36 13.15 13.15 0 0 0 1.6-1.37q.1-.1.24.05a4.52 4.52 0 0 0 2.6 1.4 1.36 1.36 0 0 0 1.38-.6 1.4 1.4 0 0 0-.06-1.35 2.9 2.9 0 0 0-1.22-1.16 3.53 3.53 0 0 0-2.8-.12q-.3.1-.36-.13t.3-.32zm-.25 8.1a.18.18 0 0 0 .26-.02l2.2-2.13a.2.2 0 0 0 .06-.2.2.2 0 0 0-.2-.13 4 4 0 0 1-1.46-.5q-1.3-.75-1.7-1t-1.02.46a1.2 1.2 0 0 0 0 1.77 18.65 18.65 0 0 0 1.87 1.75zm-1.6 2.42a.2.2 0 0 0 .06.3q.84.4 1.67.77t1.68.73q.58.26 1.17-.67.72-1.16-1.92-3.05-.4-.24-1 .24zm9.27 1.25l-.08-6.43a.8.8 0 0 0-.07-.36q-.3-.45-.48-.2l-.48.47q-.2.2-.36.05t.05-.46a14.7 14.7 0 0 0 .94-1.3q.4-.63.84-1.27.2-.23.44 0a12.37 12.37 0 0 0 .96 1.05 7.08 7.08 0 0 0 1.33.96q.26.1.23.23a.16.16 0 0 1-.16.14 1.3 1.3 0 0 0-.54.4 1.52 1.52 0 0 0-.23.96v4.96q0 1.2.44 1.45a.55.55 0 0 0 .85-.26q.1-.23.27-.1t0 .4q-.35.55-.66 1.1t-.6 1.1a.37.37 0 0 1-.56.15 4.12 4.12 0 0 1-1.6-1.23 3 3 0 0 1-.52-1.82zm1.7-13.9q1.3 0 1.18 1.24a2.08 2.08 0 0 1-.8 1.27 1.95 1.95 0 0 1-1.13.64q-.43 0-.65-.67a3.1 3.1 0 0 1-.17-1.23 1.18 1.18 0 0 1 .52-.9 1.74 1.74 0 0 1 1.05-.35zm7.4 7.1v6.56a.54.54 0 0 0 .17.48l.83.48q.25.2.82-.56a.2.2 0 0 1 .3-.05q.17.1 0 .3a11.25 11.25 0 0 0-1.9 2.7q-.2.24-.42 0a6.53 6.53 0 0 0-1.2-1.17 5.18 5.18 0 0 0-1.7-.66q-.18-.03-.2-.17a.2.2 0 0 1 .15-.2q.8-.2.78-1.35l-.02-6.34q.02-.2-.17-.2h-1.4a.2.2 0 0 1-.2-.13q-.04-.13.1-.22a24.92 24.92 0 0 0 2.87-2.4q1.46-1.4 2.66-2.68.15-.16.3-.06t0 .3a10.1 10.1 0 0 0-1.08 1.73 6.14 6.14 0 0 0-.66 1.95.25.25 0 0 0 0 .17.22.22 0 0 0 .17.07h2.03a.2.2 0 0 1 .14.06.27.27 0 0 1 .06.15l-.05.88a.2.2 0 0 1-.2.2h-2q-.18 0-.18.2zm7.8-.74l1.43-.84a8.16 8.16 0 0 0 1.33-1.03q.4-.45.5.14a1.23 1.23 0 0 0 .36.77l.6.68a7.2 7.2 0 0 1 1.62 4.36 8.33 8.33 0 0 1-2.43 6.1 28.66 28.66 0 0 1-4.56 4.02q-.28.2-.4.05t.06-.3q1.65-1.45 3.34-3.2t1.52-5.48a11.74 11.74 0 0 0-.47-2.78 4.52 4.52 0 0 0-1.38-2.17q-.56-.46-1.63.15a.2.2 0 0 0-.08.17l.03 3.8.03 3.13q.03 1.08.77.8l.53-.42a.26.26 0 0 1 .35-.02q.15.13-.02.3l-1.16 1.16a5.44 5.44 0 0 0-.9 1.2q-.12.26-.43 0a11.47 11.47 0 0 0-.85-.9 7.1 7.1 0 0 0-1.4-.8q-.25-.08-.25-.2a.2.2 0 0 1 .16-.18q.76-.26.75-1.55 0-1.32.03-2.7t0-2.66a1.28 1.28 0 0 0-.28-.82 6.48 6.48 0 0 0-.5-.5 1.95 1.95 0 0 1-.83-1.93 4.23 4.23 0 0 1 1.4-2.18q.23-.24.38-.1t0 .3a1.3 1.3 0 0 0-.46 1.03q.05.5.83.75a2.58 2.58 0 0 1 1.27.7 2.1 2.1 0 0 1 .45 1 .2.2 0 0 0 .1.16.18.18 0 0 0 .18 0zm17.95 10.5q-.18.3-.43 0a7.8 7.8 0 0 0-3.92-2.4q-.2-.07-.2-.2a.2.2 0 0 1 .13-.2q.75-.25.75-1.55l-.03-5.96a.72.72 0 0 0-.03-.2.16.16 0 0 1 .02-.15.2.2 0 0 1 .16-.08 12.75 12.75 0 0 0 5.54-1.7.26.26 0 0 1 .2-.04q.08.02.1.17a5.05 5.05 0 0 0 1.24 2.48 5.73 5.73 0 0 1 .95 1.92 5.25 5.25 0 0 1 .3 2.03 3.9 3.9 0 0 1-.62 1.7 8.72 8.72 0 0 1-1.15 1.4 8.38 8.38 0 0 1-1.64 1.26 3.48 3.48 0 0 0-1.37 1.52zm-1.28-10.48l.04 6.76a.25.25 0 0 0 .14.24l2.07 1.3a.38.38 0 0 0 .57-.13 3.7 3.7 0 0 0 1-2.87 4.63 4.63 0 0 0-.4-1.86 5.93 5.93 0 0 0-.94-1.45 6.07 6.07 0 0 1-1.4-2.3.2.2 0 0 0-.1-.1.16.16 0 0 0-.16 0l-.7.22a.2.2 0 0 0-.13.2zM145.7 30h2.02a.17.17 0 0 1 .2.2v.72a.17.17 0 0 1-.2.18h-1.4a.2.2 0 0 0-.17.07.14.14 0 0 0-.04.15 9.9 9.9 0 0 1-.02 1.82l-1.2 12.33q-.03.4-.22.4t-.23-.42l-.6-7.16q-.3-3.58-.65-7.17h-1.36a.16.16 0 0 1-.18-.17q0-.17.14-.2a1.97 1.97 0 0 0 1.26-.78 2.45 2.45 0 0 0 .44-1.7 6 6 0 0 1 .43-2.8q.53-1.14 2.07-.63.86.3 1.57.5t1-.23q.14-.25.26-.2t-.04.44a3.33 3.33 0 0 1-1.1 1.8q-.67.46-2.1-.22-1.36-.63-1.6.63t.5 1.65a3.74 3.74 0 0 1 .96.65.38.38 0 0 0 .27.13zm18 9.03q-.3.13-.43-.05t.1-.36q1.36-1 1.4-1.73a1.82 1.82 0 0 0-.44-1.14 12.85 12.85 0 0 0-1.67-1.75q-2.43-2.2-2.4-3.65 0-1.33 2-2.6l.6-.32q.5-.3.7-.46a.2.2 0 0 0 .1-.2 1.87 1.87 0 0 0-2.02-1.6q-1.68 0-2.5 2.06a9.5 9.5 0 0 0-.6 4.54 9.67 9.67 0 0 0 2.77 6.44 7.7 7.7 0 0 0 5.37 2.16 7.98 7.98 0 0 0 3.5-.9q.26-.12.4.08t-.13.4a10.03 10.03 0 0 1-6.4 2.2 7.38 7.38 0 0 1-5.94-2.82 9.8 9.8 0 0 1-2.52-5.53 10.78 10.78 0 0 1 1.5-6.65 5.1 5.1 0 0 1 4.37-2.7 2.6 2.6 0 0 1 1.73.53 2.8 2.8 0 0 1 .9 1.3q.08.24.3.1a15.04 15.04 0 0 0 1.9-1.66.77.77 0 0 1 .9-.03l.9.46.95.53a1.3 1.3 0 0 0 1.2.02q.26-.12.4 0t-.03.32q-.6.6-1.1 1.05t-1.02.9a.65.65 0 0 1-.15.13.26.26 0 0 1-.12.02.4.4 0 0 1-.2-.08l-.2-.13a8.1 8.1 0 0 0-2.8-.98 1.97 1.97 0 0 0-1.15.48 2.06 2.06 0 0 0-.97 1.47q-.03.93 1.44 2.2 3.07 2.66 3.24 4.25.12 1.5-3.87 3.68zm13.78 1.17l-1.3 1q-.7.54-1.33 1a.47.47 0 0 1-.34.14q-.1-.02-.1-.2 0-.25-.7-.95a5.9 5.9 0 0 1-1.85-4.67 5.3 5.3 0 0 1 2.28-4.16 13.8 13.8 0 0 0 1.27-1.1 5.98 5.98 0 0 0 1.05-1.4q.2-.35.52 0a6.76 6.76 0 0 0 3.55 2.37q.56.1.12.45a1.32 1.32 0 0 0-.6.97v.02l.03 5.35a.75.75 0 0 0 .4.74q.4.2.85-.3.17-.2.33-.1t0 .34q-.42.63-.8 1.24a7.82 7.82 0 0 0-.67 1.27q-.18.28-.4 0a.62.62 0 0 0-.3-.18 2.14 2.14 0 0 1-1.7-1.77.3.3 0 0 0-.1-.14.3.3 0 0 0-.2.04zm.13-6.9a4.38 4.38 0 0 1-1.7-1.13q-.45-.56-.74-.1a5.86 5.86 0 0 0-.97 4.1q.37 3.2 2.24 3.93a.03.03 0 0 1 .02.02q.48.15 1.16-.58a.24.24 0 0 0 .05-.13v-.54l.1-5.38a.2.2 0 0 0-.16-.18zm5.3-6.85a.2.2 0 0 1 0-.3q.13-.17.35.04l.56.7a4.8 4.8 0 0 1 .5.77.18.18 0 0 0 .16.12.2.2 0 0 0 .17-.1 5.27 5.27 0 0 1 1.92-1.9 4.83 4.83 0 0 1 2.65-.67q.27 0 .28.23t-.28.2a2.57 2.57 0 0 0-1.85.68 3.33 3.33 0 0 0-.7 2.44v10.15q0 .37.16.48l.86.5q.3.1.8-.58a.22.22 0 0 1 .32-.07q.2.1 0 .3a12.22 12.22 0 0 0-1.9 2.7q-.14.25-.42 0a5.6 5.6 0 0 0-1.18-1.16 4.53 4.53 0 0 0-1.7-.66q-.2-.03-.2-.17a.2.2 0 0 1 .13-.2 1.25 1.25 0 0 0 .54-.4 1.5 1.5 0 0 0 .24-.95v-7.88a7.83 7.83 0 0 0-.37-2.66 4.48 4.48 0 0 0-1-1.63zm7.86 12.65l-.08-6.43a.8.8 0 0 0-.07-.36q-.27-.45-.47-.2l-.47.47q-.2.2-.36.05t.06-.46a14.7 14.7 0 0 0 .92-1.3q.4-.63.85-1.27.18-.23.43 0a12.37 12.37 0 0 0 .96 1.05 7.08 7.08 0 0 0 1.34.96q.24.1.2.23a.16.16 0 0 1-.15.14 1.3 1.3 0 0 0-.52.4 1.52 1.52 0 0 0-.24.96v4.96q0 1.2.45 1.45a.55.55 0 0 0 .83-.26q.12-.23.3-.1t0 .4q-.37.55-.67 1.1t-.63 1.1a.37.37 0 0 1-.55.15 4.12 4.12 0 0 1-1.58-1.23 3 3 0 0 1-.54-1.82zm1.7-13.9q1.3 0 1.18 1.24a2.08 2.08 0 0 1-.8 1.27 1.95 1.95 0 0 1-1.13.64q-.4 0-.63-.67a3.1 3.1 0 0 1-.18-1.23 1.18 1.18 0 0 1 .5-.9 1.74 1.74 0 0 1 1.06-.35zm6.76 4.8h2.03a.17.17 0 0 1 .2.2v.72a.17.17 0 0 1-.2.18h-1.42a.2.2 0 0 0-.14.07.14.14 0 0 0-.06.15 9.9 9.9 0 0 1-.03 1.82l-1.17 12.33q-.05.4-.24.4t-.24-.42l-.6-7.16q-.3-3.58-.65-7.17h-1.34a.16.16 0 0 1-.2-.17q0-.17.15-.2a1.97 1.97 0 0 0 1.27-.78 2.45 2.45 0 0 0 .44-1.7 6 6 0 0 1 .44-2.8q.52-1.14 2.06-.63.86.3 1.57.5t1-.23q.14-.25.26-.2t-.04.44a3.33 3.33 0 0 1-1.1 1.8q-.68.46-2.1-.22-1.37-.63-1.6.63t.5 1.65a3.74 3.74 0 0 1 .95.65.38.38 0 0 0 .27.13zm6.57 12.06q-.2.3-.45 0a7.8 7.8 0 0 0-3.9-2.4q-.22-.07-.2-.2a.2.2 0 0 1 .12-.2q.75-.25.75-1.55l-.04-5.96a.72.72 0 0 0-.02-.2.16.16 0 0 1 .02-.15.2.2 0 0 1 .15-.08 12.75 12.75 0 0 0 5.55-1.7.26.26 0 0 1 .2-.04q.08.02.1.17a5.05 5.05 0 0 0 1.23 2.48 5.73 5.73 0 0 1 .97 1.92 5.25 5.25 0 0 1 .3 2.03 3.9 3.9 0 0 1-.62 1.7 8.72 8.72 0 0 1-1.15 1.4 8.38 8.38 0 0 1-1.64 1.26 3.48 3.48 0 0 0-1.37 1.52zm-1.3-10.48l.05 6.76a.25.25 0 0 0 .15.24l2.07 1.3a.38.38 0 0 0 .56-.13 3.7 3.7 0 0 0 1-2.87 4.63 4.63 0 0 0-.4-1.86 5.93 5.93 0 0 0-.94-1.45 6.07 6.07 0 0 1-1.4-2.3.2.2 0 0 0-.1-.1.16.16 0 0 0-.16 0l-.7.22a.2.2 0 0 0-.13.2zm11.27 1.48v5.7q0 .36.18.47l.84.5q.26.15.8-.6a.2.2 0 0 1 .3-.05q.18.1 0 .3a12.22 12.22 0 0 0-1.9 2.7q-.2.26-.42 0a7 7 0 0 0-1.23-1.17 4.94 4.94 0 0 0-1.67-.64q-.2-.06-.2-.2a.2.2 0 0 1 .14-.18q.78-.13.77-1.35v-4.95q0-1.2-.45-1.47-.52-.33-.85.26-.13.24-.3.12t.02-.4q.34-.55.65-1.1t.64-1.14a.33.33 0 0 1 .54-.13 3.48 3.48 0 0 1 2.07 2.1.2.2 0 0 0 .15.17.17.17 0 0 0 .2-.08l1.8-2.08a.2.2 0 0 1 .16-.07.2.2 0 0 1 .16.1l1.23 2.36a.2.2 0 0 1-.03.2l-1.4 1.7a.2.2 0 0 1-.2.06.15.15 0 0 1-.13-.1l-.94-1.76a.2.2 0 0 0-.15-.1.2.2 0 0 0-.18.08l-.55.66a.16.16 0 0 0-.05.12zm8.78 4.56q0 1.9.7 2.18a.18.18 0 0 1 .08.16.16.16 0 0 1-.08.14 5.87 5.87 0 0 0-1.7 2.13.2.2 0 0 1-.36 0 5.5 5.5 0 0 0-1.8-2.1.17.17 0 0 1-.06-.17.2.2 0 0 1 .08-.16q.76-.3.76-2.18v-3.9q0-1.2-.45-1.46-.5-.34-.84.25-.14.26-.3.13t0-.4q.35-.55.66-1.1t.64-1.14a.34.34 0 0 1 .53-.15A3.6 3.6 0 0 1 224.5 32a.17.17 0 0 0 .12.16.2.2 0 0 0 .18-.05l1.33-1.15a3.8 3.8 0 0 0 .92-1.1q.13-.3.42 0 .7.75 1.2 1.18a3.56 3.56 0 0 0 1.7.65q.2.05.2.18a.17.17 0 0 1-.14.18 1.3 1.3 0 0 0-.54.4 1.52 1.52 0 0 0-.24.96v4.96q0 1.2.44 1.46.52.32.83-.25.13-.23.3-.1t0 .4q-.36.55-.67 1.1t-.62 1.1a.36.36 0 0 1-.53.17 3.28 3.28 0 0 1-2.1-3.06v-6q0-.35-.18-.46v-.02l-1-.82a.23.23 0 0 0-.27 0l-1.22.94a.17.17 0 0 0-.08.14zm9.35 1.48l-.08-6.43a.8.8 0 0 0-.07-.36q-.28-.45-.48-.2l-.47.47q-.2.2-.36.05t.05-.46a14.7 14.7 0 0 0 .92-1.3q.4-.63.84-1.27.2-.23.44 0a12.37 12.37 0 0 0 .96 1.05 7.08 7.08 0 0 0 1.33.96q.24.1.2.23a.16.16 0 0 1-.15.14 1.3 1.3 0 0 0-.54.4 1.52 1.52 0 0 0-.22.96v4.96q0 1.2.44 1.45a.55.55 0 0 0 .85-.26q.1-.23.28-.1t0 .4q-.35.55-.66 1.1t-.63 1.1a.37.37 0 0 1-.55.15 4.12 4.12 0 0 1-1.6-1.23 3 3 0 0 1-.52-1.82zm1.7-13.9q1.3 0 1.18 1.24a2.08 2.08 0 0 1-.8 1.27 1.95 1.95 0 0 1-1.13.64q-.42 0-.65-.67a3.1 3.1 0 0 1-.17-1.23 1.18 1.18 0 0 1 .52-.9 1.74 1.74 0 0 1 1.05-.35zm9.17 15l-1.3 1q-.7.54-1.33 1a.47.47 0 0 1-.34.14q-.12-.02-.1-.2 0-.25-.72-.95a5.9 5.9 0 0 1-1.84-4.67 5.3 5.3 0 0 1 2.28-4.16 13.8 13.8 0 0 0 1.27-1.1 5.98 5.98 0 0 0 1.04-1.4q.2-.35.52 0a6.76 6.76 0 0 0 3.55 2.37q.57.1.13.45a1.32 1.32 0 0 0-.6.97v.02l.03 5.35a.75.75 0 0 0 .4.74q.4.2.85-.3.18-.2.34-.1t0 .34q-.42.63-.8 1.24a7.82 7.82 0 0 0-.67 1.27q-.18.28-.4 0a.62.62 0 0 0-.3-.18 2.14 2.14 0 0 1-1.7-1.77.3.3 0 0 0-.1-.14.3.3 0 0 0-.2.04zm.13-6.9a4.38 4.38 0 0 1-1.7-1.13q-.47-.56-.75-.1a5.86 5.86 0 0 0-.97 4.1q.38 3.2 2.25 3.93a.03.03 0 0 1 .02.02q.48.15 1.16-.58a.24.24 0 0 0 .06-.13v-.54l.1-5.38a.2.2 0 0 0-.16-.18zM250 40a5.1 5.1 0 0 0 1.52-1.56q.2-.28.34 0A3.54 3.54 0 0 0 253.4 40a.17.17 0 0 1 .1.15 5.15 5.15 0 0 1-.7 2.3 15.86 15.86 0 0 1-1.33 2.2.2.2 0 0 1-.24.05q-.17-.1-.1-.22a3.33 3.33 0 0 0 .58-2.25q-.13-1.14-1.7-1.9-.33-.13 0-.34zm20.1-6.14q.1.23-.17.37a5 5 0 0 1-4.97.1 4.4 4.4 0 0 1-2.53-3.73 5.98 5.98 0 0 1 1.42-4.38 5.64 5.64 0 0 1 4.43-1.98 5.4 5.4 0 0 1 2.25.45 6.45 6.45 0 0 1 1.6.9q1.2 1.05 2.05 1.68a1.58 1.58 0 0 0 1.75.18q.3-.16.44.05t-.3.5q-2.56 1.65-2.74 2.9t1.76 4.18q1.8 2.73 1.26 4.7a6.07 6.07 0 0 1-2.44 3.34 8.18 8.18 0 0 1-4.04 1.54 5.28 5.28 0 0 1-4.13-1.5l-1.73-1.55a1.5 1.5 0 0 0-1.96.05q-.3.22-.48.05t.03-.4q3.54-3.6 6.9.13a5.34 5.34 0 0 0 2.8 1.9 2.5 2.5 0 0 0 2.15-.64 2.3 2.3 0 0 0 .7-2.08 9.04 9.04 0 0 0-1.52-3.35q-1.92-2.9-1.86-4.43t2.28-3.32q.14-.1.1-.23t-.22-.1a3.92 3.92 0 0 1-2.72-1.28 4.46 4.46 0 0 0-3.14-1.3 3.58 3.58 0 0 0-2.63 1.2 4.07 4.07 0 0 0-.73 3.1 3.3 3.3 0 0 0 2.1 2.9 4.6 4.6 0 0 0 3.9-.03q.27-.14.4.06zm11.95-.8v5.7q0 .36.18.47l.84.5q.27.15.82-.6a.2.2 0 0 1 .3-.05q.16.1 0 .3a12.22 12.22 0 0 0-1.9 2.7q-.2.26-.44 0a6.97 6.97 0 0 0-1.23-1.17 4.95 4.95 0 0 0-1.67-.64q-.2-.06-.2-.2a.2.2 0 0 1 .14-.18q.78-.13.77-1.35v-4.95q0-1.2-.44-1.47-.52-.33-.85.26-.13.24-.3.12t.02-.4q.34-.55.65-1.1t.64-1.14a.32.32 0 0 1 .52-.13 3.48 3.48 0 0 1 2.07 2.1.2.2 0 0 0 .13.17.17.17 0 0 0 .2-.08l1.8-2.08a.2.2 0 0 1 .16-.07.2.2 0 0 1 .14.1l1.23 2.36a.2.2 0 0 1-.02.2l-1.4 1.7a.2.2 0 0 1-.2.06.15.15 0 0 1-.12-.1l-.95-1.76a.2.2 0 0 0-.15-.1.2.2 0 0 0-.18.08l-.55.66a.16.16 0 0 0-.05.12zm5.55 7.57q-.22.08-.24-.07a.42.42 0 0 1 .18-.35 5.76 5.76 0 0 0 1.35-3.37 3.75 3.75 0 0 0-1.13-2.73q-1.9-1.93-1.62-3.04a6.34 6.34 0 0 1 1.82-2.65q.15-.15.27-.05t0 .27q-.83 1-.13 1.7a12.86 12.86 0 0 1 1.35 1.55.18.18 0 0 0 .25.06 22.65 22.65 0 0 0 1.97-1.2q.93-.64 1.84-1.36a.2.2 0 0 1 .2-.05.17.17 0 0 1 .13.17 2.34 2.34 0 0 0 .47 1.1q.36.45.75.88a5.1 5.1 0 0 1 1.27 3.75 5.35 5.35 0 0 1-1.73 3.88q-.78.68-1.6 1.5a13.47 13.47 0 0 0-1.33 1.57q-.13.14-.26.04l-1.74-1.15a2.3 2.3 0 0 0-2.05-.42zm2.13-1.93a8.22 8.22 0 0 1 1.37.68l1.44.85a.17.17 0 0 0 .26-.07 17.2 17.2 0 0 0 .78-1.54 5.66 5.66 0 0 0 .48-2.22 5 5 0 0 0-.5-2.3 18.2 18.2 0 0 0-1.1-1.94q-.68-.98-2.53.08a.16.16 0 0 0-.07.26 4.8 4.8 0 0 1 .72 3.25 7.93 7.93 0 0 1-.96 2.66.22.22 0 0 0 0 .17.15.15 0 0 0 .1.13zm9.2.4l-.1-6.43a.8.8 0 0 0-.06-.36q-.28-.45-.48-.2l-.47.47q-.2.2-.36.05t.05-.46a14.7 14.7 0 0 0 .93-1.3q.4-.63.84-1.27.18-.23.42 0a12.37 12.37 0 0 0 .96 1.05 7.08 7.08 0 0 0 1.34.96q.25.1.22.23a.16.16 0 0 1-.16.14 1.3 1.3 0 0 0-.54.4 1.52 1.52 0 0 0-.23.96v4.96q0 1.2.45 1.45a.55.55 0 0 0 .85-.26q.1-.23.28-.1t0 .4q-.36.55-.66 1.1t-.62 1.1a.37.37 0 0 1-.55.15 4.12 4.12 0 0 1-1.6-1.23 3 3 0 0 1-.52-1.82zm1.7-13.9q1.3 0 1.18 1.24a2.08 2.08 0 0 1-.8 1.27 1.95 1.95 0 0 1-1.12.64q-.43 0-.65-.67a3.1 3.1 0 0 1-.17-1.23 1.18 1.18 0 0 1 .52-.9 1.74 1.74 0 0 1 1.05-.35zm7.6 12.42q-.02 1.9.7 2.18a.18.18 0 0 1 .07.16.16.16 0 0 1-.08.14 5.87 5.87 0 0 0-1.7 2.13.2.2 0 0 1-.36 0 5.5 5.5 0 0 0-1.78-2.1.17.17 0 0 1-.07-.17.2.2 0 0 1 .1-.16q.75-.3.75-2.18v-3.9q0-1.2-.44-1.46-.5-.34-.84.25-.13.26-.3.13t.02-.4q.34-.55.65-1.1t.64-1.14a.34.34 0 0 1 .53-.15 3.6 3.6 0 0 1 2.07 2.13.17.17 0 0 0 .12.16.2.2 0 0 0 .18-.05l1.32-1.15a3.8 3.8 0 0 0 .92-1.1q.13-.3.42 0 .7.75 1.2 1.18a3.56 3.56 0 0 0 1.7.65q.2.05.2.18a.17.17 0 0 1-.14.18 1.3 1.3 0 0 0-.54.4 1.52 1.52 0 0 0-.23.96v4.96q0 1.2.44 1.46.52.32.84-.25.13-.23.3-.1t0 .4q-.35.55-.66 1.1t-.63 1.1a.36.36 0 0 1-.52.17 3.28 3.28 0 0 1-2.12-3.06v-6q0-.35-.16-.46h-.02v-.02l-1-.82a.23.23 0 0 0-.26 0l-1.22.94a.17.17 0 0 0-.08.14zm11.4 4.56a.5.5 0 0 0-.3-.42 3.2 3.2 0 0 1-.47-.28 5.08 5.08 0 0 1-1.9-2.24 8.12 8.12 0 0 1-.63-2.8 6.1 6.1 0 0 1 1.8-5.08 5.87 5.87 0 0 1 1.6-1 12.5 12.5 0 0 1 1.85-.65q.3-.05.43.3l1.7 3.96q.12.32-.08.4h-.03l-4.8 1.87a.2.2 0 0 0-.13.22q.58 2.6 1.92 3.33a3.07 3.07 0 0 0 2.68.22q.23-.1.3.03a.14.14 0 0 1-.1.22q-.94.48-1.8.98a12.35 12.35 0 0 0-1.54 1.05.46.46 0 0 1-.3.05q-.2-.02-.2-.15zm-1.1-6.62a.2.2 0 0 0 .08.14.17.17 0 0 0 .2 0l2.5-.93a.17.17 0 0 0 .1-.24l-1.44-3.5q-.1-.27-.42-.08a2.5 2.5 0 0 0-.93 1.82 9.58 9.58 0 0 0-.07 2.8"/></svg>