<svg xmlns="http://www.w3.org/2000/svg" viewBox="0 0 64 64"><path fill="#444" fill-rule="evenodd" d="m53.118 30.57-24.587 4.998a22 22 0 0 1-4.42.444h-6.06a3.73 3.73 0 0 1-2.964-1.476l-6.886-8.541a.96.96 0 0 1 .557-1.523l2.19-.445a2.32 2.32 0 0 1 1.763.355l5.496 3.26a.93.93 0 0 0 .705.142l6.76-1.375-9.437-10.173a.96.96 0 0 1 .49-1.6l2.81-.571a3.23 3.23 0 0 1 2.28.38l15.997 9.496 6.112-1.242c8.244-1.676 13.418.068 13.994 3 .407 2.073-.772 4.052-4.8 4.871M40 54a2 2 0 0 1-2 2H6a2 2 0 0 1 0-4h32a2 2 0 0 1 2 2"/></svg>