<svg xmlns="http://www.w3.org/2000/svg" viewBox="0 0 33 32"><path fill="#444" d="M16.499 0a16.394 16.394 0 0 0-5.215 31.972c.825.15 1.127-.356 1.127-.791 0-.39-.015-1.421-.023-2.79-4.59.991-5.558-2.2-5.558-2.2a4.351 4.351 0 0 0-1.832-2.4c-1.498-1.017.113-.996.113-.996a3.464 3.464 0 0 1 2.528 1.69 3.525 3.525 0 0 0 4.802 1.363 3.498 3.498 0 0 1 1.047-2.193c-3.664-.414-7.516-1.821-7.516-8.108a6.321 6.321 0 0 1 1.699-4.402 5.87 5.87 0 0 1 .162-4.341s1.385-.441 4.537 1.682a15.727 15.727 0 0 1 8.262 0c3.15-2.123 4.532-1.682 4.532-1.682a5.86 5.86 0 0 1 .165 4.341 6.31 6.31 0 0 1 1.696 4.403c0 6.302-3.858 7.689-7.534 8.095a3.903 3.903 0 0 1 1.12 3.038c0 2.193-.02 3.962-.02 4.5 0 .438.297.949 1.135.789A16.395 16.395 0 0 0 16.499 0z" fill-rule="evenodd"/></svg>