<svg xmlns="http://www.w3.org/2000/svg" viewBox="0 0 64 64"><path fill="#444" fill-rule="evenodd" d="m59.538 30.722-4.855 4.853a1.5 1.5 0 0 1-2.121 0l-2.014-2.012a1.44 1.44 0 0 1-.365-1.259 4.03 4.03 0 0 0-1.472-3.405c-1.563-1.562-3.206-1.938-3.987-1.158l-1.695 1.695a2 2 0 0 1-2.828 0l-5.656-5.653a2 2 0 0 1 0-2.827l2.984-2.983a.974.974 0 0 0-.004-1.37c-3.857-3.948-8.356-2.753-11.735-.738a1.01 1.01 0 0 1-1.158-.156l-.435-.434a.76.76 0 0 1 .017-1.081c4.846-4.844 15.117-5.789 19.71-1.199l7.098 7.095c.316.336.452.805.365 1.258a4.03 4.03 0 0 0 1.472 3.405 4.03 4.03 0 0 0 3.407 1.472 1.44 1.44 0 0 1 1.259.365l2.013 2.012a1.5 1.5 0 0 1 0 2.12m-25.345-4.28 3.368 3.366c.587.587.597 1.535.023 2.134l-19.89 20.786a4.073 4.073 0 0 1-5.822.064l-.674-.673a4.07 4.07 0 0 1 .065-5.819l20.795-19.88a1.527 1.527 0 0 1 2.135.023"/></svg>