<svg xmlns="http://www.w3.org/2000/svg" viewBox="0 0 32 32"><path d="M16 2.883c4.272 0 4.778.016 6.465.093a8.853 8.853 0 0 1 2.971.551 4.957 4.957 0 0 1 1.84 1.197 4.957 4.957 0 0 1 1.197 1.84 8.853 8.853 0 0 1 .551 2.971c.077 1.687.093 2.193.093 6.465s-.016 4.779-.093 6.466a8.853 8.853 0 0 1-.55 2.97 5.299 5.299 0 0 1-3.037 3.037 8.853 8.853 0 0 1-2.971.551c-1.687.077-2.193.094-6.466.094s-4.778-.017-6.465-.094a8.853 8.853 0 0 1-2.971-.55 4.957 4.957 0 0 1-1.84-1.198 4.957 4.957 0 0 1-1.197-1.84 8.853 8.853 0 0 1-.55-2.97c-.078-1.688-.094-2.194-.094-6.466s.016-4.778.093-6.465a8.853 8.853 0 0 1 .551-2.971 4.957 4.957 0 0 1 1.197-1.84 4.957 4.957 0 0 1 1.84-1.197 8.853 8.853 0 0 1 2.97-.551c1.688-.077 2.194-.093 6.466-.093M16 0c-4.345 0-4.89.018-6.597.096A11.744 11.744 0 0 0 5.52.84a7.843 7.843 0 0 0-2.834 1.845A7.843 7.843 0 0 0 .84 5.52a11.744 11.744 0 0 0-.744 3.884C.018 11.11 0 11.655 0 16s.018 4.89.096 6.597A11.744 11.744 0 0 0 .84 26.48a7.843 7.843 0 0 0 1.845 2.833A7.843 7.843 0 0 0 5.52 31.16a11.744 11.744 0 0 0 3.884.744C11.11 31.982 11.655 32 16 32s4.89-.018 6.597-.096a11.744 11.744 0 0 0 3.884-.744 8.181 8.181 0 0 0 4.679-4.68 11.744 11.744 0 0 0 .744-3.883C31.982 20.89 32 20.345 32 16s-.018-4.89-.096-6.597a11.744 11.744 0 0 0-.744-3.884 7.843 7.843 0 0 0-1.845-2.833A7.843 7.843 0 0 0 26.48.84a11.744 11.744 0 0 0-3.884-.744C20.89.018 20.345 0 16 0z"/><path d="M16 8a8 8 0 1 0 8 8 8 8 0 0 0-8-8zm0 13.193A5.193 5.193 0 1 1 21.193 16 5.193 5.193 0 0 1 16 21.193z"/><circle cx="24.5" cy="7.5" r="2"/></svg>