<svg id="Layer_1" data-name="Layer 1" xmlns="http://www.w3.org/2000/svg" viewBox="0 0 64 64"><title>Icons 100</title><path d="M53.01,48.0208h-42a5,5,0,0,1-5-5v-22a5,5,0,0,1,5-5h42a5,5,0,0,1,5,5v22A5,5,0,0,1,53.01,48.0208Zm-35-5a1,1,0,0,0,1,1h26a1,1,0,0,0,1-1v-3a1,1,0,0,0-1-1h-26a1,1,0,0,0-1,1Zm-8,0a1,1,0,0,0,1,1h4a1,1,0,0,0,1-1v-3a1,1,0,0,0-1-1h-4a1,1,0,0,0-1,1Zm8-19a1,1,0,0,0-1-1h-6a1,1,0,0,0-1,1v3a1,1,0,0,0,1,1h6a1,1,0,0,0,1-1Zm1,7h-8a1,1,0,0,0-1,1v3a1,1,0,0,0,1,1h8a1,1,0,0,0,1-1v-3A1,1,0,0,0,19.01,31.0207Zm7-7a1,1,0,0,0-1-1h-4a1,1,0,0,0-1,1v3a1,1,0,0,0,1,1h4a1,1,0,0,0,1-1Zm1,7h-4a1,1,0,0,0-1,1v3a1,1,0,0,0,1,1h4a1,1,0,0,0,1-1v-3A1,1,0,0,0,27.01,31.0207Zm7-7a1,1,0,0,0-1-1h-4a1,1,0,0,0-1,1v3a1,1,0,0,0,1,1h4a1,1,0,0,0,1-1Zm1,7h-4a1,1,0,0,0-1,1v3a1,1,0,0,0,1,1h4a1,1,0,0,0,1-1v-3A1,1,0,0,0,35.01,31.0207Zm7-7a1,1,0,0,0-1-1h-4a1,1,0,0,0-1,1v3a1,1,0,0,0,1,1h4a1,1,0,0,0,1-1Zm1,7h-4a1,1,0,0,0-1,1v3a1,1,0,0,0,1,1h4a1,1,0,0,0,1-1v-3A1,1,0,0,0,43.01,31.0207Zm11-7a1,1,0,0,0-1-1h-8a1,1,0,0,0-1,1v3a1,1,0,0,0,1,1h8a1,1,0,0,0,1-1Zm0,8a1,1,0,0,0-1-1h-6a1,1,0,0,0-1,1v3a1,1,0,0,0,1,1h6a1,1,0,0,0,1-1Zm0,8a1,1,0,0,0-1-1h-4a1,1,0,0,0-1,1v3a1,1,0,0,0,1,1h4a1,1,0,0,0,1-1Z" fill="#444444" fill-rule="evenodd"/></svg>