<svg id="Layer_1" data-name="Layer 1" xmlns="http://www.w3.org/2000/svg" viewBox="0 0 64 64"><title>Icons 300</title><path d="M30.9707,6.31a1.9949,1.9949,0,0,1,2.08,0L55.2885,19.887a1.5074,1.5074,0,0,1,.722,1.2866v1.8488a1.0031,1.0031,0,0,1-1.0033,1.003H52.0105a1,1,0,0,0-1,1V43.2076a1,1,0,0,0,.479.8533L55.2885,46.38a1.5072,1.5072,0,0,1,.722,1.2865V51.015a1.0035,1.0035,0,0,1-1.0036,1.0034H9.01a1,1,0,0,1-1-1v-3.354a1.5036,1.5036,0,0,1,.72-1.2832l3.8011-2.3207a.9994.9994,0,0,0,.4787-.8531V25.0253a1,1,0,0,0-1-1h-3a1,1,0,0,1-1-1V21.1711a1.5031,1.5031,0,0,1,.72-1.2829Zm9.04,36.7026a1,1,0,0,0,1,1h4a1,1,0,0,0,1-1V25.0253a1,1,0,0,0-1-1h-4a1,1,0,0,0-1,1Zm-11,0a1,1,0,0,0,1,1h4a1,1,0,0,0,1-1V25.0253a1,1,0,0,0-1-1h-4a1,1,0,0,0-1,1Zm3-23.9938a2.9993,2.9993,0,1,0-3-2.9993A2.9995,2.9995,0,0,0,32.0105,19.0185Zm-14,23.9938a1,1,0,0,0,1,1h4a1,1,0,0,0,1-1V25.0253a1,1,0,0,0-1-1h-4a1,1,0,0,0-1,1Z" fill="#444444" fill-rule="evenodd"/></svg>