<svg xmlns="http://www.w3.org/2000/svg" viewBox="0 0 32 32"><path fill="#444" d="M29.633 0H2.36A2.335 2.335 0 0 0 0 2.307v27.384A2.337 2.337 0 0 0 2.36 32h27.273A2.341 2.341 0 0 0 32 29.69V2.308A2.34 2.34 0 0 0 29.633 0zM9.493 27.267H4.74v-15.27h4.751zM7.117 9.91A2.752 2.752 0 1 1 9.87 7.158 2.751 2.751 0 0 1 7.12 9.91zM27.27 27.267h-4.746v-7.426c0-1.77-.03-4.049-2.466-4.049-2.47 0-2.846 1.93-2.846 3.922v7.553H12.47v-15.27h4.55v2.087h.065a4.986 4.986 0 0 1 4.49-2.467c4.806 0 5.695 3.162 5.695 7.275z"/></svg>