<svg xmlns="http://www.w3.org/2000/svg" viewBox="0 0 64 64"><path fill="#444" fill-rule="evenodd" d="M46 56H15a1 1 0 0 1-1-1V9a1 1 0 0 1 1-1h31a4 4 0 0 1 4 4v40a4 4 0 0 1-4 4m-20-7.5a1.5 1.5 0 0 0 1.5 1.5h9a1.5 1.5 0 0 0 1.5-1.5v-3a1.5 1.5 0 0 0-1.5-1.5h-9a1.5 1.5 0 0 0-1.5 1.5ZM32 13c-6.627 0-12 5.373-12 12s5.373 12 12 12 12-5.373 12-12-5.373-12-12-12m4.785 15.446q.12-.956.174-1.974a.49.49 0 0 1 .485-.472h4.164a.305.305 0 0 1 .3.344 10 10 0 0 1-.622 2.346.495.495 0 0 1-.462.31h-3.556a.486.486 0 0 1-.483-.554M37.268 21h3.556a.495.495 0 0 1 .462.31c.303.753.512 1.541.623 2.345a.31.31 0 0 1-.305.345H37.45a.494.494 0 0 1-.49-.472 27 27 0 0 0-.174-1.974.486.486 0 0 1 .483-.554m-1.638-5.302a10 10 0 0 1 4.04 2.893.252.252 0 0 1-.194.409h-2.688a.6.6 0 0 1-.577-.452 15 15 0 0 0-.89-2.502.251.251 0 0 1 .309-.348m-6.432 12.869q-.118-1.026-.168-2.144a.406.406 0 0 1 .402-.423h5.137a.405.405 0 0 1 .4.423q-.049 1.118-.167 2.144a.494.494 0 0 1-.495.433h-4.614a.494.494 0 0 1-.495-.433M29.693 21h4.614a.494.494 0 0 1 .495.433q.118 1.026.168 2.144a.405.405 0 0 1-.401.423h-5.137a.406.406 0 0 1-.402-.423q.05-1.118.168-2.144a.494.494 0 0 1 .495-.433M32 15c.929 0 1.756 1.412 2.306 3.621a.303.303 0 0 1-.288.379h-4.036a.303.303 0 0 1-.288-.379C30.244 16.412 31.071 15 32 15m-4.21 16.452c.222.859.52 1.696.89 2.502a.251.251 0 0 1-.31.348 10 10 0 0 1-4.04-2.892.252.252 0 0 1 .194-.41h2.689a.6.6 0 0 1 .576.452m-3.46-12.861a10 10 0 0 1 4.04-2.893.251.251 0 0 1 .31.348c-.37.806-.668 1.643-.89 2.502a.6.6 0 0 1-.578.452h-2.688a.252.252 0 0 1-.194-.41M26.556 24h-4.164a.305.305 0 0 1-.301-.344c.111-.805.32-1.592.623-2.346a.5.5 0 0 1 .466-.31h3.548a.49.49 0 0 1 .487.554 28 28 0 0 0-.174 1.974.49.49 0 0 1-.485.472m.176 5h-3.557a.495.495 0 0 1-.461-.31 10 10 0 0 1-.623-2.345.31.31 0 0 1 .305-.345h4.156c.263.002.478.21.49.472q.052 1.017.173 1.974a.486.486 0 0 1-.483.554M32 35c-.928 0-1.756-1.412-2.306-3.621a.303.303 0 0 1 .288-.379h4.036a.303.303 0 0 1 .288.379C33.756 33.588 32.928 35 32 35m7.67-3.59a10 10 0 0 1-4.04 2.892.251.251 0 0 1-.31-.348c.37-.806.668-1.643.89-2.502a.6.6 0 0 1 .578-.452h2.688a.252.252 0 0 1 .195.41Z"/></svg>