<svg id="Layer_1" data-name="Layer 1" xmlns="http://www.w3.org/2000/svg" viewBox="0 0 64 64"><title>Icons 100</title><path d="M50.1208,51.7221a1.8783,1.8783,0,0,1-1.8315,1.3009C44.6817,52.9491,34.6615,51.6371,23.5249,40.5,12.3867,29.3617,11.076,19.34,11.0023,15.7333a1.8777,1.8777,0,0,1,1.3009-1.83l8.5482-2.79a1.95,1.95,0,0,1,2.3833,1.0844l3.4128,7.905a1.906,1.906,0,0,1-.3909,2.1112L22.25,26.22a.9422.9422,0,0,0-.2192.9979,23.3385,23.3385,0,0,0,5.7682,9.0079,23.3412,23.3412,0,0,0,9.0064,5.768.9437.9437,0,0,0,.9994-.2194L41.81,37.7693a1.9085,1.9085,0,0,1,2.1141-.391l7.9035,3.4123a1.9483,1.9483,0,0,1,1.0845,2.3809Z" fill="#444444" fill-rule="evenodd"/></svg>