<svg xmlns="http://www.w3.org/2000/svg" viewBox="0 0 24 32"><path d="M15.333 9.333a.667.667 0 0 1-.666-.666V1.609a.667.667 0 0 1 1.138-.47l7.057 7.056a.667.667 0 0 1-.471 1.138zM22 10.667h-6.667a2 2 0 0 1-2-2V2a2 2 0 0 0-2-2H2a2 2 0 0 0-2 2v28a2 2 0 0 0 2 2h20a2 2 0 0 0 2-2V12.667a2 2 0 0 0-2-2zm-3.433 17.33a.474.474 0 0 1-.046.003H5.479A.48.48 0 0 1 5 27.518c0-.015 0-.03.002-.046.147-1.488.976-1.892 2.733-2.47 1.879-.62 2.33-1.227 2.356-2.89a3.102 3.102 0 0 1-.5-.498 3.868 3.868 0 0 1-.712-1.897.357.357 0 0 1-.089.012c-.344 0-.605-.847-.605-1.442s.177-.776.346-.776a.958.958 0 0 1 .133.01 5.9 5.9 0 0 1-.162-1.285c0-1.066.205-1.808.636-1.908.42-1.17 1.818-1.59 3.18-1.59.872 0 1.146.17 1.272.636a1.177 1.177 0 0 1 1.272.954c.328.122.636.55.636 1.908a5.895 5.895 0 0 1-.162 1.285.959.959 0 0 1 .134-.01c.168 0 .346.18.346.776s-.261 1.441-.606 1.441a.357.357 0 0 1-.088-.011 3.869 3.869 0 0 1-.712 1.897 3.1 3.1 0 0 1-.5.498c.024 1.663.476 2.27 2.355 2.889 1.758.579 2.587.983 2.733 2.47a.48.48 0 0 1-.431.527z"/></svg>