<svg id="Layer_1" data-name="Layer 1" xmlns="http://www.w3.org/2000/svg" viewBox="0 0 64 64"><title>Icons 300</title><path d="M32.01,52.0208a25.5515,25.5515,0,0,1-4.69-.498,2.5868,2.5868,0,0,0-2.0548.5322,21.0889,21.0889,0,0,1-10.0576,3.9527A1.0907,1.0907,0,0,1,14.1922,54.31a15.5285,15.5285,0,0,0,2.96-5.9666,1.613,1.613,0,0,0-.6024-1.5706A21.1588,21.1588,0,0,1,8.01,30.0208c0-12.1352,10.7453-22,24-22s24,9.8647,24,22S45.2651,52.0208,32.01,52.0208Zm-10.0059-25a3,3,0,1,0,3,3A3,3,0,0,0,22.0044,27.0209Zm10,0a3,3,0,1,0,3,3A3,3,0,0,0,32.0043,27.0209Zm10,0a3,3,0,1,0,3,3A3,3,0,0,0,42.0043,27.0209Z" fill="#444444" fill-rule="evenodd"/></svg>