<svg xmlns="http://www.w3.org/2000/svg" viewBox="0 0 39 32"><path d="M12.265 32C26.982 32 35.03 19.688 35.03 9.01c0-.35 0-.698-.023-1.044A16.37 16.37 0 0 0 39 3.783a15.85 15.85 0 0 1-4.596 1.272 8.095 8.095 0 0 0 3.518-4.47 15.941 15.941 0 0 1-5.08 1.962 7.954 7.954 0 0 0-11.322-.351 8.138 8.138 0 0 0-2.315 7.72 22.643 22.643 0 0 1-16.49-8.442A8.134 8.134 0 0 0 5.191 12.26a7.883 7.883 0 0 1-3.632-1.011v.102a8.064 8.064 0 0 0 6.42 7.92 7.914 7.914 0 0 1-3.614.14 8.02 8.02 0 0 0 7.476 5.61 15.957 15.957 0 0 1-9.937 3.466A16.132 16.132 0 0 1 0 28.371a22.493 22.493 0 0 0 12.265 3.623"/></svg>