<?xml version="1.0" encoding="utf-8"?>
<!-- Generator: Adobe Illustrator 16.0.0, SVG Export Plug-In . SVG Version: 6.00 Build 0)  -->
<!DOCTYPE svg PUBLIC "-//W3C//DTD SVG 1.1//EN" "http://www.w3.org/Graphics/SVG/1.1/DTD/svg11.dtd">
<svg version="1.1" id="Layer_1" xmlns="http://www.w3.org/2000/svg" xmlns:xlink="http://www.w3.org/1999/xlink" x="0px" y="0px"
	 width="20px" height="24px" viewBox="0 0 20 24" enable-background="new 0 0 20 24" xml:space="preserve">
<path fill="#FFFFFF" d="M1.87,11.866c0.943,1.757,2.804,2.895,6.115,3.253c-0.47,0.314-0.951,0.852-1.144,1.757
	c-0.64,0.31-2.667,1.056-3.883-1.036c0,0-0.68-1.244-1.984-1.344c0,0-1.263-0.02-0.088,0.789c0,0,0.847,0.4,1.431,1.895
	c0,0,0.76,2.555,4.433,1.737v2.638c0,0-0.077,0.935-0.933,1.241c0,0-0.505,0.353,0.039,0.546c0,0,2.371,0.194,2.371-1.748v-2.877
	c0,0-0.092-1.144,0.467-1.537v4.723c0,0-0.035,1.129-0.621,1.558c0,0-0.389,0.7,0.467,0.506c0,0,1.633-0.233,1.711-2.137
	l0.037-4.785h0.394l0.036,4.785c0.078,1.901,1.709,2.137,1.709,2.137c0.857,0.194,0.47-0.506,0.47-0.506
	c-0.586-0.429-0.625-1.558-0.625-1.558v-4.68c0.56,0.432,0.469,1.494,0.469,1.494v2.877c0,1.942,2.371,1.748,2.371,1.748
	c0.543-0.193,0.037-0.546,0.037-0.546c-0.856-0.308-0.933-1.241-0.933-1.241v-3.771c0-1.473-0.618-2.251-1.227-2.661
	c3.533-0.349,5.223-1.489,6.006-3.263c0.073-0.18,0.224-0.596,0.281-0.789c0.26-0.941,0.34-2.026,0.34-3.236
	c0-1.736-0.654-3.125-1.711-4.182c0.188-0.594,0.434-1.921-0.248-3.619c0,0-1.199-0.381-3.906,1.432
	c-1.061-0.265-2.188-0.396-3.319-0.396c-1.244,0-2.503,0.161-3.674,0.481C3.959-0.357,2.725,0.033,2.725,0.033
	C1.918,2.048,2.418,3.537,2.567,3.91C1.621,4.932,1.042,6.232,1.042,7.834c0,1.208,0.137,2.291,0.475,3.232
	C1.591,11.264,1.778,11.684,1.87,11.866z"/>
</svg>
